<?xml version="1.0" encoding="UTF-8"?>
<svg id="Layer_2" data-name="Layer 2" xmlns="http://www.w3.org/2000/svg" xmlns:xlink="http://www.w3.org/1999/xlink" viewBox="0 0 64.55 127">
  <defs>
    <style>
      .cls-1 {
        fill: none;
      }

      .cls-1, .cls-2 {
        stroke-width: 0px;
      }

      .cls-3 {
        clip-path: url(#clippath);
      }

      .cls-2 {
        fill: #1d1d1b;
      }
    </style>
    <clipPath id="clippath">
      <rect class="cls-1" width="64.55" height="127"/>
    </clipPath>
  </defs>
  <g id="Layer_1-2" data-name="Layer 1">
    <g class="cls-3">
      <path class="cls-2" d="M52.51,87.99c-.79-2.27-2.97-8.43-3.7-10.72-.78-2.42-1.54-4.85-2.34-7.27-.62-1.86-1.22-3.72-1.96-5.53-.73-1.79-1.59-3.53-2.43-5.27-.83-1.72-1.71-3.42-2.57-5.13-.74-1.47-1.51-2.93-2.22-4.42-.42-.88-.77-1.8-1.13-2.71-.51-1.29-1.02-2.58-1.49-3.88-.33-.92-.59-1.87-.9-2.79-.13-.38-.15-.83-.66-1.05.08.38.14.77.26,1.14.83,2.75,1.8,5.46,2.93,8.1.59,1.38,1.29,2.72,1.95,4.08.66,1.33,1.33,2.66,2,3.99.68,1.34,1.38,2.68,2.05,4.03.37.75.74,1.5,1.06,2.27.64,1.57,1.29,3.13,1.86,4.73.65,1.82,1.23,3.67,1.83,5.51.27.81.53,1.63.79,2.44.05.14.08.29.02.49-.23-.4-.46-.79-.69-1.19-1.17-2.06-2.83-3.66-4.72-5.06-.43-.31-.88-.59-1.31-.9-1.07-.77-2.14-1.55-3.2-2.34-1.34-.99-2.39-2.26-3.38-3.59-.68-.92-1.4-1.8-2.16-2.65-1.82-2.05-4.09-3.48-6.57-4.59-1.17-.52-2.36-1.02-3.54-1.52-1.97-.84-3.94-1.69-5.91-2.52-.45-.19-.92-.34-1.39-.48-.19-.06-.42-.03-.62-.03-.08.43.21.58.4.77,1.11,1.11,2.26,2.18,3.34,3.31,1.59,1.67,2.91,3.56,4.27,5.41.88,1.2,1.8,2.37,2.72,3.53,1.78,2.26,4.04,3.86,6.67,5.03,1.64.73,3.33,1.3,5.06,1.79,1.43.4,2.86.85,4.23,1.42,2.75,1.16,5.08,2.92,6.91,5.3.7.91,1.22,1.92,1.47,3.06.14.63.37,1.25.58,1.86.55,1.56,1.57,3.96,2.14,5.51M17.39,52.58s.03-.04.04-.06c.88.37,1.76.73,2.64,1.11,2.3,1,4.61,1.96,6.88,3.01,2.09.97,3.88,2.38,5.41,4.11.13.15.25.31.38.46-.16.01-.25-.04-.33-.1-1.32-.97-2.77-1.71-4.34-2.21-.78-.25-1.55-.5-2.32-.76-1.76-.58-3.36-1.44-4.79-2.63-1.13-.93-2.27-1.85-3.41-2.78-.06-.05-.11-.11-.16-.16M23.16,57.56s.05-.07.08-.1c1.69.88,3.54,1.35,5.32,1.98,2.54.89,4.64,2.42,6.35,4.5.63.77,1.3,1.52,2.04,2.18,1.25,1.11,2.55,2.16,3.99,3.02.42.25.82.54,1.21.83,1.58,1.14,3,2.45,4.13,4.04.2.27.36.57.54.86-.15,0-.23-.06-.29-.14-1.23-1.38-2.65-2.54-4.22-3.5-1.89-1.16-3.8-2.31-5.75-3.36-4.94-2.67-9.29-6.1-13.22-10.09-.07-.07-.12-.15-.19-.22M47.15,75.96s-.07.06-.1.09c-.16-.14-.32-.28-.48-.43-1.7-1.59-3.59-2.9-5.77-3.73-1.26-.48-2.54-.88-3.83-1.26-1.56-.46-3.12-.9-4.61-1.6-2.12-.99-4.2-2.03-5.77-3.81-1.16-1.31-2.31-2.64-3.32-4.06-2.36-3.31-4.84-6.5-7.89-9.22-.07-.06-.12-.14-.18-.21.23-.03.43.01.59.11.35.21.71.41,1.02.67,2.27,1.86,4.59,3.67,6.66,5.76,2.7,2.73,5.57,5.28,8.81,7.35,2.3,1.47,4.69,2.79,7.05,4.17.7.41,1.43.79,2.12,1.22,1.96,1.2,3.78,2.56,5.25,4.35.16.2.31.41.47.61"/>
      <path class="cls-2" d="M52.51,87.99c-.79-2.27-2.97-8.43-3.7-10.72-.78-2.42-1.54-4.85-2.34-7.27-.62-1.86-1.22-3.72-1.96-5.53-.73-1.79-1.59-3.53-2.43-5.27-.83-1.72-1.71-3.42-2.57-5.13-.74-1.47-1.51-2.93-2.22-4.42-.42-.88-.77-1.8-1.13-2.71-.51-1.29-1.02-2.58-1.49-3.88-.33-.92-.59-1.87-.9-2.79-.13-.38-.15-.83-.66-1.05.08.38.14.77.26,1.14.83,2.75,1.8,5.46,2.93,8.1.59,1.38,1.29,2.72,1.95,4.08.66,1.33,1.33,2.66,2,3.99.68,1.34,1.38,2.68,2.05,4.03.37.75.74,1.5,1.06,2.27.64,1.57,1.29,3.13,1.86,4.73.65,1.82,1.23,3.67,1.83,5.51.27.81.53,1.63.79,2.44.05.14.08.29.02.49-.23-.4-.46-.79-.69-1.19-1.17-2.06-2.83-3.66-4.72-5.06-.43-.31-.88-.59-1.31-.9-1.07-.77-2.14-1.55-3.2-2.34-1.34-.99-2.39-2.26-3.38-3.59-.68-.92-1.4-1.8-2.16-2.65-1.82-2.05-4.09-3.48-6.57-4.59-1.17-.52-2.36-1.02-3.54-1.52-1.97-.84-3.94-1.69-5.91-2.52-.45-.19-.92-.34-1.39-.48-.19-.06-.42-.03-.62-.03-.08.43.21.58.4.77,1.11,1.11,2.26,2.18,3.34,3.31,1.59,1.67,2.91,3.56,4.27,5.41.88,1.2,1.8,2.37,2.72,3.53,1.78,2.26,4.04,3.86,6.67,5.03,1.64.73,3.33,1.3,5.06,1.79,1.43.4,2.86.85,4.23,1.42,2.75,1.16,5.08,2.92,6.91,5.3.7.91,1.22,1.92,1.47,3.06.14.63.37,1.25.58,1.86.55,1.56,1.57,3.96,2.14,5.51M17.39,52.58s.03-.04.04-.06c.88.37,1.76.73,2.64,1.11,2.3,1,4.61,1.96,6.88,3.01,2.09.97,3.88,2.38,5.41,4.11.13.15.25.31.38.46-.16.01-.25-.04-.33-.1-1.32-.97-2.77-1.71-4.34-2.21-.78-.25-1.55-.5-2.32-.76-1.76-.58-3.36-1.44-4.79-2.63-1.13-.93-2.27-1.85-3.41-2.78-.06-.05-.11-.11-.16-.16ZM23.16,57.56s.05-.07.08-.1c1.69.88,3.54,1.35,5.32,1.98,2.54.89,4.64,2.42,6.35,4.5.63.77,1.3,1.52,2.04,2.18,1.25,1.11,2.55,2.16,3.99,3.02.42.25.82.54,1.21.83,1.58,1.14,3,2.45,4.13,4.04.2.27.36.57.54.86-.15,0-.23-.06-.29-.14-1.23-1.38-2.65-2.54-4.22-3.5-1.89-1.16-3.8-2.31-5.75-3.36-4.94-2.67-9.29-6.1-13.22-10.09-.07-.07-.12-.15-.19-.22ZM47.15,75.96s-.07.06-.1.09c-.16-.14-.32-.28-.48-.43-1.7-1.59-3.59-2.9-5.77-3.73-1.26-.48-2.54-.88-3.83-1.26-1.56-.46-3.12-.9-4.61-1.6-2.12-.99-4.2-2.03-5.77-3.81-1.16-1.31-2.31-2.64-3.32-4.06-2.36-3.31-4.84-6.5-7.89-9.22-.07-.06-.12-.14-.18-.21.23-.03.43.01.59.11.35.21.71.41,1.02.67,2.27,1.86,4.59,3.67,6.66,5.76,2.7,2.73,5.57,5.28,8.81,7.35,2.3,1.47,4.69,2.79,7.05,4.17.7.41,1.43.79,2.12,1.22,1.96,1.2,3.78,2.56,5.25,4.35.16.2.31.41.47.61Z"/>
      <path class="cls-2" d="M29.4,32.78c-2.04-.54-3.81-1.51-5.1-3.23-.89-1.19-1.51-2.51-1.99-3.9-.49-1.41-.9-2.84-1.36-4.25-.18-.54-.38-1.08-.61-1.6-.23-.56-.5-1.1-.76-1.64.14.06.24.15.33.25.79.97,1.39,2.05,1.91,3.18.59,1.29,1.14,2.61,1.82,3.86,1.19,2.2,2.76,4.12,4.44,5.96.43.47.87.92,1.3,1.37M30.85,14.98s-.05-.05-.08-.07c.05-.11.09-.22.15-.33.95-1.76,2.13-3.33,3.73-4.56.97-.74,1.98-1.43,2.99-2.12,1.57-1.07,3.14-2.13,4.3-3.67.02-.03.09-.03.23-.07-.34.98-.64,1.89-.98,2.78-.59,1.53-1.57,2.78-2.97,3.63-1.06.64-2.19,1.17-3.31,1.68-1.42.64-2.79,1.34-3.85,2.52-.06.07-.14.13-.21.2M41.25,31.84s-.05-.06-.07-.08c.09-.13.16-.26.26-.38,1.88-2.33,3.18-4.96,4.01-7.83.31-1.05.63-2.12,1.09-3.11.56-1.21,1.2-2.41,1.94-3.52.53-.8,1.3-1.46,1.96-2.17.07-.08.19-.12.32-.19,0,.12,0,.18-.01.23-.49,1.47-.98,2.93-1.46,4.4-.67,2.01-1.36,4.02-2.38,5.89-1.32,2.41-2.94,4.59-5.08,6.35-.18.15-.38.28-.57.42M22.24,36.13c0,.05-.01.11-.01.16-2.22-.1-4.43-.03-6.62.3-2.2.33-4.32.98-6.39,1.81-2.05.82-3.93,1.94-5.77,3.14.67-1.04,1.35-2.06,2.06-3.05.7-.99,1.58-1.81,2.63-2.42,1.58-.93,3.33-1.3,5.13-1.4,2.45-.13,4.83.28,7.17.94.6.17,1.2.36,1.81.54M.71,43.15c0-.35-.06-.59,0-.8.14-.44.28-.91.52-1.3.42-.67.89-1.32,1.4-1.92.75-.87,1.43-1.78,1.96-2.8.54-1.05,1.31-1.93,2.27-2.61,2.3-1.63,4.86-2.39,7.67-1.99,2.63.37,5.02,1.36,7.17,2.95.6.45,1.25.83,1.88,1.25.11.07.22.15.34.22-.24.05-.45.01-.65-.05-1.15-.34-2.3-.72-3.46-1.01-2.84-.73-5.71-1.1-8.64-.51-2.26.46-4.18,1.48-5.61,3.31-.55.7-1.05,1.46-1.52,2.22-.72,1.15-1.73,2-2.79,2.79-.11.08-.25.12-.53.25M38.55,34.33s-.04-.07-.07-.1c.24-.17.47-.35.71-.52,1.07-.78,2.19-1.49,3.2-2.34,2.12-1.8,3.74-4.02,5.02-6.48,1.14-2.2,1.88-4.56,2.65-6.9.15-.46.27-.94.44-1.4.35-.91.65-1.84,1.1-2.71.49-.96,1.11-1.85,1.68-2.76.38-.61.81-1.17,1.43-1.56.56-.34.97-.29,1.38.23.38.48.63,1.03.73,1.65.2,1.2.11,2.4-.06,3.59-.42,2.81-1.33,5.46-2.76,7.92-1.34,2.32-3.25,4.11-5.42,5.64-2.53,1.79-5.21,3.32-7.98,4.71-.69.34-1.37.68-2.06,1.03M3.34,13c.49-.8,1.23-1.22,2.28-1.17,1.39.08,2.76,0,4.13-.23,1.25-.21,2.38.15,3.26,1.12.46.51.92,1.03,1.39,1.54.36.39.72.78,1.1,1.14.33.32.72.5,1.19.56.33.04.68.18.94.38.41.33.78.71,1.09,1.13.81,1.09,1.36,2.31,1.78,3.6.42,1.28.78,2.58,1.22,3.85.38,1.07.77,2.15,1.27,3.17.97,1.98,2.42,3.52,4.48,4.4.8.35,1.65.59,2.46.93.37.15.86.32,1.01.62.33.64.52,1.37.67,2.08.09.45-.17.72-.62.84-.16.04-.32.06-.48.07-2.3.09-4.5-.28-6.57-1.33-1.32-.67-2.46-1.6-3.52-2.62-1.84-1.79-3.53-3.72-5.13-5.73-2-2.5-3.88-5.08-5.7-7.71-1.29-1.88-2.79-3.56-4.72-4.81-.32-.21-.63-.45-.92-.71-.32-.28-.61-.6-.63-1.11M30.76,33.32s-.06.05-.09.07c-.23-.18-.49-.34-.69-.56-1.2-1.31-2.42-2.59-3.55-3.95-1.29-1.55-2.41-3.23-3.21-5.1-.46-1.08-.98-2.15-1.49-3.21-.26-.53-.64-1-.85-1.55-.87-2.25-1.48-4.57-1.58-7-.06-1.67.18-3.29.75-4.86.38-1.04,1.04-1.84,2.07-2.29.6-.26,1.19-.54,1.82-.71,1.06-.29,2.13-.57,3.21-.73,1.75-.27,2.5.14,3.39,1.72.28.5.49,1.03.72,1.55.11.24.15.52.5.61.13-.16.27-.32.42-.51.58-.01,1.17-.05,1.75-.03.23,0,.48.1.67.24.59.4.96.97,1.19,1.68-.29.22-.57.43-.84.64-3.23,2.46-5.23,5.66-5.8,9.7-.28,1.99-.29,3.98-.09,5.97.27,2.66.85,5.26,1.57,7.84.05.17.08.34.12.51M31.23,33.65c-.72-2.62-1.33-5.01-1.66-7.46-.35-2.62-.34-5.23.05-7.85.26-1.75,1.11-3.07,2.47-4.13.27-.21.54-.44.85-.59,1.31-.64,2.63-1.28,3.96-1.89,2.27-1.04,3.94-2.65,4.77-5.05.25-.71.45-1.44.69-2.15.16-.48.33-.96.53-1.43.34-.82.87-1.49,1.59-2.04.72-.56,2.2-.43,2.46.76.06.28.15.56.14.84-.04.95-.06,1.92-.2,2.86-.38,2.77-.62,5.54-.68,8.34-.03,1.53-.07,3.06-.18,4.58-.17,2.25-.67,4.43-1.43,6.55-1.45,4.03-3.83,7.35-7.43,9.74-1.05.7-2.12,1.38-3.33,1.77-.83.26-1.49-.04-1.83-.86-.3-.73-.58-1.48-.78-1.99M36.11,8.43c-.21-.37-.37-.7-.58-1-.52-.72-1.16-1.18-2.12-1.02-.57.09-1.19-.13-1.74.26-.31-.63-.6-1.26-.92-1.86-.15-.29-.34-.56-.54-.81-.56-.69-1.27-1.05-2.19-1-1.81.1-3.54.52-5.22,1.2-.38.15-.76.3-1.12.48-.98.49-1.61,1.3-1.98,2.31-.71,1.95-.93,3.96-.7,6.02.17,1.56.46,3.1,1.04,4.58.04.09.06.19.02.35-.1-.1-.21-.19-.31-.29-.53-.47-1.05-.97-1.6-1.41-.45-.36-.96-.59-1.56-.65-.3-.03-.62-.23-.85-.44-.44-.39-.82-.85-1.22-1.28-.44-.48-.86-.98-1.32-1.45-.98-1-2.19-1.39-3.57-1.15-1.25.22-2.5.34-3.77.21-.86-.08-1.66.12-2.34.69-.7.58-.77,1.12-.19,1.83.13.16.29.29.44.42.31.26.61.55.95.77,1.82,1.2,3.24,2.77,4.48,4.55,1.84,2.64,3.67,5.29,5.75,7.75,1.43,1.69,2.91,3.35,4.37,5.02.17.2.36.38.52.65-.15-.07-.3-.13-.44-.2-2.15-1.04-4.37-1.79-6.82-1.64-2.2.14-4.17.89-5.96,2.15-.98.69-1.77,1.57-2.32,2.64-.53,1.02-1.21,1.93-1.94,2.81-.58.7-1.12,1.46-1.57,2.25-.26.46-.38,1.03-.44,1.57-.06.59.27.86.83.7.44-.12.85-.38,1.24-.63,1.33-.86,2.61-1.81,3.98-2.61,2.4-1.42,5.01-2.36,7.74-2.95,4.12-.88,8.25-.81,12.39-.15.86.14,1.74.21,2.6.33.44.06.89.12,1.32.23,1.17.27,2.06.92,2.66,1.99.12.21.16.61.65.44.04-.16.09-.35.12-.55.31-1.94,1.52-3.21,3.18-4.08,2.05-1.08,4.16-2.05,6.21-3.14,2.43-1.29,4.75-2.76,6.92-4.46,2.34-1.84,4.09-4.14,5.25-6.88.79-1.89,1.42-3.83,1.7-5.86.16-1.19.24-2.39.06-3.59-.11-.72-.37-1.38-.83-1.95-.51-.65-1.12-.73-1.83-.31-.58.34-1.01.82-1.37,1.37-.27.41-.51.84-.73,1.27-.46.88-1.05,1.63-1.83,2.26-1,.81-1.91,1.73-2.61,2.81-.53.82-.95,1.7-1.42,2.56-.08.15-.17.3-.27.49-.03-.1-.06-.13-.06-.17.31-2.55.28-5.12.38-7.69.09-2.3.35-4.59.67-6.87.15-1.07.29-2.14.09-3.22-.27-1.5-1.79-2.22-3.05-1.37-.59.4-1.04,1.01-1.55,1.53-.04.04-.07.1-.1.15-1.21,2.33-3.16,3.9-5.33,5.27-.41.26-.82.51-1.24.78"/>
      <path class="cls-2" d="M29.4,32.78c-2.04-.54-3.81-1.51-5.1-3.23-.89-1.19-1.51-2.51-1.99-3.9-.49-1.41-.9-2.84-1.36-4.25-.18-.54-.38-1.08-.61-1.6-.23-.56-.5-1.1-.76-1.64.14.06.24.15.33.25.79.97,1.39,2.05,1.91,3.18.59,1.29,1.14,2.61,1.82,3.86,1.19,2.2,2.76,4.12,4.44,5.96.43.47.87.92,1.3,1.37ZM30.85,14.98s-.05-.05-.08-.07c.05-.11.09-.22.15-.33.95-1.76,2.13-3.33,3.73-4.56.97-.74,1.98-1.43,2.99-2.12,1.57-1.07,3.14-2.13,4.3-3.67.02-.03.09-.03.23-.07-.34.98-.64,1.89-.98,2.78-.59,1.53-1.57,2.78-2.97,3.63-1.06.64-2.19,1.17-3.31,1.68-1.42.64-2.79,1.34-3.85,2.52-.06.07-.14.13-.21.2ZM41.25,31.84s-.05-.06-.07-.08c.09-.13.16-.26.26-.38,1.88-2.33,3.18-4.96,4.01-7.83.31-1.05.63-2.12,1.09-3.11.56-1.21,1.2-2.41,1.94-3.52.53-.8,1.3-1.46,1.96-2.17.07-.08.19-.12.32-.19,0,.12,0,.18-.01.23-.49,1.47-.98,2.93-1.46,4.4-.67,2.01-1.36,4.02-2.38,5.89-1.32,2.41-2.94,4.59-5.08,6.35-.18.15-.38.28-.57.42ZM22.24,36.13c0,.05-.01.11-.01.16-2.22-.1-4.43-.03-6.62.3-2.2.33-4.32.98-6.39,1.81-2.05.82-3.93,1.94-5.77,3.14.67-1.04,1.35-2.06,2.06-3.05.7-.99,1.58-1.81,2.63-2.42,1.58-.93,3.33-1.3,5.13-1.4,2.45-.13,4.83.28,7.17.94.6.17,1.2.36,1.81.54ZM.71,43.15c0-.35-.06-.59,0-.8.14-.44.28-.91.52-1.3.42-.67.89-1.32,1.4-1.92.75-.87,1.43-1.78,1.96-2.8.54-1.05,1.31-1.93,2.27-2.61,2.3-1.63,4.86-2.39,7.67-1.99,2.63.37,5.02,1.36,7.17,2.95.6.45,1.25.83,1.88,1.25.11.07.22.15.34.22-.24.05-.45.01-.65-.05-1.15-.34-2.3-.72-3.46-1.01-2.84-.73-5.71-1.1-8.64-.51-2.26.46-4.18,1.48-5.61,3.31-.55.7-1.05,1.46-1.52,2.22-.72,1.15-1.73,2-2.79,2.79-.11.08-.25.12-.53.25ZM38.55,34.33s-.04-.07-.07-.1c.24-.17.47-.35.71-.52,1.07-.78,2.19-1.49,3.2-2.34,2.12-1.8,3.74-4.02,5.02-6.48,1.14-2.2,1.88-4.56,2.65-6.9.15-.46.27-.94.44-1.4.35-.91.65-1.84,1.1-2.71.49-.96,1.11-1.85,1.68-2.76.38-.61.81-1.17,1.43-1.56.56-.34.97-.29,1.38.23.38.48.63,1.03.73,1.65.2,1.2.11,2.4-.06,3.59-.42,2.81-1.33,5.46-2.76,7.92-1.34,2.32-3.25,4.11-5.42,5.64-2.53,1.79-5.21,3.32-7.98,4.71-.69.34-1.37.68-2.06,1.03ZM3.34,13c.49-.8,1.23-1.22,2.28-1.17,1.39.08,2.76,0,4.13-.23,1.25-.21,2.38.15,3.26,1.12.46.51.92,1.03,1.39,1.54.36.39.72.78,1.1,1.14.33.32.72.5,1.19.56.33.04.68.18.94.38.41.33.78.71,1.09,1.13.81,1.09,1.36,2.31,1.78,3.6.42,1.28.78,2.58,1.22,3.85.38,1.07.77,2.15,1.27,3.17.97,1.98,2.42,3.52,4.48,4.4.8.35,1.65.59,2.46.93.37.15.86.32,1.01.62.33.64.52,1.37.67,2.08.09.45-.17.72-.62.84-.16.04-.32.06-.48.07-2.3.09-4.5-.28-6.57-1.33-1.32-.67-2.46-1.6-3.52-2.62-1.84-1.79-3.53-3.72-5.13-5.73-2-2.5-3.88-5.08-5.7-7.71-1.29-1.88-2.79-3.56-4.72-4.81-.32-.21-.63-.45-.92-.71-.32-.28-.61-.6-.63-1.11ZM30.76,33.32s-.06.05-.09.07c-.23-.18-.49-.34-.69-.56-1.2-1.31-2.42-2.59-3.55-3.95-1.29-1.55-2.41-3.23-3.21-5.1-.46-1.08-.98-2.15-1.49-3.21-.26-.53-.64-1-.85-1.55-.87-2.25-1.48-4.57-1.58-7-.06-1.67.18-3.29.75-4.86.38-1.04,1.04-1.84,2.07-2.29.6-.26,1.19-.54,1.82-.71,1.06-.29,2.13-.57,3.21-.73,1.75-.27,2.5.14,3.39,1.72.28.5.49,1.03.72,1.55.11.24.15.52.5.61.13-.16.27-.32.42-.51.58-.01,1.17-.05,1.75-.03.23,0,.48.1.67.24.59.4.96.97,1.19,1.68-.29.22-.57.43-.84.64-3.23,2.46-5.23,5.66-5.8,9.7-.28,1.99-.29,3.98-.09,5.97.27,2.66.85,5.26,1.57,7.84.05.17.08.34.12.51ZM31.23,33.65c-.72-2.62-1.33-5.01-1.66-7.46-.35-2.62-.34-5.23.05-7.85.26-1.75,1.11-3.07,2.47-4.13.27-.21.54-.44.85-.59,1.31-.64,2.63-1.28,3.96-1.89,2.27-1.04,3.94-2.65,4.77-5.05.25-.71.45-1.44.69-2.15.16-.48.33-.96.53-1.43.34-.82.87-1.49,1.59-2.04.72-.56,2.2-.43,2.46.76.06.28.15.56.14.84-.04.95-.06,1.92-.2,2.86-.38,2.77-.62,5.54-.68,8.34-.03,1.53-.07,3.06-.18,4.58-.17,2.25-.67,4.43-1.43,6.55-1.45,4.03-3.83,7.35-7.43,9.74-1.05.7-2.12,1.38-3.33,1.77-.83.26-1.49-.04-1.83-.86-.3-.73-.58-1.48-.78-1.99ZM36.11,8.43c-.21-.37-.37-.7-.58-1-.52-.72-1.16-1.18-2.12-1.02-.57.09-1.19-.13-1.74.26-.31-.63-.6-1.26-.92-1.86-.15-.29-.34-.56-.54-.81-.56-.69-1.27-1.05-2.19-1-1.81.1-3.54.52-5.22,1.2-.38.15-.76.3-1.12.48-.98.49-1.61,1.3-1.98,2.31-.71,1.95-.93,3.96-.7,6.02.17,1.56.46,3.1,1.04,4.58.04.09.06.19.02.35-.1-.1-.21-.19-.31-.29-.53-.47-1.05-.97-1.6-1.41-.45-.36-.96-.59-1.56-.65-.3-.03-.62-.23-.85-.44-.44-.39-.82-.85-1.22-1.28-.44-.48-.86-.98-1.32-1.45-.98-1-2.19-1.39-3.57-1.15-1.25.22-2.5.34-3.77.21-.86-.08-1.66.12-2.34.69-.7.58-.77,1.12-.19,1.83.13.16.29.29.44.42.31.26.61.55.95.77,1.82,1.2,3.24,2.77,4.48,4.55,1.84,2.64,3.67,5.29,5.75,7.75,1.43,1.69,2.91,3.35,4.37,5.02.17.2.36.38.52.65-.15-.07-.3-.13-.44-.2-2.15-1.04-4.37-1.79-6.82-1.64-2.2.14-4.17.89-5.96,2.15-.98.69-1.77,1.57-2.32,2.64-.53,1.02-1.21,1.93-1.94,2.81-.58.7-1.12,1.46-1.57,2.25-.26.46-.38,1.03-.44,1.57-.06.59.27.86.83.7.44-.12.85-.38,1.24-.63,1.33-.86,2.61-1.81,3.98-2.61,2.4-1.42,5.01-2.36,7.74-2.95,4.12-.88,8.25-.81,12.39-.15.86.14,1.74.21,2.6.33.44.06.89.12,1.32.23,1.17.27,2.06.92,2.66,1.99.12.21.16.61.65.44.04-.16.09-.35.12-.55.31-1.94,1.52-3.21,3.18-4.08,2.05-1.08,4.16-2.05,6.21-3.14,2.43-1.29,4.75-2.76,6.92-4.46,2.34-1.84,4.09-4.14,5.25-6.88.79-1.89,1.42-3.83,1.7-5.86.16-1.19.24-2.39.06-3.59-.11-.72-.37-1.38-.83-1.95-.51-.65-1.12-.73-1.83-.31-.58.34-1.01.82-1.37,1.37-.27.41-.51.84-.73,1.27-.46.88-1.05,1.63-1.83,2.26-1,.81-1.91,1.73-2.61,2.81-.53.82-.95,1.7-1.42,2.56-.08.15-.17.3-.27.49-.03-.1-.06-.13-.06-.17.31-2.55.28-5.12.38-7.69.09-2.3.35-4.59.67-6.87.15-1.07.29-2.14.09-3.22-.27-1.5-1.79-2.22-3.05-1.37-.59.4-1.04,1.01-1.55,1.53-.04.04-.07.1-.1.15-1.21,2.33-3.16,3.9-5.33,5.27-.41.26-.82.51-1.24.78Z"/>
      <path class="cls-2" d="M48.03,76.39c-.63-1.06-.8-2.23-.96-3.4-.21-1.52-.24-3.06-.01-4.57.5-3.31,1.32-6.53,3.36-9.3,1.18-1.6,2.62-2.94,4.1-4.24,1.87-1.64,3.72-3.3,5.15-5.34,1.44-2.05,2.81-4.14,4.21-6.22.06-.08.08-.18.15-.35-.18.02-.29,0-.39.04-.07.03-.13.11-.18.17-1.02,1.19-2.35,1.92-3.74,2.59-1.17.56-2.32,1.15-3.46,1.76-2.05,1.1-3.71,2.66-5.26,4.37-3.4,3.76-4.63,8.28-4.79,13.23-.09,2.79.23,5.53.58,8.28.02.12.48,1.75.5,2.01M60.64,47.34c-.91,1.62-1.98,3.1-3.29,4.38-1.36,1.33-2.76,2.62-4.19,3.89-2.56,2.28-4.5,4.95-5.5,8.26-.02.07-.06.14-.09.22.08-.89.3-1.74.6-2.58,1.46-4.01,3.95-7.28,7.24-9.96,1.16-.95,2.4-1.81,3.58-2.73.58-.45,1.1-.98,1.64-1.47M46.72,66.86s-.07-.02-.11-.03c0-.37,0-.75.01-1.12.01-.72,0-1.44.05-2.16.3-4.13,1.55-7.89,4.29-11.08,2.03-2.36,4.37-4.31,7.21-5.63,1.12-.52,2.21-1.08,3.31-1.64.31-.16.59-.37,1-.63-.11.2-.13.28-.19.34-.66.75-1.29,1.52-1.99,2.23-.62.63-1.28,1.23-1.99,1.77-1.43,1.1-2.89,2.14-4.23,3.35-4.17,3.8-6.73,8.41-7.27,14.08-.02.18-.07.35-.11.53"/>
      <path class="cls-2" d="M48.03,76.39c-.63-1.06-.8-2.23-.96-3.4-.21-1.52-.24-3.06-.01-4.57.5-3.31,1.32-6.53,3.36-9.3,1.18-1.6,2.62-2.94,4.1-4.24,1.87-1.64,3.72-3.3,5.15-5.34,1.44-2.05,2.81-4.14,4.21-6.22.06-.08.08-.18.15-.35-.18.02-.29,0-.39.04-.07.03-.13.11-.18.17-1.02,1.19-2.35,1.92-3.74,2.59-1.17.56-2.32,1.15-3.46,1.76-2.05,1.1-3.71,2.66-5.26,4.37-3.4,3.76-4.63,8.28-4.79,13.23-.09,2.79.23,5.53.58,8.28.02.12.48,1.75.5,2.01M60.64,47.34c-.91,1.62-1.98,3.1-3.29,4.38-1.36,1.33-2.76,2.62-4.19,3.89-2.56,2.28-4.5,4.95-5.5,8.26-.02.07-.06.14-.09.22.08-.89.3-1.74.6-2.58,1.46-4.01,3.95-7.28,7.24-9.96,1.16-.95,2.4-1.81,3.58-2.73.58-.45,1.1-.98,1.64-1.47ZM46.72,66.86s-.07-.02-.11-.03c0-.37,0-.75.01-1.12.01-.72,0-1.44.05-2.16.3-4.13,1.55-7.89,4.29-11.08,2.03-2.36,4.37-4.31,7.21-5.63,1.12-.52,2.21-1.08,3.31-1.64.31-.16.59-.37,1-.63-.11.2-.13.28-.19.34-.66.75-1.29,1.52-1.99,2.23-.62.63-1.28,1.23-1.99,1.77-1.43,1.1-2.89,2.14-4.23,3.35-4.17,3.8-6.73,8.41-7.27,14.08-.02.18-.07.35-.11.53Z"/>
      <path class="cls-2" d="M54.94,125.73c-.44-.66-.78-1.39-1.24-2.04-.47-.66-.9-1.35-1.21-2.1-.59-1.43-1.17-2.87-1.73-4.31-.11-.29-.22-.63.28-.88.42,1.15.77,2.26,1.22,3.32,1.05,2.51,2.39,4.85,3.95,7.08"/>
      <path class="cls-2" d="M54.94,125.73c-.44-.66-.78-1.39-1.24-2.04-.47-.66-.9-1.35-1.21-2.1-.59-1.43-1.17-2.87-1.73-4.31-.11-.29-.22-.63.28-.88.42,1.15.77,2.26,1.22,3.32,1.05,2.51,2.39,4.85,3.95,7.08"/>
      <path class="cls-2" d="M42.23,108.68c-.18.03-.23.03-.26.05-1.65.83-3.42,1.29-5.22,1.63-1.77.33-3.55.27-5.34.2-1.24-.05-2.49.04-3.73.07-.03,0-.06.05-.12.1.12.06.23.12.34.18.88.49,1.78.96,2.64,1.49.64.39,1.23.87,1.86,1.29.22.15.49.24.72.35,1.1-.7,2.28-.91,3.48-1.08.69-.1,1.41-.23,2.06-.48,1.73-.69,2.56-2.28,3.59-3.79M36.15,122.56s.03.08.04.12c.27-.01.56.02.82-.04.94-.24,1.87-.49,2.79-.79,1.88-.61,3.77-1.23,5.63-1.89,1.19-.42,2.39-.85,3.52-1.41,1.1-.55,1.66-1.6,2.11-2.78-.17.03-.23.03-.29.05-.08.03-.17.05-.24.1-.82.54-1.76.69-2.7.8-.75.09-1.5.07-2.25.1-.8.04-1.6.12-2.31.51-.96.53-1.86,1.15-2.6,1.99-.37.42-.75.83-1.14,1.23-.72.72-1.52,1.33-2.49,1.68-.3.11-.6.22-.9.33M18.68,82.32c.49-.32.85-.59,1.25-.79.72-.36,1.51-.37,2.27-.2.9.2,1.79.47,2.68.73.75.22,1.48.39,2.28.33,1.09-.08,1.91-.82,1.93-1.9.01-.56-.07-1.11-.1-1.67-.01-.25.02-.49.03-.69.15-.07.2-.12.26-.12.59.03.89-.33,1.12-.81.09-.19.22-.37.33-.56.47-.77,1.02-1.45,1.93-1.72.02,0,.03-.06.08-.16-1.27-.42-2.48-.47-3.66.23-.73.43-1.16,1.13-1.67,1.78-.76.96-1.65,1.72-2.85,2.12-1.07.36-2.18.47-3.28.68-.63.12-1.29.23-1.74.76-.47.55-.67,1.23-.85,2M41.58,102.15c-.62-2.48-1.06-4.95-1.03-7.48,0-.82,0-1.63,0-2.45-.01-1.42-.14-2.84-.53-4.21-.47-1.64-1.17-3.18-2.22-4.55-.48-.62-.88-1.32-1.25-2.02-.25-.48-.38-1.01-.57-1.53-.15.2-.2.38-.21.56-.17,2.55.1,5.07.7,7.54.43,1.77.99,3.52,1.46,5.28.59,2.21,1.48,4.31,2.39,6.4.37.84.85,1.63,1.28,2.44M54.2,93.98c-.14.18-.18.22-.21.28-.75,1.67-1.75,3.17-3.02,4.48-.9.93-1.58,1.94-2.07,3.15-.7,1.71-1.75,3.21-3.14,4.45-.28.25-.58.45-.92.72.59.15,1.13.23,1.63.43.66.26,1.32.34,2.02.26.32-.04.65-.03.97-.06,1.31-.14,2.31-.8,3.01-1.88.22-.34.27-.81.34-1.22.07-.44.06-.9.12-1.35.16-1.21.59-2.34,1.14-3.42.57-1.11.77-2.28.62-3.51-.09-.74-.3-1.47-.48-2.32M51.88,107.14c.9-.19,1.57-.57,2.23-.96,1.89-1.12,3.33-2.67,4.39-4.61,1.11-2.04,1.72-4.17,1.45-6.51-.26-2.22-.33-4.46-.35-6.69,0-.49-.03-.99-.08-1.48-.12-1.22-.69-2.2-1.66-2.95-.85-.66-1.75-.6-2.48.19-.29.31-.53.68-.72,1.06-.4.78-.52,1.63-.56,2.5-.09,1.98.15,3.94.46,5.89.05.32.12.63.21.94.53,1.88.62,3.73-.37,5.51-.16.28-.28.58-.41.88-.49,1.12-.78,2.29-.77,3.51,0,.93-.31,1.68-.95,2.31-.1.1-.2.21-.39.4M32.29,117.92c-.2,1.15.55,3.09,1.82,3.99.58.41,1.15.5,1.82.31,1.33-.36,2.44-1.04,3.38-2.05.56-.6,1.1-1.22,1.69-1.77.97-.91,2.07-1.64,3.4-1.87.84-.15,1.71-.17,2.57-.19,1.11-.03,2.18-.23,3.2-.68,1.15-.51,1.52-1.12,1.38-2.32-.05-.38-.11-.78-.26-1.13-.56-1.32-1.41-2.4-2.64-3.18-1.37-.86-2.85-1.41-4.5-1.57-.5.29-.98.64-1.33,1.16-.36.54-.76,1.05-1.11,1.59-1.38,2.16-3.21,3.86-5.27,5.34-1.3.93-2.67,1.72-4.15,2.38M38.79,113.07s-.05-.05-.08-.08c-.67.12-1.34.28-2.02.37-1.09.14-2.17.33-3.13.9-.4.23-.77.21-1.15-.04-.52-.35-1.05-.67-1.55-1.05-1.48-1.15-3.12-1.99-4.93-2.47-.87-.23-1.74-.48-2.61-.74-2.28-.68-4.59-.92-6.94-.42-.67.14-1.19.46-1.58,1.02-.89,1.32-.95,2.59-.04,3.92,1.88,2.73,4.43,4.41,7.77,4.77,2.23.24,4.43-.01,6.57-.62,2.9-.83,5.56-2.18,7.93-4.06.6-.48,1.17-.99,1.76-1.49M29.4,78.49c.01.18.02.35.03.51.03.54.06,1.07.09,1.61.05,1.05-1.17,2.18-2.09,2.18-.86,0-1.72-.05-2.55-.27-.73-.19-1.43-.49-2.17-.64-.65-.13-1.32-.2-1.98-.16-1.17.07-2.19,1.09-2.31,2.25-.06.62-.04,1.25,0,1.87.09,1.33.58,2.56,1.12,3.76.26.58.68,1.08,1.01,1.59,6.88-.48,12.81,1.67,18.06,5.87-.68-2.26-1.35-4.49-2.03-6.71-.6-1.98-1.05-3.99-1.22-6.06-.16-1.93-.31-3.86.3-5.76.11-.35.21-.7.33-1.08-.2-.24-.39-.51-.61-.74-.36-.37-.73-.74-1.12-1.07-.75-.64-1.36-.65-2.15-.05-.23.18-.44.41-.62.65-.29.4-.55.82-.79,1.26-.23.42-.51.74-1,.84-.1.02-.19.08-.32.14M44.49,106.69c.69-.35,1.18-.82,1.65-1.33,1-1.11,1.81-2.36,2.43-3.72.41-.9.73-1.84,1.15-2.74.92-1.99,1.5-4.07,1.75-6.25.48-4.14.04-8.12-1.94-11.85-.97-1.84-2.22-3.49-3.81-4.84-.65-.56-1.41-.99-2.33-.97-1.05.02-2.11-.01-3.16.02-.47.02-.96.07-1.38.24-1.22.5-1.98,1.46-2.49,2.66-.44,1.05-.04,1.98.32,2.92.37.96.98,1.76,1.59,2.57,1.23,1.63,1.97,3.46,2.37,5.45.26,1.27.3,2.56.34,3.85.04,1.55,0,3.1.15,4.64.18,2,.59,3.96,1.38,5.82.18.43.37.87.61,1.28.44.76.91,1.49,1.38,2.25M18.42,93.54c-.31,0-.56,0-.8-.02-.64-.06-1.28-.17-1.92-.2-.96-.03-1.55.44-1.74,1.37-.08.41-.1.86-.07,1.28.07,1.02.39,1.98.75,2.93.54,1.45,1.24,2.84,1.59,4.37.09.38.33.76.6,1.05.49.54,1.01,1.07,1.59,1.51,1.35,1.02,2.82,1.83,4.39,2.44,3.01,1.17,6.15,1.61,9.35,1.84,3.66.26,7.1-.48,10.36-2.14.58-.3,1.18-.61,1.6-1.18-.22-.32-.42-.62-.63-.92-1.32-1.89-2.53-3.84-3.51-5.93-.59-1.26-1.31-2.41-2.47-3.24-1.53-1.09-3.11-2.06-4.82-2.85-2.37-1.08-4.8-1.91-7.42-2.13-1.61-.14-3.22-.34-4.82-.02-.76.15-1.51.35-1.99,1.03,0,.24,0,.45,0,.8M50.48,98.72c.44-.54.93-1.05,1.31-1.64.7-1.08,1.35-2.2,1.97-3.33.17-.3.24-.7.22-1.05-.03-.77-.1-1.53-.22-2.3-.25-1.57-.26-3.18.21-4.74.23-.78.63-1.46,1.24-2.01.83-.75,1.93-.82,2.83-.15,1.24.92,1.86,2.18,1.95,3.7.07,1.07.07,2.15.12,3.22.08,1.57.15,3.13.29,4.7.2,2.19-.26,4.23-1.26,6.18-1.05,2.02-2.42,3.76-4.38,4.98-1.78,1.11-3.71,1.78-5.83,1.88-.15,0-.3.02-.45.03-.03,0-.06.05-.13.1.15.1.28.2.42.29,1.6.98,2.63,2.4,3.11,4.2.18.68.17,1.37,0,2.05-.24.95-.64,1.83-1.16,2.65-.66,1.05-1.65,1.69-2.78,2.11-1.32.48-2.66.87-3.99,1.32-1.82.61-3.63,1.25-5.45,1.85-.51.17-1.04.3-1.57.37-2.12.26-3.96-1.04-4.73-2.87-.25-.61-.36-1.27-.56-2-.19.06-.43.13-.66.21-2,.7-4.05,1.17-6.17,1.29-3.76.22-6.96-.96-9.49-3.78-.5-.55-.94-1.18-1.29-1.84-.82-1.57-.33-3.19.79-4.32.46-.46,1.09-.61,1.7-.73,2.11-.43,4.19-.2,6.26.3,1.13.27,2.28.47,3.42.69.29.06.58.06.88.08,0-.05.02-.1.03-.15-.28-.06-.55-.13-.83-.18-2.93-.61-5.64-1.73-8.06-3.5-.63-.47-1.19-1.05-1.74-1.61-.52-.52-.74-1.2-.94-1.89-.23-.78-.44-1.58-.79-2.32-.64-1.36-1.13-2.75-1.33-4.23-.07-.55-.06-1.12.04-1.66.21-1.12,1.02-1.76,2.16-1.73.73.02,1.45.14,2.21.22.17-1.21,1.21-1.41,2.17-1.78-.3-.51-.61-.99-.87-1.49-1.43-2.81-1.65-5.71-.64-8.7.39-1.15,1.2-1.79,2.41-1.97.96-.14,1.9-.34,2.85-.52,1.1-.2,2-.76,2.72-1.6.36-.42.73-.85,1.07-1.29,1.18-1.54,2.75-1.98,4.59-1.62,1.49.29,2.58,1.23,3.57,2.31.14.16.28.33.46.55.14-.17.25-.31.36-.45,1-1.36,2.31-2.08,4.04-1.99.88.05,1.76.02,2.64,0,.72-.02,1.35.17,1.96.53,1.28.74,2.18,1.87,3.07,3,1.42,1.8,2.43,3.81,3.05,6,.77,2.72.9,5.5.62,8.31-.2,2.06-.69,4.02-1.47,5.93-.05.11-.07.23-.1.34.03.02.07.04.1.06"/>
      <path class="cls-2" d="M42.23,108.68c-.18.03-.23.03-.26.05-1.65.83-3.42,1.29-5.22,1.63-1.77.33-3.55.27-5.34.2-1.24-.05-2.49.04-3.73.07-.03,0-.06.05-.12.1.12.06.23.12.34.18.88.49,1.78.96,2.64,1.49.64.39,1.23.87,1.86,1.29.22.15.49.24.72.35,1.1-.7,2.28-.91,3.48-1.08.69-.1,1.41-.23,2.06-.48,1.73-.69,2.56-2.28,3.59-3.79ZM36.15,122.56s.03.08.04.12c.27-.01.56.02.82-.04.94-.24,1.87-.49,2.79-.79,1.88-.61,3.77-1.23,5.63-1.89,1.19-.42,2.39-.85,3.52-1.41,1.1-.55,1.66-1.6,2.11-2.78-.17.03-.23.03-.29.05-.08.03-.17.05-.24.1-.82.54-1.76.69-2.7.8-.75.09-1.5.07-2.25.1-.8.04-1.6.12-2.31.51-.96.53-1.86,1.15-2.6,1.99-.37.42-.75.83-1.14,1.23-.72.72-1.52,1.33-2.49,1.68-.3.11-.6.22-.9.33ZM18.68,82.32c.49-.32.85-.59,1.25-.79.72-.36,1.51-.37,2.27-.2.9.2,1.79.47,2.68.73.75.22,1.48.39,2.28.33,1.09-.08,1.91-.82,1.93-1.9.01-.56-.07-1.11-.1-1.67-.01-.25.02-.49.03-.69.15-.07.2-.12.26-.12.59.03.89-.33,1.12-.81.09-.19.22-.37.33-.56.47-.77,1.02-1.45,1.93-1.72.02,0,.03-.06.08-.16-1.27-.42-2.48-.47-3.66.23-.73.43-1.16,1.13-1.67,1.78-.76.96-1.65,1.72-2.85,2.12-1.07.36-2.18.47-3.28.68-.63.12-1.29.23-1.74.76-.47.55-.67,1.23-.85,2ZM41.58,102.15c-.62-2.48-1.06-4.95-1.03-7.48,0-.82,0-1.63,0-2.45-.01-1.42-.14-2.84-.53-4.21-.47-1.64-1.17-3.18-2.22-4.55-.48-.62-.88-1.32-1.25-2.02-.25-.48-.38-1.01-.57-1.53-.15.2-.2.38-.21.56-.17,2.55.1,5.07.7,7.54.43,1.77.99,3.52,1.46,5.28.59,2.21,1.48,4.31,2.39,6.4.37.84.85,1.63,1.28,2.44ZM54.2,93.98c-.14.18-.18.22-.21.28-.75,1.67-1.75,3.17-3.02,4.48-.9.93-1.58,1.94-2.07,3.15-.7,1.71-1.75,3.21-3.14,4.45-.28.25-.58.45-.92.72.59.15,1.13.23,1.63.43.66.26,1.32.34,2.02.26.32-.04.65-.03.97-.06,1.31-.14,2.31-.8,3.01-1.88.22-.34.27-.81.34-1.22.07-.44.06-.9.12-1.35.16-1.21.59-2.34,1.14-3.42.57-1.11.77-2.28.62-3.51-.09-.74-.3-1.47-.48-2.32ZM51.88,107.14c.9-.19,1.57-.57,2.23-.96,1.89-1.12,3.33-2.67,4.39-4.61,1.11-2.04,1.72-4.17,1.45-6.51-.26-2.22-.33-4.46-.35-6.69,0-.49-.03-.99-.08-1.48-.12-1.22-.69-2.2-1.66-2.95-.85-.66-1.75-.6-2.48.19-.29.31-.53.68-.72,1.06-.4.78-.52,1.63-.56,2.5-.09,1.98.15,3.94.46,5.89.05.32.12.63.21.94.53,1.88.62,3.73-.37,5.51-.16.28-.28.58-.41.88-.49,1.12-.78,2.29-.77,3.51,0,.93-.31,1.68-.95,2.31-.1.1-.2.21-.39.4ZM32.29,117.92c-.2,1.15.55,3.09,1.82,3.99.58.41,1.15.5,1.82.31,1.33-.36,2.44-1.04,3.38-2.05.56-.6,1.1-1.22,1.69-1.77.97-.91,2.07-1.64,3.4-1.87.84-.15,1.71-.17,2.57-.19,1.11-.03,2.18-.23,3.2-.68,1.15-.51,1.52-1.12,1.38-2.32-.05-.38-.11-.78-.26-1.13-.56-1.32-1.41-2.4-2.64-3.18-1.37-.86-2.85-1.41-4.5-1.57-.5.29-.98.64-1.33,1.16-.36.54-.76,1.05-1.11,1.59-1.38,2.16-3.21,3.86-5.27,5.34-1.3.93-2.67,1.72-4.15,2.38ZM38.79,113.07s-.05-.05-.08-.08c-.67.12-1.34.28-2.02.37-1.09.14-2.17.33-3.13.9-.4.23-.77.21-1.15-.04-.52-.35-1.05-.67-1.55-1.05-1.48-1.15-3.12-1.99-4.93-2.47-.87-.23-1.74-.48-2.61-.74-2.28-.68-4.59-.92-6.94-.42-.67.14-1.19.46-1.58,1.02-.89,1.32-.95,2.59-.04,3.92,1.88,2.73,4.43,4.41,7.77,4.77,2.23.24,4.43-.01,6.57-.62,2.9-.83,5.56-2.18,7.93-4.06.6-.48,1.17-.99,1.76-1.49ZM29.4,78.49c.01.18.02.35.03.51.03.54.06,1.07.09,1.61.05,1.05-1.17,2.18-2.09,2.18-.86,0-1.72-.05-2.55-.27-.73-.19-1.43-.49-2.17-.64-.65-.13-1.32-.2-1.98-.16-1.17.07-2.19,1.09-2.31,2.25-.06.62-.04,1.25,0,1.87.09,1.33.58,2.56,1.12,3.76.26.58.68,1.08,1.01,1.59,6.88-.48,12.81,1.67,18.06,5.87-.68-2.26-1.35-4.49-2.03-6.71-.6-1.98-1.05-3.99-1.22-6.06-.16-1.93-.31-3.86.3-5.76.11-.35.21-.7.33-1.08-.2-.24-.39-.51-.61-.74-.36-.37-.73-.74-1.12-1.07-.75-.64-1.36-.65-2.15-.05-.23.18-.44.41-.62.65-.29.4-.55.82-.79,1.26-.23.42-.51.74-1,.84-.1.02-.19.08-.32.14ZM44.49,106.69c.69-.35,1.18-.82,1.65-1.33,1-1.11,1.81-2.36,2.43-3.72.41-.9.73-1.84,1.15-2.74.92-1.99,1.5-4.07,1.75-6.25.48-4.14.04-8.12-1.94-11.85-.97-1.84-2.22-3.49-3.81-4.84-.65-.56-1.41-.99-2.33-.97-1.05.02-2.11-.01-3.16.02-.47.02-.96.07-1.38.24-1.22.5-1.98,1.46-2.49,2.66-.44,1.05-.04,1.98.32,2.92.37.96.98,1.76,1.59,2.57,1.23,1.63,1.97,3.46,2.37,5.45.26,1.27.3,2.56.34,3.85.04,1.55,0,3.1.15,4.64.18,2,.59,3.96,1.38,5.82.18.43.37.87.61,1.28.44.76.91,1.49,1.38,2.25ZM18.42,93.54c-.31,0-.56,0-.8-.02-.64-.06-1.28-.17-1.92-.2-.96-.03-1.55.44-1.74,1.37-.08.41-.1.86-.07,1.28.07,1.02.39,1.98.75,2.93.54,1.45,1.24,2.84,1.59,4.37.09.38.33.76.6,1.05.49.54,1.01,1.07,1.59,1.51,1.35,1.02,2.82,1.83,4.39,2.44,3.01,1.17,6.15,1.61,9.35,1.84,3.66.26,7.1-.48,10.36-2.14.58-.3,1.18-.61,1.6-1.18-.22-.32-.42-.62-.63-.92-1.32-1.89-2.53-3.84-3.51-5.93-.59-1.26-1.31-2.41-2.47-3.24-1.53-1.09-3.11-2.06-4.82-2.85-2.37-1.08-4.8-1.91-7.42-2.13-1.61-.14-3.22-.34-4.82-.02-.76.15-1.51.35-1.99,1.03,0,.24,0,.45,0,.8ZM50.48,98.72c.44-.54.93-1.05,1.31-1.64.7-1.08,1.35-2.2,1.97-3.33.17-.3.24-.7.22-1.05-.03-.77-.1-1.53-.22-2.3-.25-1.57-.26-3.18.21-4.74.23-.78.63-1.46,1.24-2.01.83-.75,1.93-.82,2.83-.15,1.24.92,1.86,2.18,1.95,3.7.07,1.07.07,2.15.12,3.22.08,1.57.15,3.13.29,4.7.2,2.19-.26,4.23-1.26,6.18-1.05,2.02-2.42,3.76-4.38,4.98-1.78,1.11-3.71,1.78-5.83,1.88-.15,0-.3.02-.45.03-.03,0-.06.05-.13.1.15.1.28.2.42.29,1.6.98,2.63,2.4,3.11,4.2.18.68.17,1.37,0,2.05-.24.95-.64,1.83-1.16,2.65-.66,1.05-1.65,1.69-2.78,2.11-1.32.48-2.66.87-3.99,1.32-1.82.61-3.63,1.25-5.45,1.85-.51.17-1.04.3-1.57.37-2.12.26-3.96-1.04-4.73-2.87-.25-.61-.36-1.27-.56-2-.19.06-.43.13-.66.21-2,.7-4.05,1.17-6.17,1.29-3.76.22-6.96-.96-9.49-3.78-.5-.55-.94-1.18-1.29-1.84-.82-1.57-.33-3.19.79-4.32.46-.46,1.09-.61,1.7-.73,2.11-.43,4.19-.2,6.26.3,1.13.27,2.28.47,3.42.69.29.06.58.06.88.08,0-.05.02-.1.03-.15-.28-.06-.55-.13-.83-.18-2.93-.61-5.64-1.73-8.06-3.5-.63-.47-1.19-1.05-1.74-1.61-.52-.52-.74-1.2-.94-1.89-.23-.78-.44-1.58-.79-2.32-.64-1.36-1.13-2.75-1.33-4.23-.07-.55-.06-1.12.04-1.66.21-1.12,1.02-1.76,2.16-1.73.73.02,1.45.14,2.21.22.17-1.21,1.21-1.41,2.17-1.78-.3-.51-.61-.99-.87-1.49-1.43-2.81-1.65-5.71-.64-8.7.39-1.15,1.2-1.79,2.41-1.97.96-.14,1.9-.34,2.85-.52,1.1-.2,2-.76,2.72-1.6.36-.42.73-.85,1.07-1.29,1.18-1.54,2.75-1.98,4.59-1.62,1.49.29,2.58,1.23,3.57,2.31.14.16.28.33.46.55.14-.17.25-.31.36-.45,1-1.36,2.31-2.08,4.04-1.99.88.05,1.76.02,2.64,0,.72-.02,1.35.17,1.96.53,1.28.74,2.18,1.87,3.07,3,1.42,1.8,2.43,3.81,3.05,6,.77,2.72.9,5.5.62,8.31-.2,2.06-.69,4.02-1.47,5.93-.05.11-.07.23-.1.34.03.02.07.04.1.06Z"/>
    </g>
  </g>
</svg>