<?xml version="1.0" encoding="UTF-8"?>
<svg id="Layer_2" data-name="Layer 2" xmlns="http://www.w3.org/2000/svg" xmlns:xlink="http://www.w3.org/1999/xlink" viewBox="0 0 93.73 133.09">
  <defs>
    <style>
      .cls-1 {
        stroke-width: 0px;
      }

      .cls-1, .cls-2 {
        fill: none;
      }

      .cls-2 {
        stroke: #1d1d1b;
        stroke-miterlimit: 10;
      }

      .cls-3 {
        clip-path: url(#clippath);
      }
    </style>
    <clipPath id="clippath">
      <rect class="cls-1" width="93.73" height="133.09"/>
    </clipPath>
  </defs>
  <g id="Layer_1-2" data-name="Layer 1">
    <g class="cls-3">
      <path class="cls-2" d="M85.65,124.66c2.12-2.24,9.3-10.18,7.44-13.49-1.99-3.55-11.1-15.43-12.51-19.24-2.55-6.88-4.33-14.1-4.78-21.44-.11-1.84-.2-3.7.18-5.52.37-1.8,1.16-3.5,1.24-5.35.06-1.28-.27-2.74-1.54-3.35-1.16-.56-2.28.14-2.78,1.24-.59,1.29.06,2.61,1.6,2.11,1.44-.47,2.8-1.83,3.86-2.85,2.08-2.01,3.82-4.39,4.84-7.11,1.16-3.09,1.28-6.46,1.3-9.72.03-4.31.11-8.75-.6-12.99-.83-4.94-3.79-9.71-7.78-12.64-2.11-1.55-4.31-2.86-6.65-4.05-2.17-1.09-4.3-2.38-6.68-2.99-2.31-.59-4.82-.35-6.99-1.45-2.38-1.2-3.52-3.61-5.41-5.34-1.91,1.98-2.59,7.31-.21,9.34.33.29.78.53,1.01-.03.2-.52-.51-1.22-.8-1.55-1-1.1-2.25-2.02-3.62-2.6-2.98-1.27-6.36-1.16-9.5-.62-2.4.41-4.76,1.12-6.98,2.11-2,.89-5.05,1.08-6.6,2.72-3.18,3.38,3.72,2.32,1.1.33-2.74-2.09-9.29.74-11.74,2.24-6.16,3.78-7.27,11.52-12.23,16.02,1.26.08,2.58-.01,3.84.07-2.86,4.06-.18,9.25,3.58,11.77,1.2.81,4.09,2.93,5.69,1.62.87-.71.88-4.23-.49-2.62-3.06,4.19,3.3,2.37,4.62,4.4-2.34.16-3.64-.69-4.29,1.82-.44,1.68.1,3.73.01,5.37-.24,4.54-2.34,7.67-4.64,11.42-.86,1.41-2.18,3.2-1.32,4.8.77,1.44,3.16,1.77,4.68,1.62.94-.09,4.96-1.23,3.36-2.65-1.36-1.2-4.05,1.09-3.66,2.44.64,2.26,4.6.41,5.93,0,2.33-.73,4.99-1.56,7.24-.05.84.57,1.51,1.46,1.65,2.47,1.03-.94,2.23-.9,2.57-.85.97.14,1.78.95,2.32,1.72,1.2,1.67,1.13,3.81,1.22,5.78.08,1.72.47,9.89-2.7,9.53-.94-2.32,3.01-3.92,4.57-4.74,5.5-2.89,8.58-6.37,10.37-12.42.36-1.23,2.19-5.59,3.32-3.62,2.32,4.05-6.38,7.27-8.21,3.95,3.12-.13,4.62-4.53,3.14-7.09-2.52-4.38-10.6-6.56-15.28-6.79-3.48-.17-7.88.96-11.02-1.17,3.51.49,10.16.8,10.51-3.57.43-5.36-9.72-3.67-11.9-1.21,3.69-.79,7.77-.66,11.7-.87-.03-2.1-2.8-4.08-3.66-6.06-2.8-6.43,3.8-11.41,9.22-12.86,5.2-1.39,11.25-.49,14.96,3.69,2.58,2.91,3.48,6.75.89,10.05-1.49,1.9-3.86,2.32-5.4.11-4.08-5.84,5.01-8.91,9.14-6.07,3.19,2.2,2.7,6.13,7.46,6.72,4.81.59,8.92-2.56,10.57-6.92,1.09-2.86,1.39-10.06-2.42-11.48-3.08-1.15-4.35,3.33-3.3,5.46.93,1.9,3.07,3.05,5.09,3.4,2.5.44,3.99-.59,5.97-1.92,2.37-1.59,5.57-.32,7.79.98,3.95,2.3,5.71,6.25,5.9,10.68.16,3.79-.45,7.19-2.43,10.45-2.2,3.63-4.72,4.97-8.49,6.49,6.77,11.17-9.92,19.21-18.46,13.12,4.27-4.21,8.09-8.46,8.24-14.9.06-2.72-.88-4.43-3.61-5.06-4.53-1.05-7.33,2.34-7.77,6.71-.15,1.46-.36,4.41.65,5.52,2.71,2.97,6.87-1.79,6.88-4.73.01-3.33-1.81-3.75-4.12-1.78-2.2,1.88-3.05,4.17-3.46,6.88-.82,5.36-.36,10.42.1,15.74.28,3.26-2.08,6.59-5.7,5.46.07,4.97-4.83,8.66-8.62,11.04-2.86,1.8-6.2.7-8.46,2.02-4.32,2.52-8.28,9.15-14.32,7.13-3.18-1.06-6.32-4.3-6.94-7.6-.22-1.2-.59-3.73.62-4.31.73-.35,1.94.03,2.34.63,1.69,2.56-1.61,5.35-3.8,6.13-2.8,1-6.41.47-8.42-1.89-2.49-2.92-2.72-7.18-2.35-10.82.51-5.07,3.23-9.4,7.94-11.47-1.05-2.96-.58-6.48,1.53-8.81M23.35,9.62c-5.66.02-10.78,5.74-13.41,10.33-3.05,5.32-4.66,13.46-.8,18.81,1.02,1.41,2.34,2.98,4.1,3.35M21.68,109.78c-1.29.12-1.62-.93-1.79-2.01-.43-2.75,1.04-5.16,3.4-6.53,1.99-1.15,9.73-4.55,10.68-.61.43,1.78-1.56,2.9-2.69,3.9-1.41,1.24-2.72,2.53-4.29,3.58-1.58,1.05-3.89,1.97-5.31,1.66ZM33.95,102.6c2.34,2.26,4.93,7.74,6.27,10.33,1.57,3.03,5.14,14.96,5.15,19.82"/>
    </g>
  </g>
</svg>