<svg xmlns="http://www.w3.org/2000/svg" viewBox="0 0 92.2 197.46" xmlns:v="https://vecta.io/nano"><defs><clipPath id="A"><path d="M0 0h92.2v197.46H0z" fill="none" stroke-width="0"/></clipPath></defs><g clip-path="url(#A)" fill="#1d1d1b"><path d="M19.23 77.16c.11-.1.86-.33 1.68-.51 1.55-.33 2.3-.67.91-.41l-1.7.29c-.98.15-1.4.34-1.4.64 0 .24.27.24.51 0m-2.31 2.3c0 .14.64-.05 1.48-.44.58-.27.59-.28.07-.17-.75.15-1.56.48-1.56.62m9.07 71.63c-.17 0-.24.09-.18.2.07.11.26.2.42.2s.24-.09.18-.2c-.07-.11-.26-.2-.42-.2m3.32-1.82c-.71-.65-1.37-1.19-1.46-1.19-.43 0 .07.64 1.16 1.47 1.68 1.28 1.84 1.13.3-.28m1.39-.46c-.18.18-.05.4.54.95.42.39.84.72.92.72s.29.34.47.76c.18.41.36.64.41.51.23-.6-1.94-3.33-2.34-2.94m37.34 5.89c-.2 0-.37.34-.69 1.38-.26.83.31.38.61-.48.33-.96.33-.89.08-.89m-5.98 1.89c0 .3.09.47.2.4s.2-.25.2-.4-.09-.33-.2-.4-.2.1-.2.4m5.11 1.5c-.42 0-.5.46-.13.74.42.33.42.33.42-.24 0-.3-.11-.5-.28-.5m-43.01-30.06c.11 0 .09-.13-.05-.3s-.34-.3-.45-.3-.09.13.05.3.34.3.45.3M9.98 112.95c.14.08.06-.07-.17-.34a9.8 9.8 0 0 1-.86-1.24c-.78-1.3-.83-.81-.08.7l.92 1.7c.29.38.38.3.15-.14-.28-.53-.26-.87.04-.69m-1.58-3.92c-.12 0 .57 1.29.89 1.65.17.2.35.31.4.26.08-.09-1.15-1.92-1.29-1.92m.55-1.5c.09-.05-.17-.58-.57-1.18-.41-.59-.77-1.05-.8-1.02-.08.07.72 1.69 1.01 2.05.11.14.27.2.36.14m4.69-13.31c.17 0 .25-.09.19-.2-.07-.11-.21-.2-.31-.2s-.19.09-.19.2.14.2.31.2m-.75 24.76c.05-.05-.02-.24-.16-.41s-.3-.27-.36-.21.02.24.15.41c.14.17.3.26.36.21m.55 4.01l-.6-.13.63.39c.34.22.7.51.79.65.13.21.18.21.24 0 .12-.36-.34-.74-1.06-.91m1.2-.46c-.77-.91-1.55-1.65-1.74-1.65s-.67-.41-1.08-.91-.78-.86-.83-.82c-.2.2 2.24 2.83 2.77 2.98.3.08.6.32.67.51.06.2.27.54.46.75l1.23 1.49 1.49 1.75c.33.36.63.65.66.65.25 0-.54-1.28-1.29-2.1l-2.33-2.66m-1.63-25.78c.46.34.64.36.81.08.14-.22-.89-.68-1.08-.49-.07.07.05.25.26.41m.84 23.73s.02-.13-.05-.3c-.06-.17-.2-.3-.32-.3s-.1.13.05.3c.14.17.28.3.32.3m5.08 3.81c.11 0 .2-.04.2-.09s-.09-.15-.2-.21c-.11-.07-.2-.03-.2.09s.09.21.2.21m8.78 25.65c-.21 0-.42-.07-.48-.17-.16-.26-2.5-.92-2.67-.76-.22.22.29.46 1.52.71.61.12 1.34.35 1.62.5.53.3.72.27.51-.08-.08-.12-.3-.22-.51-.22M13.81 82.77s.14-.09.21-.2.03-.2-.09-.2-.21.09-.21.2.04.2.09.2"/><path d="M16.58 79.56c-.12 0-.42.18-.68.41l-.47.41.6-.35c.79-.46.8-.47.56-.47m1.98 15.71c-.06.06-.05.24.02.41.17.45.31.38.19-.1-.06-.22-.15-.36-.2-.31m-5.18 2.61c.13.35.17.37.61.19.41-.16.4-.6-.02-.76s-.76.16-.6.57m6.48 27.29c.14-.14-.14-.52-.39-.52-.13 0-.12.11.04.3.14.17.29.26.34.21m-5.93-18.42s-.16-.2-.35-.35c-.32-.25-.32-.24-.07.07.26.33.42.44.42.27m-1 .41s-.16-.2-.35-.35c-.32-.25-.32-.24-.08.08.26.33.43.44.43.27m4-28.6c.16-.31.16-.49-.02-.7-.51-.62-1-.24-.83.66.11.57.55.59.84.04m45.83 57.54c.17-.14.3-.49.29-.78 0-.51-.02-.51-.3-.14-.16.21-.29.56-.29.77 0 .32.05.35.3.14m5.97 19.22c-.07.51-.21 1.14-.31 1.4-.14.36-.09.54.17.73.41.3.8.16.48-.17-.33-.34-.26-1.19.21-2.32.23-.57.36-1.1.28-1.18-.25-.25-.69.57-.83 1.54M38.1 13.37c-.03-.24-.3-.19-.38.07-.04.13.03.21.16.16s.23-.15.23-.23m-.62 15.58c0 .1.15.04.33-.15s.27-.4.19-.49c-.15-.16-.52.29-.52.63m.79-19.02c-.11.07-.15.21-.09.31.17.28.29.23.29-.13 0-.17-.09-.25-.2-.19m1 9.22c0 .28.09.51.2.51s.2-.18.2-.39-.09-.45-.2-.51c-.11-.07-.2.1-.2.39M36.06 31.9c-.09.15-.17.47-.17.72s.08.45.18.45c.27 0 .41-.5.28-1-.09-.33-.16-.37-.29-.17m5.34 55.53c.07-.41.39-1.15.71-1.64.85-1.3 2.57-7.2 2.31-7.89-.19-.49-.54-.41-.55.11 0 .25-.09.59-.19.75-.14.22-.2-.01-.21-.8-.03-1.24-.01-1.27-.78 2-.28 1.22-.78 2.55-1.38 3.71-.52.99-1.06 2.17-1.2 2.63-.24.77-.23.86.21 1.33.66.72.93.67 1.09-.2m5.6-55.9c.29.29.81.11 1.03-.36.2-.43.18-.5-.14-.5-.41 0-1.1.67-.89.87m2.77 43.04c-.43.15-.83.4-.88.55-.06.18.01.24.19.17l1.77-.71c1.98-.81 4.58-1.39 4.78-1.07.19.32 1.38.64 1.51.42.06-.1.44-.27.84-.38.58-.16.8-.14 1.06.1.3.27.36.27.58 0 .16-.19.61-.31 1.18-.32.51 0 1.37-.18 1.92-.39l1-.37-1.14.12c-.95.1-1.17.06-1.27-.21-.14-.37-1.46-.47-1.79-.14-.1.1-1.09.22-2.19.26-1.77.07-3.59.43-4.79.93l-2.78 1.05"/><path d="M36.88 14.03c-.09 0-.27.18-.39.4-.17.31-.15.4.07.4.16 0 .33-.18.39-.4.05-.22.02-.4-.07-.4m3.63 18.88c.25-.32.24-.32-.08-.07-.19.15-.35.31-.35.35 0 .16.16.06.43-.28m-20.6-7.76c-.11-.07-.2-.03-.2.09s.09.21.2.21.2-.04.2-.09-.09-.15-.2-.21m2.75 1.14c-.24-.05-.35.06-.35.34s.12.39.41.37c.49-.04.45-.61-.06-.71m-6.59-.43c-.42 0-.81.34-.66.57.1.16.25.16.52.02.44-.23.52-.6.14-.59m8.49.29c.05.11.14.36.21.55s.17.35.23.35c.2 0 .11-.32-.21-.71-.17-.22-.28-.3-.23-.19m8.75-14.13c.21 0 .25-.27.06-.46-.18-.19-.5.05-.36.27.06.1.2.19.31.19m-8.09 15.73c.07.18.17.28.22.23s0-.26-.12-.46c-.24-.4-.29-.28-.1.23m13.25-16.81c0 .16.38.07.5-.12.07-.11-.01-.15-.19-.08-.17.07-.31.16-.31.2m.8 5.39c.11-.07.2-.25.2-.41s-.09-.29-.2-.29-.2.19-.2.41.09.36.2.29m-1.02.39c-.24-.15-.57.24-.57.67 0 .19.09.21.39.04.45-.24.51-.51.18-.71m20.93 125.11c.25-.26.27-.43.08-.96a5.94 5.94 0 0 1-.25-1.27c-.02-.55-.05-.52-.22.26-.11.48-.14 1.19-.06 1.58.12.64.16.67.44.39m1 6.47c-.06-.16-.11.38-.11 1.21 0 .96.08 1.6.23 1.76.2.2.26.04.31-.8.04-.58-.02-1.24-.13-1.47a6.7 6.7 0 0 1-.29-.71m.19-8.31c.16-.22.2-.45.09-.58-.1-.12-.11-.59 0-1.12.24-1.22.22-1.88-.03-1.1-.31.98-.57 2.75-.44 2.96.08.12.23.05.39-.16m-1.17 11.52c.04-.13-.02-.33-.14-.45-.17-.16-.22-.14-.22.09 0 .17.06.37.15.45.08.08.18.04.22-.09m-3.17-16.12c-.11.07-.2.32-.2.56 0 .36.04.39.2.14.25-.39.25-.86 0-.7M13.23 26.25c.08.13.27.12.56-.03.28-.15.35-.26.18-.32-.37-.12-.88.12-.74.35m39.72 57.61c-.21.16-.29.29-.19.3.3 0 .81-.35.68-.48-.06-.06-.28.02-.49.18m28.57 65.24c-.38-.42-.7-.52-.7-.23 0 .09.2.27.45.39.63.31.66.29.25-.16m-8.08 18.12c0 .21.04.33.1.27.07-.07.07-.24.02-.39-.06-.16-.11-.11-.12.12m6.21-23.45c.14-.08.13-.19-.01-.34-.25-.26-.51-.06-.33.25.08.12.22.16.34.09m-21.8 7.34c-.11 0-.2.2-.2.45 0 .37.04.39.2.15.25-.39.25-.6 0-.6m0-16.64c-.11 0-.2-.19-.2-.43 0-.61-.12-.4-.29.5-.13.72-.12.75.27.54.43-.23.56-.61.21-.61M47.37 89.38c-.07.11-.03.2.08.2s.25-.09.32-.2.04-.2-.08-.2-.26.09-.32.2m11.29 11.17c.64-1.41.43-2.34-.29-1.31-.17.25-.31.83-.31 1.31s.05.86.11.86.28-.38.49-.85m-9.36 17.08v.5l.17-.5c.09-.27.16-.68.17-.9v-.4l-.17.4a2.88 2.88 0 0 0-.17.9m.86-32.39c-.32.08-.45.22-.37.42.12.32.47.41.47.12 0-.1.2-.24.45-.31.6-.18.09-.39-.55-.23m4.83 50.73l-.26 1.1c-.14.61-.2 1.32-.14 1.58.12.47.12.47.34.06.12-.23.18-.94.14-1.58l-.08-1.17zm-1.73-1.81c-.11.07-.2.22-.2.32s.09.15.2.08.2-.22.2-.33-.09-.14-.2-.08"/><path d="M55.08 135.56c-.01.21.04.33.1.27.07-.07.08-.24.02-.39-.07-.16-.11-.11-.12.12m-3.22 1.72c-.11 0-.2.14-.2.3s.09.3.2.3.2-.14.2-.3-.09-.3-.2-.3m-1.39-4.95c0 .11.03.17.05.13.03-.05.19-.26.35-.49.27-.37.27-.38-.06-.12-.19.15-.35.37-.35.48M39.38 24.64c.07.12.22.21.32.21.29 0 .46-.6.24-.82-.24-.24-.75.31-.56.61m-.69 144.1c.11 0 .2-.08.2-.19s-.09-.25-.2-.31c-.11-.07-.2.02-.2.19s.09.31.2.31M59.71 23.06c-.04-.05-.41.26-.81.69l-.75.78.82-.69c.44-.38.78-.73.74-.78m-4.66 3.59c-.33.38-.59.81-.59.96 0 .2.12.19.5-.06.27-.18.64-.27.83-.2.41.16 1.07-.41 1.07-.92 0-.45-.26-.48-.6-.07-.34.4-.6.38-.61-.05 0-.26-.16-.17-.6.34m2.57 100.67c-.16.06-.11.11.12.12.21 0 .33-.04.26-.1-.07-.07-.24-.08-.38-.02m13.48-.17c.04-.24-1.19-.38-1.63-.17-.24.11-.11.19.47.28.96.16 1.12.15 1.16-.11m-1.32 4.59c-.14.06-.03.1.25.1s.39-.04.25-.1c-.14-.05-.36-.05-.5 0m3.2-4.4c-.07-.07-.24-.07-.38-.02-.16.06-.11.11.12.12.21.01.33-.04.26-.1"/><path d="M90.9 156.32c-.32 0-.32-.02-.35-1.1-.03-1.35.53-.68.62.75.01.19-.11.35-.28.35m-.36 4.34c-.15.15-.29-.26-.37-1.04-.05-.49-.16-.61-.56-.62l-1.15-.05c-.48-.02-.7-.15-.82-.48-.21-.56-.12-.68.28-.35.17.14.31.19.31.1s.22 0 .49.18c.63.41.91.41.91 0 0-.71.78.37.91 1.27.07.49.08.94.01 1.01m-.95 5.14c-.18-.21-.2-.41-.07-.62.32-.51.58-.39.65.28.07.7-.16.84-.58.33m-.45 2.4c-.21-.21-.16-1.48.06-1.48.11 0 .25.22.32.49.13.52-.14 1.22-.38.99m.35 1.36c-.2.32-.48.18-.48-.25 0-.35.05-.38.3-.18.16.13.25.33.19.43m-.66 1.92c-.1.53-.64.63-.63.11.01-.49.53-1.15.64-.82.04.14.04.46 0 .71m-.7 3.18c-.06.06-.16-.05-.23-.24s-.08-.38-.03-.44c.06-.06.16.05.23.24s.08.38.03.44m-.9 1.92c-.22-.14-.35-.98-.27-1.84.04-.48.82.95.82 1.51 0 .52-.13.6-.55.33m-.44-8.98c0-.26-.31-.77-.71-1.17-.68-.68-1.25-1.81-1.03-2.03.06-.06.38.04.72.22.42.22.62.47.62.79 0 .26.26.8.58 1.2.37.47.54.87.47 1.13-.2.78-.65.69-.65-.13m-.9 8.47c-.27.27-.3.22-.3-.4 0-.85.18-1.37.42-1.22.1.06.18.38.18.71s-.14.74-.3.91m-1.06-4.14c-.18 0-.22-.13-.14-.4.1-.33.04-.4-.35-.4-.26 0-.57.09-.68.21-.28.28-.81.05-.93-.41-.05-.2.04-.56.2-.8.29-.41 1.84-1.5 1.95-1.37.03.04.09.76.14 1.62.06 1.2.01 1.55-.19 1.55m-1.84 1.3c-.25.16-.25-.11 0-.5.17-.26.19-.25.2.04 0 .19-.09.39-.2.46m-.72-6.51c-.18 0-.28.23-.28.66 0 .85-.51 1.6-.99 1.45-.28-.09-.48.15-.93 1.1-.54 1.14-1.06 1.67-.78.81.09-.29.05-.37-.15-.29-.15.06-.51-.15-.81-.46-.5-.52-.52-.62-.31-1.31.22-.72.56-1.02.56-.49 0 .35.66.9.96.79.13-.04.24-.3.24-.58 0-.53 1.35-3.48 1.6-3.48.08 0 .49-.27.9-.6.42-.33.87-.6 1-.6.14 0 .35.52.48 1.22.21 1.05.2 1.27-.07 1.57-.18.2-.32.7-.32 1.18s-.09.84-.22.84c-.15 0-.19-.49-.15-1.5l.01-1.5c-.04 0-.16.27-.27.6-.12.33-.33.6-.49.6m-.66 4.7c-.11.07-.2-.01-.2-.18s.09-.36.2-.43.2.01.2.18-.09.36-.2.43m-.48 2.46c-.43-.61-.4-1.16.06-1.16.28 0 .35.11.28.48-.05.26 0 .54.13.61.12.08.22.22.22.33 0 .34-.37.2-.69-.26m-1.61-.35c-.16-.26.09-1.21.32-1.21.1 0 .18.32.18.7 0 .67-.24.92-.49.51m-1.21-.21c-.08-.13-.03-.32.13-.41.17-.1.3-.09.35.04.11.33-.3.66-.47.37m-.91-10.82a.2.2 0 0 1-.4 0 .2.2 0 0 1 .4 0m-3.62-4.33c-.29.64-.67.79-1 .4-.35-.42.01-.96.69-1.04.6-.07.61-.04.3.64m-2.84-5.44c.06.07.08.24.04.37-.07.2-.11.2-.24 0-.17-.27 0-.58.2-.37m-.12 1.45c.11-.07.2.02.2.19s-.09.31-.2.31-.2-.09-.2-.19.09-.24.2-.31m1.4-3.01c-.27.71-.8.67-.8-.08 0-.65.17-1.22.37-1.22.35 0 .61.81.43 1.3m4.99 17.94c.12.08.26.45.31.82l.14 1.06c.11.76-.42.55-.56-.21-.25-1.35-1.27-3.34-1.57-3.05-.06.07-.04.5.07.95.1.46.11.83.03.83-.22 0-.4-.53-.4-1.21s-.3-.94-.57-.45c-.14.25-.12.44.06.66.32.38.55 1.76.31 1.91-.25.16-.6-.59-.68-1.45-.04-.41-.17-.77-.29-.81-.23-.08-.3.06-.52 1.03-.16.74-.25.63-.61-.76-.35-1.32-.37-1.91-.09-2.32.18-.27.22-.27.42 0 .18.25.19.23.09-.08-.07-.21-.22-1.05-.35-1.86-.23-1.58-.36-1.7-.55-.53-.17 1.08-.56 1.07-.72-.01-.1-.62-.04-1.2.18-1.85.41-1.2.41-1.21-.1-.76-.72.66-.89 1.12-1.38 3.78-.14.78-.12 1.09.11 1.44.33.51.42 3.47.11 3.47-.17 0-.43-.63-.99-2.42-.12-.39-.22-1.21-.22-1.82 0-.65-.12-1.26-.3-1.49-.34-.45-.35-.39-.31 1.42a17.88 17.88 0 0 0 .29 2.46c.26 1.27.16 1.69-.29 1.15-.4-.48-1.37-5.23-1.26-6.17.15-1.27.24-1.5.47-1.14.1.16.18.5.19.74 0 .49.14.55.58.27.21-.14.24-.4.12-1.15-.09-.53-.17-1.58-.17-2.33 0-.74-.07-1.35-.13-1.35s-.32.4-.57.9c-.25.49-.53.85-.62.8-.09-.06-.23.4-.31 1.01-.08.67-.25 1.17-.42 1.23-.16.06-.41.35-.57.64l-.28.52v-.85c-.02-.62-.1-.85-.32-.85-.17 0-.3-.18-.3-.43 0-.24-.06-.38-.13-.3-.07.07.12 1.44.43 3.04l.44 3.03c-.07.07-.3.06-.53-.01-.29-.09-.41-.3-.41-.71 0-.32-.09-.64-.21-.71-.12-.08-.16-.38-.08-.72.1-.44.06-.58-.18-.58-.2 0-.35-.27-.44-.76-.07-.41-.3-1.34-.49-2.05-.29-1.04-.36-1.17-.38-.65-.01.44-.11.65-.31.65-.17 0-.3-.05-.3-.11s-.1-.76-.22-1.55c-.4-2.61-.59-2.19-.47 1.04.08 2.41.06 3.06-.14 2.99-.14-.05-.36-.62-.49-1.27l-.55-2.29-.32-1.15c0-.03.16-.05.37-.05.33 0 .37-.19.38-1.95.01-2.41.35-4.83.97-7.04.51-1.79.6-2.63.28-2.63-.11 0-.2.17-.2.39 0 .57-.22 1.03-.42.9-.22-.13-.23-1.1-.03-1.42.08-.13.37-.26.65-.3.36-.05.61-.32.93-.99.24-.51.57-.97.73-1.04.16-.06.35-.43.42-.83.07-.39.21-.72.31-.72s.36-.32.58-.7.54-.7.7-.7.41-.17.56-.36c.14-.2.53-.54.86-.74s.71-.51.85-.67c.32-.38.55-.17.3.27-.19.35-.1 1.3.12 1.3.15 0 .92-1.8.93-2.16 0-.14.14-.34.3-.45.4-.26 1.26-.25 1.1 0-.14.23-.9 2.92-.89 3.15 0 .08.13-.08.29-.35.28-.48.29-.46.29.53 0 .57.1 1.07.21 1.1.13.04.15.54.07 1.35-.11 1.02-.25 1.42-.72 1.95-.69.78-.95.85-.95.23 0-.72.63-2.16.94-2.16.2 0 .24-.13.15-.45-.18-.61-.49-.92-.49-.49 0 .19-.13.34-.28.34-.37 0-.58.89-.79 3.33-.06.77-1.25 3.28-1.55 3.28-.26 0-.32-.52-.18-1.31.12-.64.16-.69.18-.23.04.92.35.45.6-.91l.45-2.22c.12-.53.17-1.01.12-1.06-.24-.24-.51.54-.61 1.8-.07.76-.21 1.48-.33 1.59-.14.15-.21.08-.21-.22 0-.67-.33-.71-.58-.08-.33.8-.38 2.88-.07 2.98.16.06.18.2.07.42-.1.18-.34.76-.54 1.28-.2.53-.47.95-.61.95-.3 0-.34-1.12-.05-1.3.11-.07.19-.55.18-1.06-.02-.85-.03-.88-.17-.32-.19.78-.39 1.12-.6.99-.09-.06-.2.34-.25.89-.05.54-.24 1.13-.42 1.31-.3.31-.3.38 0 1.07.44 1.01.55 1.92.28 2.43-.32.61-.61.33-.61-.61 0-.49-.08-.75-.2-.68-.25.16-.26 2.32 0 2.99.12.31.3.47.47.4.15-.06.38.03.52.19.65.78 1.11-.68.62-1.96-.14-.38-.07-.91.3-2.15.27-.91.49-1.85.49-2.1s.13-.59.3-.75c.16-.17.3-.48.3-.7s.21-.65.47-.97c.26-.31.81-1.1 1.22-1.77 1.1-1.75 2.08-2.89 2.79-3.24a5.98 5.98 0 0 0 1.16-.82c.46-.43.56-.46.66-.2.07.17-.07.68-.3 1.13s-.41.92-.41 1.06-.17.43-.37.66-.48.86-.61 1.42c-.13.55-.41 1.27-.6 1.6-.31.51-.45 1.03-.71 2.61-.02.11-.05.24-.08.3-.19.46-.12 1.4.11 1.49.22.09.25.39.14 1.44-.1.99-.07 1.3.09 1.2.13-.08.23-.32.23-.54s.13-.45.29-.51c.22-.08.24-.19.07-.46-.36-.58.04-1.88.62-2.02.35-.08.56-.35.77-1.01.3-.9.73-1.97 1.08-2.67a4.33 4.33 0 0 0 .27-.79c.1-.54.47-.77 1.04-.68.3.05.53-.05.66-.29.35-.67 1.98-1.29 1.98-.76 0 .12-.23.72-.52 1.35s-.62 1.63-.75 2.24c-.28 1.33-.44 1.62-.84 1.47-.16-.06-.43 0-.6.14s-.36.2-.43.12c-.07-.07-.29.23-.48.67-.2.44-.44.8-.55.8s-.3.47-.43 1.05-.41 1.35-.62 1.72-.38.74-.38.84c0 .44.96 1.11 1.66 1.15.63.04.74-.01.74-.36 0-.23-.07-.37-.16-.31-.09.05-.28.03-.42-.06-.32-.2.02-.83.66-1.21.34-.21.37-.21.17 0-.32.34-.33 1.06-.02.87.23-.14.19.48-.14 2.42-.1.57-.08.74.08.6.12-.11.27-.59.32-1.06.06-.47.25-1.13.42-1.47.2-.39.27-.82.18-1.2-.09-.4-.02-.76.19-1.09.43-.65.76-.63.68.04-.04.29.04.57.16.61.33.11 1.31-1.75 1.18-2.26-.14-.55.58-1.24 1.47-1.42.63-.12.66-.1.56.35-.06.26-.34 1.13-.63 1.93s-.52 1.76-.52 2.14-.22 1.12-.5 1.64-.5 1.11-.5 1.32-.08.37-.18.37c-.11 0-.14-.82-.07-1.95.06-1.07.04-1.89-.05-1.8-.09.08-.31.93-.49 1.89-.19 1.01-.44 1.78-.59 1.83-.19.07-.24-.11-.17-.69.05-.42.17-.95.26-1.15.12-.28.09-.35-.11-.29-.26.09-.36.41-.67 2.19-.11.63-.07.74.29.84.39.1.41.2.28 1.23-.07.61-.09 1.11-.04 1.11s.25-.32.44-.7c.21-.46.45-.69.67-.65.23.04.42-.2.63-.8.23-.67.4-.85.75-.85.41 0 .46-.1.46-.99s.06-1.03.89-1.72c1.14-.93 1.93-.92 2.12.03.09.45.02.76-.24 1.1-.2.26-.36.62-.37.8 0 .18-.18.54-.39.81s-.5.98-.65 1.58-.35 1.09-.46 1.09c-.35 0-.34-.9 0-1.44.24-.37.27-.57.11-.73-.45-.45-1.02.94-1.02 2.49 0 .56-.1 1.03-.25 1.12-.45.29-1.59 2.71-1.35 2.86m.53 4.76c-.06.06-.16-.05-.23-.24s-.08-.38-.03-.44c.06-.06.16.05.23.24.07.18.08.38.03.44m-1.5-.68c-.44.44-.95-1.76-.66-2.84.18-.66.31-.38.61 1.27.17.94.19 1.43.05 1.57m-2.2-.35c-.45-.32-.56-1.02-.27-1.77.13-.34.18-.32.37.2a8.24 8.24 0 0 1 .33 1.23c.13.76.14.75-.43.34m-.78-2.83c.14-.14.53.11.53.35a.19.19 0 0 1-.19.19c-.23 0-.49-.39-.34-.54m-1.1-3.6c-.11.46-.13 1.44-.06 2.18.08.86.06 1.35-.07 1.35-.34 0-.41-.29-.55-2.07-.11-1.45-.08-1.8.22-2.25.47-.72.71-.31.46.79m-1.95 5.14c-.4 0-.8-.54-.8-1.09 0-.48.31-.38.56.19.12.28.32.5.43.5a.2.2 0 0 1 .2.2c0 .11-.18.2-.39.2m-2.88-4.47c-.13.13-.5-.94-.63-1.85-.12-.77-.09-.93.13-.86.18.06.33.56.42 1.37.08.7.11 1.3.08 1.34m-3.47-1.55c-.21 0-.65-1.92-.65-2.85 0-.98.33-.43.48.78l.25 1.61c.06.26.03.46-.08.46m-1.47 0c-.09 0-.17-.22-.17-.5s.03-.5.08-.5.12.23.17.5.02.5-.08.5m-2.35-9.95c-.15-.46-.22-1-.14-1.19.12-.32.16-.33.46-.03.26.26.29.49.14 1.19l-.18.86-.27-.84zm.11 6.6c-.06.14-.1.03-.1-.25s.04-.39.1-.25a.72.72 0 0 1 0 .5m5.46-20.7c0 .11-.14.2-.31.2s-.25-.09-.18-.2.21-.2.31-.2.19.09.19.2m-5.57 19.85c-.33 0-.83-1.1-.83-1.84 0-.37-.1-1.02-.21-1.46l-.96-3.3c-.17-.45-.19-.61-.21-1.65-.01-.53-.1-.95-.19-.95-.24 0-.07 2.47.39 5.41l.5 3.26c.08.48.04.75-.1.75-.12 0-.22-.17-.22-.38s-.18-.77-.4-1.25c-.24-.53-.4-1.31-.4-1.98 0-.95-.07-1.13-.45-1.3-.58-.26-.74-1.54-.24-2.03.22-.23.29-.49.19-.85-.26-1.02-.35-3.85-.12-4.08.12-.12.22-.57.22-1 0-.8.55-3.2 1.08-4.69.26-.74.26-.85-.01-.95-.19-.07-.27-.27-.21-.51.06-.22.03-.36-.06-.3-.08.05-.22.62-.3 1.25-.08.64-.49 2.48-.92 4.1-.65 2.45-.78 3.27-.78 4.86 0 1.05-.08 1.91-.17 1.91-.36 0-.95-2.1-1.01-3.6-.04-1.14-.21-1.35-.21-.27 0 .44-.06 1.23-.13 1.76l-.13.95-.25-.72c-.39-1.14-.56-2.56-.31-2.71.24-.15.27-.9.1-2.82-.08-.9.01-1.91.3-3.3.63-3.12.74-4.31.38-4.31-.29 0-.32.16-.66 3.29-.18 1.65-.35 2.35-.61 2.45-.2.08-.29.44-.29 1.18 0 1.04-.23 1.53-.51 1.08-.08-.12-.14-1.34-.15-2.71 0-1.44-.09-2.49-.2-2.49-.1 0-.14.2-.08.45s0 .9-.16 1.45c-.15.55-.29.86-.32.7-.13-.81-.08-2.05.13-3.46.12-.85.15-1.6.07-1.66-.24-.15-.44.28-.5 1.09-.15 1.82-.33 2.83-.49 2.83-.2 0-.28-1.2-.2-3.03.03-.65-.04-1.19-.17-1.26-.24-.15-.24-.16-.34 3.7l-.1 2.6c-.04.1-.28-2.08-.54-4.81-.07-.83-.23-1.5-.34-1.5s-.25.5-.31 1.1c-.09.97-.13 1.04-.27.55a2.97 2.97 0 0 1-.05-1.15c.08-.39.03-.64-.16-.74-.15-.08-.31-.46-.34-.83-.06-.64-.11-.67-.9-.71l-.83-.04-.14 1.11-.14 1.12-.26-.6c-.42-.97-.53-1.36-.58-2.07-.06-.8-.51-1.38-.51-.66 0 .39-.08.45-.5.34-.37-.1-.5-.05-.5.18 0 .35-.54.39-1.31.1-.42-.16-.65-.13-1.02.11-.27.18-.68.29-.92.26-.41-.06-.4-.1.21-.65.42-.37.65-.77.65-1.1 0-.29.1-.86.21-1.28.17-.62.32-.78.81-.88.33-.07.65-.24.71-.39s.2-.27.31-.27c.32 0 .95-.82.95-1.23 0-.2.09-.37.2-.37s.44-.27.74-.61c.3-.33.64-.57.77-.52s.61-.08 1.07-.29c.64-.29.96-.33 1.35-.18.51.19.51.21.16.6-.32.36-.33.43-.05.71.26.26.34.27.58.03.16-.15.86-.52 1.57-.8 1.22-.49 1.63-.5 2.17-.04.04.03-.23.34-.6.69l-.67.64 1.3-.87v.42c0 .52.09.52.61 0 .31-.31.48-.36.67-.2.2.16.34.09.59-.29.23-.35.51-.5.93-.5.88 0 .92.46.15 1.55-1.05 1.48-1.07 1.53-.36 1.12 1.62-.92 1.6-.91 1.91-.65.25.21.32.17.41-.19.09-.35.26-.43.86-.43 1 0 2.01.37 2.01.74 0 .16-.27.56-.59.89-.44.45-.7.56-1.07.47-.43-.11-.48-.06-.46.47.02.55.05.57.42.31.21-.15.63-.27.92-.27s.69-.18.88-.4c.2-.22.51-.4.68-.4.27 0 .31.25.29 1.55-.01.86-.11 1.78-.23 2.06-.11.27-.27.98-.34 1.55-.18 1.3.19 1.44.8.31.42-.79 2.42-2.39 3.24-2.6.35-.09.56-.03.69.21.14.26.27.28.57.12.34-.19.39-.14.39.4 0 .66.38.81.8.31.14-.17.34-.3.45-.3.13 0 .12.1-.01.26-.12.14-.45 1-.73 1.9-.56 1.76-1.03 2.23-.84.82.11-.79-.14-.88-.28-.1-.08.4-.35.61-1.2.91-.5.18-.54.29-.67 1.75-.14 1.58-.8 3.45-1.11 3.13-.09-.09-.19-1.07-.23-2.17l-.06-2-.26 1.2-.36 1.76c-.19 1-.53.36-.41-.78.06-.59.04-1.08-.05-1.08-.22 0-.67 6.38-.53 7.65.14 1.33-.1 3.42-.41 3.52-.13.04-.32-.18-.43-.49-.14-.39-.21-.45-.22-.19-.01.32-.06.34-.34.11a1.98 1.98 0 0 1-.49-.68c-.11-.28-.17.02-.18.93 0 .74.07 1.39.18 1.46.17.11.55 2.79.44 3.18-.05.16.28 2.18.5 3.09.06.26.02.45-.11.45m-8.45-13.04l-.06.88-.15-.88c-.15-.83-.08-1.23.17-.98.06.06.08.5.05.98m-3.31-2.65c.14.13.03.27-.34.41-.66.25-.92.26-.92.04 0-.3 1.04-.67 1.26-.45m-.93-5.4c-.37 0-.47-1.68-.13-2.21.14-.21.19.07.19.95l-.06 1.25m-1.73 7.07c0-.32.54-.89.77-.82.17.06.15.21-.08.53-.31.44-.69.6-.69.29m3.65 1.22l-1.83.64-2 .84c-.41.24-.39.19.13-.28.35-.32 1.25-.83 1.99-1.13 1.94-.79 2.05-.82 2.05-.48 0 .17-.16.35-.35.41m-5.23 6.95c-.11 0-.2-.08-.2-.19s.09-.24.2-.31.2.02.2.19-.09.31-.2.31m-.79-11.8c-.16-.29-.16-.42 0-.42.12 0 .27.14.33.31.18.49-.08.57-.32.11m-.01 1.99c-.1 0-.24-.09-.31-.2s.02-.2.19-.2.31.09.31.2-.09.2-.19.2m-.39.94c.12.12.18.33.14.46-.06.17-.16.14-.35-.09-.31-.37-.12-.7.21-.37m-.69 1.84c-.42-.58-.48-.78-.26-.78.17 0 .36.1.43.22s.26.17.41.1c.19-.07.28.04.28.34 0 .89-.29.93-.86.12m-.07 3.44c-.06.22-.18.39-.29.39-.21 0-.29-.22-.46-1.2-.28-1.65-.28-2.01-.02-2.01.31 0 .91 2.24.76 2.81m-2.25-21.35c-.11.07-.2-.13-.2-.48s.09-.66.2-.73c.12-.07.2.13.2.48 0 .33-.09.65-.2.72m-.64 28.62c-.4 1.08-.55 1.14-.55.2 0-.99.35-1.85.75-1.85.32 0 .27.38-.2 1.65m.13-29.7c-.17.28-.29.23-.29-.12 0-.17.09-.26.2-.19s.15.21.09.31m-.11-4.82c-.23 0-.23-.55 0-.69.25-.16.42.08.29.4-.06.16-.19.28-.28.28m-.2-.95c-.33.79-.58.7-.58-.19 0-2.94-.21-6.66-.38-7.13-.25-.65-.29-2.94-.06-2.94.08 0 .34 1.05.55 2.34.23 1.39.49 2.38.64 2.42.15.05.25-.09.25-.33s.08-.42.17-.42c.25 0 .42.75.41 1.9 0 .79-.05.93-.21.65a1.09 1.09 0 0 1-.08-.75c.19-.61-.22-.47-.46.16a5.23 5.23 0 0 0-.22 2.87c.14.6.12 1.03-.04 1.42m-.01 12c-.05.14-.2.3-.35.35s-.22-.03-.18-.18c.05-.14.21-.3.35-.35.15-.05.23.02.17.18m-.76-8.33l.05-1.1c.04-.82.13-1.1.35-1.1.19 0 .32.23.36.62.04.4-.08.79-.35 1.1l-.41.49zm-.47 5.21c-.07-.18.04-.4.26-.54.3-.18.33-.31.16-.58-.16-.25-.16-.48 0-.82.21-.46.22-.46.52.22.32.73.27 1.09-.22 1.66-.37.43-.56.44-.71.05m-.73 4.41c-.28-.15-.65-.23-.83-.17-.39.12-1.76-.41-1.76-.68s2.82-.47 3.13-.21c.14.12.26.43.26.68 0 .62-.2.71-.8.38m-.43 1.92q-.47-.39-.03-.28c.24.06.55.24.67.39.35.42-.1.34-.64-.11m-.64 1.28c-.2-.14-.52-.21-.7-.14-.18.06-.26.04-.19-.04.08-.09 0-.29-.16-.46-.16-.16-.25-.35-.19-.4.15-.15 1.72.49 2.29.93.78.61-.2.71-1.05.11m.03 1.7c-.66-.02-.96-.18-.96-.49 0-.22.12-.23.6-.06.33.12.65.29.71.39s-.1.17-.35.17m-2.36-4.8c-.86-.48-1.49-.52-1.33-.1.2.52-.54.35-1.09-.25-.28-.3-.71-.69-.97-.85-1.5-.96-1.87-1.77-.55-1.21.64.27 1.13.35 2.64.42.44.02.64.08.45.13-.58.15-.4.43.36.58.48.09.67.22.61.4-.06.15.19.49.54.77.76.6.35.67-.66.11m.8 1.45c-.15.13-1.36-.24-1.5-.46-.19-.3.77-.24 1.21.09.21.16.34.32.29.37m-2.59-.65c0-.11.08-.2.19-.2s.24.09.31.2-.02.2-.19.2-.31-.09-.31-.2m1.04 1.78c-.45-.07-.97-.24-1.15-.37-.11-.08-.56-.27-1-.41-.75-.24-.77-.27-.35-.46.36-.16.68-.09 1.54.36.6.31 1.09.64 1.09.73s-.06.17-.15.15m-4.62-3.7l-.5-.31.5.11c.27.06.57.11.65.11s.15.1.15.21c0 .27-.21.24-.8-.12m-.45-2.93c.55.23 1.25.72 1.25.89 0 .26-.69.17-1.15-.16-.54-.38-.62-.95-.09-.73m-10.38-11.68c-.14.15-1.96-1.53-1.96-1.82 0-.5.32-.31 1.19.73.47.56.82 1.05.77 1.09m8.23-.7c0 .11-.04.2-.09.2s-.14-.09-.21-.2-.03-.2.09-.2.21.09.21.2m4.59.22c0 .34-.54.16-1-.33-.26-.27-.59-.5-.74-.5s-.26-.09-.26-.2.11-.2.24-.2c.32 0 1.76 1.01 1.76 1.23m-11.11-16.06c-.48 0-1-.49-.7-.68.1-.07.4.06.66.27.46.39.46.39.05.4m.22-1.36c.16-.16.89.21.78.4-.07.11.04.38.23.59.38.42.21.77-.32.65-.27-.07-.87-1.46-.69-1.63m8.16 31.41c-.42-.02-1.68-.82-1.88-1.19-.12-.22-.31-.4-.42-.4-.35 0-3.09-2.35-4.82-4.13-.9-.93-1.71-1.68-1.8-1.68-.36 0 .67 1.23 2.74 3.28l1.9 2.02c-.17-.09-1.36-1.01-2.66-2.04-1.51-1.21-2.43-2.08-2.56-2.44-.12-.34-.89-1.12-1.93-1.96l-2.46-2.15c-.4-.41-.83-.72-.97-.68-.13.04.67.96 1.78 2.04l2.01 2.12c0 .09.22.28.5.42.27.15.5.39.5.53 0 .59-.8.2-2.21-1.07-1.68-1.52-2.18-2.1-2.18-2.52 0-.16-.32-.54-.71-.84-.56-.43-.69-.65-.6-1 .09-.36-.06-.62-.67-1.16a8.29 8.29 0 0 1-1.33-1.66c-.54-.92-.54-.95-.12-.84.39.1.41.07.21-.32-.12-.24-.66-.94-1.19-1.56-.96-1.12-1.66-2.41-1.43-2.65.07-.07.25.04.41.22.27.33.28.33.17 0-.06-.2-.18-.51-.26-.7-.13-.33-.1-.32.42.02l.56.37-.36-.61c-.42-.71-.22-1.12.22-.48l.55.69c.36.39.4.8.11.98-.19.12-.11.33.35.82 1.11 1.21 2.29 2.73 2.29 2.95 0 .12.09.21.2.21s.2-.05.2-.11c0-.26-.62-1.29-.78-1.29-.3 0-.82-.97-.69-1.3.1-.25.19-.27.45-.07.18.13.01-.07-.38-.45a10.3 10.3 0 0 1-1.25-1.53 13.39 13.39 0 0 0-1.45-1.75c-.5-.5-.82-.91-.71-.91s-.06-.52-.38-1.15c-.6-1.2-1.07-2.86-.8-2.86.09 0 .35.25.59.55s.36.42.28.25c-.21-.41-.24-2.21-.03-2.21.09 0 .27.27.38.6s.29.6.39.6c.15 0-.37-1.25-1.02-2.43-.1-.18-.24-.67-.32-1.08-.17-.89.13-.82.63.14.17.33.36.56.41.51.06-.06-.04-.38-.21-.71-.18-.33-.32-.89-.32-1.24 0-.52.05-.59.28-.4.15.13.39.5.52.83.14.33.33.59.44.59s-.22-.77-.72-1.7c-.5-.94-.92-1.84-.92-2.01 0-.59.38-.29.99.8.6 1.05 1 1.52 1 1.17 0-.09-.19-.43-.41-.76C7 99.9 5.89 97.22 6.32 97.22c.11 0 .21.13.21.29s.27.58.6.94c.69.76.81.44.16-.44l-.43-.59.42-.39c.4-.37.4-.44.14-1.33-.15-.52-.27-1.31-.26-1.76.03-1.11-.21-2.73-.47-3.27-.16-.32-.15-.52.01-.72.18-.21.14-.36-.15-.62-.57-.52-.93-1.49-.65-1.77.17-.17.34-.12.68.18.25.22.9.71 1.45 1.07l1.08.73c.04.04-.08.43-.28.87-.38.85-.31 1.22.17.82.46-.38.52.02.13.82-.19.4-.3.81-.23.91.18.27.82.48.82.26 0-.37 2.19-2.06 2.51-1.93.27.1.28.18.07.44s-.21.35.03.5c.15.1.48.18.72.19.24 0 .49.09.56.2s-.07.2-.31.2c-.66 0-.35.49.36.56.68.07 1.34.64.9.79-.43.15-.27.4.4.64.44.16.57.28.39.39-.48.29-2.36-.13-3.85-.87l-1.49-.73.8.71c1.21 1.08 2.69 1.74 4.13 1.85 1.1.09 1.33.18 1.8.72.66.75.45 1.2-.46 1.01-.63-.13-.69-.04-.37.56.11.21.3.33.41.27.34-.21 1.15.09 1.38.51.18.34.15.4-.19.4-.27 0-.41-.13-.41-.4s-.13-.4-.39-.4-.35.1-.29.28c.06.15.01.34-.1.41-.36.22-.24.51.23.53.38.01.36.04-.14.19-.81.24-1.85-.03-3.4-.88-1.49-.82-1.69-.73-.45.21 1.93 1.46 4.13 1.99 5.45 1.31.85-.43 1.48-.31 1.48.29 0 .17.22.49.5.71.27.22.59.56.7.77.35.66-.1.59-.87-.14-.97-.91-1.39-.79-1.21.34l.13.82-1.06-.09c-.74-.07-1.2 0-1.52.2-.42.28-.55.25-1.8-.41-.74-.39-1.39-.66-1.45-.6s.02.19.19.29l1.1.68c2.17 1.37 4.57 2.3 5.99 2.31.75 0 1.77.89 1.63 1.42-.06.24.07.48.38.68.51.34.65.91.22.91-.14 0-.45-.18-.68-.39s-.58-.39-.79-.39c-.2 0-.76-.06-1.24-.14-.82-.13-.86-.12-.74.27.19.6-.08.66-.99.21-.44-.21-1.05-.43-1.36-.47s-.81-.23-1.1-.42l-.98-.64c-.96-.62-.38 0 1.1 1.18 2.14 1.71 3.26 2.18 5.16 2.18 1.42 0 1.57-.04 2.72-.81 1.13-.75 1.76-.89 1.76-.4 0 .11-.19.21-.43.21-.43 0-.43 0-.05.39 1.05 1.06 1.12 1.47.18 1.04-.68-.31-.69-.3-.64.22.05.46.04.46-.95.2-.34-.09-.33-.04.1.32l.5.43h-1.32c-2.46.02-6.9-1.81-8.71-3.58-.51-.5-.63-.56-.4-.21.38.57 1.93 1.87 3.53 2.94 1.26.85 3.68 1.81 5.01 1.99.8.11 3.02-.12 4.33-.45.32-.08.45-.02.45.21 0 .18-.23.38-.5.45-.71.18-.63.35.48.95.98.54 1.57 1.26.87 1.06l-.85-.23c-.28-.07-.7-.23-.95-.35-.63-.31-.84 0-.3.45.59.48.57.8-.05.8-.27 0-.5-.08-.5-.19s-.3-.14-.66-.08c-.45.07-.97-.04-1.62-.34-.74-.35-.99-.39-1.11-.2-.09.15-.32.2-.56.12-.22-.07-.46-.04-.53.06-.15.25-.82.06-2.72-.78-2.29-1.01-3.73-2.02-5.56-3.89l-1.78-1.72c-.13 0 .37.55 2.46 2.72 1.38 1.42 1.92 1.82 3.93 2.87 1.29.67 2.68 1.31 3.1 1.41l2.15.6c.77.22 2.3.46 3.39.53 1.1.07 2.26.23 2.58.35.66.25 2.26 1.67 2.09 1.84-.06.06-.38-.15-.69-.47-.57-.58-1.68-1.03-1.68-.69 0 .1.3.29.67.43.37.13.83.42 1.03.64.35.39.34.4-.07.4-.24 0-.43-.08-.43-.18 0-.25-1.13-.69-1.39-.53-.32.2-.25.91.08.91s.78.72.61 1.01c-.21.33-.51.22-1.16-.44-.51-.52-.65-.57-.7-.3-.09.47-.27.42-.86-.25-.35-.41-.6-.53-.79-.41-.19.11-.43.04-.72-.24-.64-.6-1.02-.26-.43.38l.46.51-.6-.14c-.33-.08-.74-.27-.91-.43-.18-.16-.47-.28-.66-.28-.4 0-4.36-1.95-5.81-2.87a40.89 40.89 0 0 1-4.39-3.33c-.68-.62-.72-.63-.3-.12.69.83 1.51 1.57 2.79 2.55l1.8 1.37c.85.65 2.97 1.75 6.69 3.46 4.34 2 4.41 2.02 6.57 1.9 1.78-.09 1.89-.08 2 .32.17.64.15.69-.32.76-.24.03-.47.17-.51.3-.05.15.08.2.33.13.31-.08.65.16 1.4.97 1 1.08 1.17 1.38.8 1.38-.26 0-1.74-.94-2.28-1.44-.42-.4-1.51-1.04-1.51-.89 0 .05.56.63 1.25 1.31 1.15 1.13 1.21 1.22.73 1.22-.28 0-.87-.25-1.3-.56l-1.58-1.03-.8-.47.69.73c.88.94.5.94-.8 0-1.09-.79-1.49-.83-.69-.08.28.26.5.54.5.64 0 .38-.95.12-1.6-.44-.81-.7-1.48-.85-.9-.2.46.52.11.52-.86.01-.41-.21-1.22-.57-1.8-.8a12.08 12.08 0 0 1-1.96-1.01c-.49-.34-.99-.61-1.11-.61s-.16-.14-.09-.31c.12-.32-.23-.72-1.61-1.79-.42-.33-1.22-1.11-1.77-1.74-.54-.63-1.18-1.2-1.4-1.27s-.82-.59-1.34-1.16c-1.44-1.59-1.34-.99.12.78.74.89 1.22 1.62 1.1 1.69-.21.13.17.58 2.05 2.35.61.58 1.24 1.05 1.39 1.05.28 0 1.59.74 1.77.99.06.08.46.34.91.59s.89.65 1 .89c.12.26.35.42.59.4.61-.06 2.27.55 2.86 1.04.29.24.75.49 1.03.56.28.06 1.26.35 2.19.63 1.05.32 2.17.51 2.94.51.72 0 1.26.09 1.26.21 0 .11.32.35.7.54.48.23.7.47.7.76 0 .24.22.64.5.9.27.26.46.51.42.55-.09.09-1.72-.75-2.51-1.29-.29-.19-.39-.22-.25-.06.38.43.29.64-.2.49-.45-.14-.45-.14-.07.29.38.42.38.43-.02.43a.97.97 0 0 1-.66-.3c-.14-.17-.33-.3-.44-.3s-.6-.32-1.1-.71c-.51-.39-.96-.66-1.01-.61s.23.43.63.83c.4.41.72.82.72.91 0 .3-.89.18-1.64-.22-.52-.28-.75-.33-.81-.15-.05.15-.31.01-.68-.36a7.89 7.89 0 0 0-1.25-.98q-.65-.38-.51.05c.07.23.06.42-.04.42-.23 0-1.28-.81-2.83-2.17-1.24-1.09-1.65-1.21-.68-.19.69.72.42.71-.83-.03-1.1-.65-1.96-1.42-3.86-3.49-.69-.76-1.29-1.34-1.34-1.3-.27.28 6.57 7.49 6.9 7.28.11-.07.19 0 .2.14 0 .15.36.53.8.86s1.4 1.21 2.12 1.97c.73.75 1.47 1.48 1.64 1.61.18.13.49.44.7.69s.3.45.2.44m-12.78-6.86c-.26 0-.64-.52-.49-.67s.66.23.66.49c0 .1-.08.18-.17.18m-2.06-1.76c-.86-.69-1.5-1.57-1.29-1.79.05-.05.71.5 1.46 1.22 1.47 1.41 1.36 1.78-.17.56M7.27 85.61c1.8 1.57 2.52 2.48 2.37 2.96-.07.22-.25.41-.4.41-.25 0-.51-.24-2.2-1.98-.33-.34-.75-.62-.94-.62-.34 0-1.16-1.52-1.16-2.14 0-.42.84.08 2.33 1.37M8 83.24c.2-.2 1.12.51 1.52 1.17.35.58.35.66.05 1.29s-.62.83-.9.55c-.07-.07-.02-.29.11-.49.18-.29.16-.45-.08-.73-.4-.47-.86-1.64-.7-1.8m2.33 5.95c.11 0 .2.13.2.3s-.09.3-.2.3-.2-.13-.2-.3.09-.3.2-.3m.92-2.08c.23-.07.52-.36.64-.63.3-.66.6-.63.55.06-.07.83-.5 1.55-.77 1.28-.16-.16-.35-.1-.68.21-.44.42-.46.42-.46.05 0-.52.21-.81.71-.96m2.7 3.7c-.12-.23-.14-.45-.04-.52.1-.06.23.09.29.33.15.59.02.69-.25.19m.2-5.64c-.36.19-.41.16-.41-.28 0-.32.14-.54.41-.63.49-.16.68-.02.52.39-.06.16-.3.39-.52.52m-2.28-1.9c.2-.22.39-.58.43-.8.03-.22.19-.69.36-1.04.25-.55.37-.63.84-.54 1.01.2 1.3.18 1.4-.1.06-.16 0-.22-.11-.15-.12.07-.27.04-.34-.07-.07-.12-.3-.21-.51-.21s-.39-.09-.39-.2a.2.2 0 0 1 .2-.2c.11 0 .2-.12.2-.27s.27-.67.6-1.15.6-1.02.6-1.19c0-.42.91-1.63 1.46-1.93.61-.34 1.01-.33.87.04-.15.38-.2.39 1.55-.2 2.07-.7 3.95-.69 5.54.03.65.29 1.17.65 1.17.8 0 .32-.1.34-.58.08-.5-.27-1.65-.37-2.12-.19-.38.15-.38.16.03.17.23 0 .57.19.76.39.33.37.32.41-.35 1.1s-.75.72-2.12.72-1.41-.02-1.21-.39c.11-.21.21-.44.21-.5 0-.22-.52-.11-.91.19-.33.26-.35.32-.09.5.27.18.27.23 0 .42-.22.16-.1.18.5.1 1-.14 1.49.11 1.11.58-.15.17-.37.32-.51.32s-.6.24-1.03.53c-.94.64-1.76.9-2.02.64s-1.25 0-1.25.34c0 .15-.18.32-.41.4-.23.07-.37.18-.31.24s.5-.03.99-.2c.52-.18.99-.24 1.16-.13.41.25-.04.61-.88.69-.74.07-1.74.61-1.74.95 0 .11.14.14.31.08.84-.32-.09.34-1.41 1-.82.41-1.69.96-1.93 1.22-.5.53-1.17.62-1.17.16 0-.4.66-1.68 1.13-2.2m13.81-2.93c-.35.35-.47.38-.62.16-.14-.22-.26-.17-.59.22l-.41.5.12-.73c.07-.44.03-.76-.09-.8s-.26-.39-.33-.79c-.1-.63-.06-.73.35-.85 1.23-.33 1.58-.1 1.86 1.21.11.51.05.73-.3 1.08m1.11-3.01c1.22 0 2.3.82 2.29 1.74 0 .34-.27.87-.7 1.36-.71.82-.96.77-.36-.08.3-.44.3-.48-.01-.66s-.31-.23-.03-.67c.17-.26.31-.57.31-.69 0-.43-.36-.18-.88.61-.3.45-.64.78-.77.74s-.25-.56-.28-1.22c-.04-1.08-.02-1.13.43-1.13m1.35-1.45c.25-.19.56-.35.7-.36.55-.01 2.14.67 2.62 1.11.29.27.65.48.8.48.31 0 .17-.23-.74-1.25-.43-.48-.45-.56-.16-.67.18-.07.55-.07.81 0 .3.08.52.03.58-.13.07-.18.38-.1 1.11.3 1.07.58 1.15.57.81-.07-.19-.35-.1-.44.7-.8l.91-.4.7.56c.39.31.7.66.7.77 0 .35-.45.69-.92.69-.25 0-.71.22-1.04.5-.32.27-.78.5-1.01.5s-.76.3-1.17.67c-.67.61-.86.67-1.85.65-.7-.02-1.22.07-1.45.26-.4.33-.45.18-.14-.39.14-.27.14-.39 0-.39-.11 0-.21.09-.21.2s-.14.2-.32.2c-.26 0-.3-.14-.18-.74.12-.66.11-.71-.19-.47-.28.23-.41.19-.92-.31l-.6-.58.46-.35zm5.24-17.59c-.23-4.89-.27-8.35-.11-8.59.1-.15.28-.21.42-.12.18.11.23 1.09.19 3.68-.03 1.94 0 4.03.08 4.64l.34 3.31c.12 1.21.35 2.81.51 3.55s.29 1.71.29 2.16-.07.81-.16.81c-.5 0-1.35-5.2-1.54-9.42m-.37-18.56c-.04-.42.04-.6.24-.6.42 0 .67 1.71.49 3.31-.08.72-.13 1.41-.11 1.54s-.05.29-.17.36-.21-.14-.22-.54a136.78 136.78 0 0 0-.23-4.07m-.15-7.32a.2.2 0 0 1 0-.4.2.2 0 0 1 0 .4m-.24 4.89c-.08-.12-.24-.89-.37-1.7-.12-.82-.3-1.84-.39-2.27-.19-.88-.11-1.11.34-1.11.24 0 .29.17.22.75-.05.41.04 1.18.19 1.71.28.96.29 3.05.01 2.62m-1.52-7.37c.04-.24-.02-.4-.76-2.11-.33-.77-.41-1.15-.26-1.3.28-.28.5.07.89 1.43.17.57.39 1.09.49 1.16s.14.25.08.41 0 .29.11.29.41-.43.65-.95c.63-1.42.73-1.69.88-2.46.18-.93.72-1.99.84-1.63.18.54-1.2 5.65-1.72 6.38-.18.25-.4.46-.48.46-.17 0-.77-1.36-.72-1.67m.21 5.75c-.08.05-.57-.1-1.09-.32-.88-.37-.95-.45-.96-1.12 0-.4-.13-1.07-.28-1.48-.22-.61-.22-.75 0-.75.42 0 2.22 2.25 2.36 2.95.07.35.06.68-.02.72m-2.7-1.57s-.33-.05-.68-.16c-.52-.16-.65-.32-.75-.92-.07-.4-.3-1.13-.5-1.63-.21-.5-.54-1.44-.74-2.1-.22-.76-.38-1.06-.44-.8-.04.21-.21.49-.38.62-.37.27-.16.69.35.69.41 0 .7.7.91 2.26.15 1.09-.12 1.25-.88.53-.36-.33-.4-.48-.21-.7.19-.23.08-.6-.51-1.84l-.97-2.04-.23-.49-.06.45c-.04.25.06.6.22.78.57.67 1.21 2.84.84 2.84s-1.49-.62-1.49-.81c0-.37-1.26-2.99-1.43-2.99-.09 0-.16-.12-.17-.25 0-.14-.32-.64-.7-1.13l-.69-.88v.61c0 .41.15.7.46.91.65.43 1.28 1.89.96 2.21-.26.26-.87-.34-1.92-1.86-.26-.38-.75-1.01-1.06-1.39-.54-.63-.61-.66-.91-.36-.45.45-.41.55.26.55.39 0 .72.17 1 .52.44.57.54 1.08.21 1.08a.2.2 0 0 0-.2.2c0 .11.18.2.4.2.26 0 .52.24.73.7.42.88.28 1.03-.56.59-.74-.38-1.23-.91-1.66-1.8-.16-.33-.54-.83-.85-1.1l-.55-.49.35.5c.46.67 1.07 1.97 1.24 2.66.21.88-.21.67-1.1-.54-1.08-1.47-2.22-2.14-1.42-.83.23.37.42.82.42.99 0 .73-.5.54-1.59-.58-.63-.65-1.58-1.49-2.12-1.86l-.97-.68.55.66c.66.78 1.4 2.2 1.24 2.36-.17.18-.86-.54-1.4-1.46-.51-.88-1-1.23-1.22-.87-.08.13-.29.06-.56-.18-.24-.21-.79-.6-1.23-.87l-.8-.48.45.58c.42.53.43.59.11.82-.35.26-.86.19-.86-.13 0-.1-.12-.18-.26-.18s-.49-.24-.75-.52c-.63-.68-1.3-.94-1.78-.68-.29.16-.6.06-1.39-.44-1.3-.81-1.05-.98 1.32-.87 1.01.04 2.05-.02 2.42-.15.53-.19.85-.16 1.75.15 1.18.4 1.52.31 1.14-.29-.35-.56.04-.7 1.01-.38.63.21.83.21.89.02.13-.4 1.34-.29 1.74.16.45.5.9.52.9.04 0-.6.21-.64.83-.18l.59.44.72-.96.68.42c.42.26.86.38 1.12.31.71-.19 1.33.07 2.57 1.08.77.62 1.05.78.82.45-.6-.85-.99-1.63-.87-1.75.06-.06.6.31 1.2.82s1.17.93 1.28.93.34.22.52.5.43.48.56.45.44.36.71.85c.26.5.82 1.26 1.24 1.7.82.88 1.1 1.43.8 1.61-.33.21-.21.5.31.7.55.21.7 1 .2 1-.47 0-.35.37.15.44.38.05.47.23.6 1.14.09.6.13 1.1.1 1.12m-.86.86c-.68-.02-1.89-.98-1.23-.98.17 0 .57.22.87.49.31.27.47.49.36.49m-6.29-1.78c-.11 0-.2-.1-.2-.21s.09-.16.2-.09.2.16.2.21-.09.09-.2.09m-.86-2.01c-.31-.33-.51-.6-.44-.6.25 0 1.08.64 1.18.91.18.47-.14.34-.74-.31m-.17 1.81c-.19 0-.39-.09-.46-.2-.15-.26.11-.26.5 0 .26.17.25.19-.04.2m-1.45-.27c-.51 0-.83-.29-.59-.53.15-.15.31-.1.55.16.28.31.29.38.05.38m-2.12-2.65c-.35-.38-.39-.5-.17-.5.3 0 .97.6.97.87s-.34.12-.8-.36m-1.9.49c-.22 0-.62-.18-.89-.39-.4-.31-.45-.43-.25-.64s.38-.13.89.39c.56.56.59.64.25.64m-3.44-1.54c-.43-.3-.66-1.47-.29-1.47.3 0 .64.48.64.9 0 .23.11.53.24.66.34.34-.06.28-.59-.1m-1.62-.65c-.42 0-1.12-.91-.85-1.09.2-.12 1.22.63 1.22.9 0 .1-.17.19-.37.19m15.15-11.43a.2.2 0 0 1 0 .4.2.2 0 0 1 0-.4m.31 5c-.06.1.11.45.39.78.27.33.5.7.5.82 0 .43-.37.21-.78-.45-.45-.73-.54-1.33-.21-1.33.12 0 .16.08.1.18m1.59.34c1.35 1.41 1.86 2.38 1.12 2.12-.31-.11-2.62-3.19-2.62-3.49 0-.12.68.5 1.5 1.37m-.41-1.97c.42.47.71.91.65.97-.17.17-1.74-1.33-1.74-1.67 0-.42.22-.28 1.09.7m-.67-5.62c.12.12.18.32.14.46-.06.17-.16.14-.35-.09-.31-.38-.12-.71.21-.37m.46 2.31c.2-.2.72.52.6.83-.05.13.09.43.31.67s.41.52.41.63-.08.24-.17.3c-.22.14-1.35-2.24-1.15-2.43m.63-1.2c.07.07.08.23.04.38-.07.2-.11.2-.24 0-.17-.27 0-.58.2-.38m1.53 4.69c.29.5.33.73.15 1.05-.12.23-.29.41-.39.41-.18 0-.51-.77-.71-1.67-.1-.47-.06-.56.23-.5.19.04.51.36.72.71m7.34 9.93c0-.35.35-.69.48-.47.08.12.08.31.01.42-.14.23-.5.27-.49.05m-5.92-8.17c.29-.74.72-4.22.61-4.83-.15-.81.15-.9.49-.14.18.39.3.47.47.3.29-.29.75.06.75.58 0 .34-.8.98-.8.64 0-.09-.09-.02-.19.14-.11.16-.19.62-.2 1.01 0 .4-.15 1.2-.32 1.8s-.4 1.17-.49 1.27c-.23.24-.47-.38-.31-.79m-1.27-2.77c-.21-.55-.18-3.72.03-3.72.08 0 .33.27.57.61.34.49.49.57.71.38s.28-.17.28.09c0 .18-.09.33-.19.33s-.25.43-.33.95-.22 1.15-.31 1.4c-.22.59-.54.57-.77-.04m.46 4.93c-.33-.96-.33-1.03.14-1.03.38 0 .6.48.56 1.2 0 .17.05.5.13.75.32 1.01-.45.14-.82-.92m-1.26 1.3c.22-.22 1.46.62 1.52 1.03.04.25 0 .45-.09.45-.21 0-1.53-1.37-1.42-1.48m2.38 3.82c.22.47.4.9.4.96 0 .51-1.69-1.05-3.05-2.8-.81-1.05-1.04-1.78-.4-1.28 1.57 1.23 2.7 2.4 3.04 3.12m3.63-7.35c-.11.33-.25.6-.3.6s-.04-.71.02-1.57c.07-1.06.03-1.62-.12-1.72-.14-.08-.23 0-.24.22 0 .2-.05.53-.08.73-.04.2-.17 1.01-.3 1.8-.24 1.52-.67 3.28-1.03 4.19-.12.3-.29.55-.37.55-.42 0-.34-1.12.2-2.93.33-1.09.6-2.26.6-2.61 0-1.21.25-1.89.84-2.31l.59-.42.11.42c.06.24.27.42.48.42.43 0 .51.59.14.96-.19.19-.17.24.08.24.23 0 .34.28.43 1.05.15 1.26 0 1.95-.41 1.95-.24 0-.29-.21-.21-1.1.1-1.21-.08-1.43-.41-.5m-5.71-9.17c.1-.5.2-.61.5-.51.71.23 1.17-.08 1.17-.79 0-.67.36-1.11 1.42-1.77.29-.18.81-.76 1.16-1.28.43-.65.77-.96 1.07-.97.27 0 .61-.27.91-.71s.64-.7.91-.71c.31 0 .45-.15.5-.5.08-.56.34-.79.93-.8.22 0 .67-.37 1-.8.75-.98 1.1-1.02 1.1-.13 0 .41.15.81.4 1.03.25.23.4.62.4 1.05 0 .55.07.67.32.57.56-.21.65.06.35 1.2-.26 1.01-.26 1.16.01 1.47.17.19.27.39.21.45s0 .37.13.68c.31.74.42 4.22.16 4.72-.15.28-.14.37.04.33.3-.07.53.68.56 1.79 0 .47.13.87.27.92.2.07.2.14 0 .38-.17.21-.18.36-.03.51s.12.4-.1.83c-.41.8-.4.94.08 1.15.39.17.37.24-.42 1.58-.63 1.08-.77 1.48-.61 1.73.24.4-.61 1.88-1.39 2.41-.48.33-.48.33-.08.64.22.17.6.31.85.32.25 0 .45.08.45.18s-.77 1.01-1.71 2.03-1.66 1.97-1.61 2.11c.06.14-.19.6-.54 1.02-.8.96-1.73 2.4-1.73 2.67 0 .35.36.23.69-.24.46-.66.38-.28-.26 1.21-.32.73-.61 1.45-.65 1.6-.16.54-.37-.07-.36-1.05 0-1.03.13-1.79.59-3.62.43-1.7.59-1.98 1.61-2.79s1.21-1.12.69-1.12c-.17 0-.3-.13-.3-.29s-.19-.4-.42-.52c-.41-.22-.4-.24.33-.85 1.02-.84 2.28-2.13 2.28-2.33 0-.09-.15-.28-.32-.43-.27-.23-.36-.22-.57.07-.14.19-.21.55-.17.79.06.34-.09.57-.59.9-.37.25-.82.45-1.02.45-.29 0-.32-.12-.21-.75.08-.41.28-.83.46-.93.17-.1 1.07-.92 1.99-1.84 1.63-1.62 1.66-1.66 1.3-2.05-.33-.35-.39-.36-.62-.08-.17.21-.18.38-.05.51.33.34.23.52-.3.52-.3 0-.5.12-.5.29 0 .43-.9 1.4-1.14 1.25-.12-.07-.17-.31-.11-.53s0-.4-.12-.4-.22.32-.22.7c0 .89-.21.88-.64-.05-.41-.88-.29-1.08 1.03-1.75.9-.46 3.09-2.49 2.9-2.68-.06-.06-.36.15-.67.45-.36.35-.62.47-.71.34-.08-.12-.09-.3-.02-.4.06-.1.02-.24-.09-.32-.23-.14-.36.13-.46 1-.07.59-.42.87-1.44 1.18-.33.1-.44-.02-.65-.68-.29-.93-.32-1.4-.08-1.4.21 0 3.22-2.43 3.64-2.94.7-.85.59-.92-.24-.15-1.43 1.33-2.2 1.9-2.4 1.77-.1-.06-.16-.23-.13-.35.03-.13-.04-.26-.15-.29s-.23.18-.26.47c-.09.69-.51.82-1.03.3-.23-.24-.5-.38-.6-.31-.28.18-.45-.26-.31-.86.09-.42.38-.67 1.26-1.08.67-.31 1.38-.85 1.72-1.29.6-.76.54-.75-.66.07-.37.25-.93.46-1.23.46-.53 0-.55-.04-.5-.85l.08-1.08c.02-.13.47-.51 1.01-.86s1.01-.7 1.05-.78.33-.35.66-.61c.59-.46.59-.47.1-.4a1.6 1.6 0 0 0-.85.5c-.19.24-.63.53-.97.65l-.62.22.14-.93c.19-1.27.7-2.27 1.23-2.4.41-.1 1.16-.8 1.56-1.45.11-.19-.03-.17-.48.07-.35.18-.8.29-1 .24-.24-.06-.43.07-.57.38-.3.66-.58.59-.8-.18l-.19-.65-.02.74c0 .5.09.8.32.93.31.17.3.3-.13 1.62-.35 1.08-.54 1.42-.78 1.37-.22-.05-.31-.25-.28-.66.08-1.17.08-1.4-.05-2.05-.14-.69-.22-.75-.66-.47-.37.23.07 2.9.61 3.69.31.45.36.74.25 1.5-.07.52-.25 1.24-.4 1.59-.14.36-.23.91-.19 1.23.07.54.03.59-.56.59-.54 0-.69-.12-.98-.73-.33-.71-.29-1.63.07-1.63.1 0 .39.13.63.29.45.3.45.29.48-.94s.03-1.24-.31-.73c-.47.71-.84.51-.84-.44 0-.54-.09-.79-.29-.79a.49.49 0 0 1-.4-.25c-.19-.43.1 1.13.32 1.72.16.41.16.62 0 .79-.13.12-.23.43-.23.69 0 .57-.2.59-.64.07-.23-.27-.3-.62-.24-1.15.08-.65.06-.69-.11-.3-.24.56-.6.49-.97-.18-.26-.47-.26-.47-.18.19.09.7-.35 1.13-.65.64-.09-.14-.39-.25-.68-.25-.44 0-.52-.09-.52-.55a7.21 7.21 0 0 1 .13-1.18m11.97 18.38c.42-.52 1.4-1.07 1.58-.89.13.13 1.6-.97 2.54-1.93.82-.83 1.14-.4.37.49-.33.37-.87 1.13-1.21 1.7-.34.56-.85 1.12-1.14 1.25-.38.18-.48.34-.39.63.18.57-.4 1.58-1.51 2.65-.91.87-1.21 1.37-.82 1.37.09 0 .38-.23.64-.5.68-.73.96-.33.5.7-.3.67-.46.81-.93.81-.8 0-.88-.02-.82-.21.03-.1.09-.67.14-1.29.11-1.34.24-1.62.63-1.3.37.31.8-.04.94-.74.12-.64-.29-.83-1.02-.47-.93.47-1.06.61-.82.91.3.37.09.63-.65.79-.64.14-2.1 1.42-1.88 1.65.07.07.26-.07.43-.31.32-.45 1.28-1.04 1.7-1.04.4 0 .05 1.45-.43 1.82-.37.28-.39.34-.11.45.42.16.2.74-.28.74-.2 0-.42.09-.49.2-.19.3-.5.24-.5-.1 0-.17-.09-.3-.2-.3-.38 0-.2-.41.26-.58.5-.19 1.06-.77.9-.93-.23-.23-1.1.39-1.45 1.03-.74 1.38-1 .46-.28-.97a10.72 10.72 0 0 1 1.05-1.63 13.87 13.87 0 0 0 1.22-1.9c.35-.65.82-1.22 1.14-1.37.3-.14.7-.46.9-.7m7.62-4.69c.24.08.72-.17 1.39-.71.62-.49 1.15-.78 1.34-.71.17.07.47.01.69-.12.21-.13.44-.18.51-.11.18.18-.86 1.9-1.43 2.34-.28.22-.44.5-.37.68.13.33-1.26 3.15-1.55 3.15-.1 0-.12.09-.06.2.07.11-.07.49-.32.83-.41.58-.47.6-.7.28-.24-.33-.29-.32-.85.08-.77.55-.86.54-.56-.13.62-1.4.93-1.77 1.81-2.16.5-.22.92-.52.92-.67 0-.16-.12-.23-.3-.15l-.6.24c-.67.27-.24-.37.45-.67.65-.29.69-.34.3-.4-.61-.1-.57-.43.16-1.23.33-.37.56-.72.5-.78-.17-.17-.88.56-1.55 1.59-.34.52-.73.99-.88 1.05a.29.29 0 0 0-.16.38c.06.15-.04.39-.2.53-.17.14-.31.34-.31.44s-.19.45-.43.77c-.41.56-.77.63-.77.16 0-.12.06-.17.13-.1.18.18.9-.68.81-.95-.04-.12-.33-.21-.66-.21-.45 0-.59.1-.64.45-.07.44-.76.99-.98.77-.06-.06.13-.41.42-.77s.85-1.13 1.24-1.7c.96-1.41 2.21-2.52 2.66-2.37m6.15-2.57c.47-.17.85-.25.85-.19s-.23.39-.5.74c-.28.35-.93 1.2-1.45 1.91-.58.78-1.19 1.38-1.59 1.54-.76.31-.89.06-.15-.28.49-.23.68-.64.3-.64-.8 0 1.4-2.67 2.54-3.08m-2.87 5.36c-.08.21-.36.32-.85.31h-.73l.56-.5c.84-.74 1.34-.65 1.01.19m.87 4.59c.07.07-.03.31-.23.53-.37.42-.7.53-.7.23 0-.27.79-.91.93-.77m1.06-2.13c.48-.47.8-.66.8-.48 0 .16-.25.51-.55.78-1.27 1.14-1.47.89-.25-.3m.89-2.23c.35-.39.7-.7.78-.7.3 0 .11.41-.41.89-.82.76-1.1.61-.36-.19m-3.82 3.12c-.29.11-.75.38-1.02.6-.54.42-.71.47-.92.26-.25-.25-.13-.62.48-1.39.37-.46.52-.81.39-.85-.33-.11.58-1.03 1.02-1.03.19 0 .41.19.48.41.17.53 0 .71-.39.4-.37-.31-.74-.11-.58.31.08.21.27.27.59.19.4-.1.47-.05.47.39 0 .36-.15.57-.52.71m-1.87 3.39c-.12.22-.35.4-.51.4-.24 0-.26-.08-.08-.4.12-.22.35-.4.51-.4.24 0 .25.08.08.4m-3.79-3c0-.11.09-.2.21-.2s.15.09.09.2c-.07.11-.16.2-.21.2s-.09-.09-.09-.2m-1.6-.51c0-.32.53-.63.73-.42.07.07 0 .26-.13.43-.32.39-.6.39-.6 0m1.09.3c.52 0 .34.34-.4.78-.81.48-.82.48-.97.25-.13-.21.96-1.03 1.37-1.03m2.23 1.94c-.16-.07-.41.03-.56.21-.14.18-.89.61-1.66.96-1.91.87-2.37 1.01-2.26.67.05-.15.33-.39.62-.53.58-.29.71-.64.23-.64s-.35-.32.32-.88c.78-.66 1.34-.67 1.58-.02.25.67.48.63.7-.14.14-.47.43-.76 1.09-1.1 1.15-.58 1.19-.58 1.19.1s-.82 1.55-1.27 1.38m.62 1.74c-.07.17-.27.31-.46.31-.31 0-.31-.04.03-.4.4-.44.61-.39.43.09m-2.08.58a29.17 29.17 0 0 0-1 .25c-.25.07-.45.07-.45 0 0-.15 1.35-.73 1.72-.73.49 0 .29.35-.28.47m-8.74 35.7c.07-.18.12-.42.12-.55 0-.31.39.29.39.62 0 .14-.14.25-.32.25-.21 0-.28-.11-.2-.32m1.57 13.57c-.14.14-1.88-.18-3.24-.61-.39-.12-.79-.21-.9-.21-.35.01.56.59.92.59.19 0 .39.07.44.15s-.18.15-.51.15c-.69 0-2.09-.67-3.13-1.49-.39-.31-.89-.62-1.11-.69s-.51-.3-.65-.52c-.21-.34-.2-.38.1-.27.19.07.57.27.85.44 1.53.98 2.47 1.31 3.67 1.29 2.45-.04 2.51-.05 2.39-.37-.07-.18 0-.3.18-.3.34 0 1.21 1.62.98 1.83m-.53 1.26c-.44-.25-.89-.5-1-.54s-.14-.13-.08-.21c.16-.17.95.16 1.57.66.73.58.43.63-.49.09m.5 2.33a.2.2 0 0 1 .4 0 .2.2 0 0 1-.4 0m-.74-.72c.08-.08.25-.04.38.08.3.3.13.47-.24.24-.16-.1-.22-.24-.14-.33m-2.05-.14c.05-.05.32.03.59.18.29.16.37.28.2.28-.36 0-.93-.33-.79-.46m-2.45-1.77c.21-.21 1.24.34 1.24.66 0 .23-.18.2-.87-.17-.37-.2-.5-.37-.37-.5m5.88 2.94c.16-.16.81.54 1.27 1.38.17.31.28.76.24 1-.06.37-.14.31-.51-.4-.24-.47-.44-.98-.44-1.15s-.16-.38-.35-.49-.28-.26-.2-.34m.34 6.2s-.52.05-1.15.07c-1.44.04-2.2-.24-2.28-.81-.05-.33-.23-.46-.74-.54-.53-.08-.73-.23-.9-.7-.37-1.02-.72-1.51-1.23-1.71-.32-.12-.49-.34-.49-.66 0-.25-.22-.77-.5-1.14s-.5-.82-.5-.99-.13-.55-.28-.85c-.16-.29-.23-.58-.17-.64.23-.23 3.5 1.84 3.33 2.11-.06.1.05.18.23.18.58 0 3.33 2.99 4.03 4.38l.64 1.31m-5.05-14.41c.56.16 1.57.3 2.22.3 1.23 0 1.48.14 1.73.95.17.57-.14.57-1.79.04-.67-.22-1.64-.38-2.19-.35-1.06.04-1.81-.13-2.3-.53-.17-.13-.68-.35-1.14-.48-.77-.22-1.21-.54-1.02-.73.11-.11 3.27.46 4.49.81m.87-.36c-.38 0-.54-.04-.35-.09s.51-.05.7 0 .03.09-.35.09m.32-2.03c-.46-.07-.62-.3-.29-.43.72-.27 2.02.67 2.42 1.75.1.28.02.35-.41.34-.3 0-.77-.11-1.04-.24-.27-.12-1.22-.28-2.1-.34-1.47-.1-1.6-.15-1.66-.56-.08-.54-.02-.54 2.05-.15 1.04.2 1.65.24 1.78.11.2-.2-.1-.39-.75-.49m-11.3 1.43c.57-.15.5.29-.16.92-.31.3-.6.54-.66.54-.29 0-.31-.28-.06-.75.27-.51.23-.85-.1-.85-.09 0-.22.2-.28.45-.09.33-.18.39-.34.22-.17-.17-.13-.5.17-1.29.5-1.36.93-1.65 1.46-1.01.48.59.48.73-.01 1.23-.22.22-.4.46-.4.53s.18.08.4.02m-2.98.96c.2.06.36.02.36-.1s.09-.21.2-.21c.28 0 .24.64-.08 1.05-.33.43-.52.45-.52.05 0-.37-.23-.39-.57-.05-.21.21-.21.15 0-.3.18-.4.35-.52.61-.44m1.16 1.27c0 .1-.14.23-.3.29-.18.07-.3 0-.3-.18 0-.16.13-.29.3-.29s.3.08.3.18m-.03-2.76c-.09.63-1.09.9-1.36.37-.16-.3-.11-.42.25-.62a2.48 2.48 0 0 0 .69-.56c.21-.29.25-.29.37.02a1.85 1.85 0 0 1 .06.79m12.2 28.83c0 .22-.09.4-.2.4s-.2-.18-.2-.4.09-.4.2-.4.2.18.2.4m-.27-.96c-.06-.09-.14-1.01-.19-2.06-.05-1.04-.2-2.14-.34-2.45-.19-.41-.19-.62-.04-.78.26-.26.62.51 1.38 2.94.27.88.58 1.81.68 2.06a2.82 2.82 0 0 1 .18.86c0 .22-.09.39-.19.39-.2 0-.35-.46-.45-1.41-.07-.67-.44-.64-.52.05-.06.53-.31.72-.51.39m-1.12 15.2c.22.12.4.3.4.41 0 .27-.12.24-.49-.12-.43-.43-.39-.55.09-.29m-2.07-24.11l-.29.56-.13-.54c-.17-.67-.07-1.21.23-1.31.13-.04.29.1.36.33.07.22 0 .66-.16.96m.89 3.6c0-1.21.28-1.92.44-1.13.3 1.46.31 1.87.04 2.37-.16.29-.33.75-.39 1.03-.06.27-.24.68-.41.9-.29.38-.3.36-.31-.4 0-.44.13-1.01.31-1.26.19-.27.31-.87.31-1.51m-.13-2.18c-.08.19-.18.66-.21 1.03-.07.82-.4 1.25-.59.75-.07-.19-.07-.58 0-.89l.25-1.1c.06-.31.19-.6.29-.67.26-.16.45.45.26.87M23.1 90.98c.3 0 .79.82.67 1.13-.13.34-.31.35-.62.04-.28-.28-.32-1.16-.05-1.16m-2.32-.25c-.06.24-.19.44-.29.44-.25 0-.22-.75.04-.91.31-.19.39-.04.25.47m.42 2.38c-.32.12-.51-.45-.36-1.06.15-.59.55-.52.64.11a1.77 1.77 0 0 0 .47.85c.29.29.37.55.27.94-.07.29-.2.61-.29.7-.27.28-.67-.43-.57-1.04.05-.39 0-.55-.15-.49m-3.2-7.56c-.17 0-.26-.09-.19-.2s.21-.2.31-.2.19.09.19.2-.14.2-.31.2m-.29 2.21c.22 0 .4.13.4.3 0 .3-.42.41-.66.17-.25-.26-.13-.47.27-.47m-.28 1.03c.2.04.4.27.43.52.04.25.15.45.25.45s.18.13.18.29c0 .83-.74.25-1.09-.86-.12-.39-.08-.46.22-.4m1.88-4.24a.2.2 0 0 1-.4 0 .2.2 0 0 1 .4 0m-.9-.36c-.18-.03-.57.09-.85.28-.49.32-.51.32-.36-.04a23.79 23.79 0 0 0 .49-1.35c.5-1.46 1.82-2.33 1.8-1.18-.02.92-.7 2.36-1.08 2.29m-2.3 5.37a.2.2 0 0 1-.4 0 .2.2 0 0 1 .4 0m-.31-2.05c-.17.25-.49.45-.72.45-.33 0-.38-.09-.28-.45l.4-1.52c.27-1.07.95-2.04 1.44-2.04.36 0 .33.2-.13 1.23-.22.48-.4 1.1-.4 1.38s-.14.7-.32.95m.27 5.62c-.21.18-.31 0-.5-.91-.22-1.05-.21-1.16.17-1.51.41-.38.41-.38.27.34-.13.69.15 1.04.38.47.05-.14.11 0 .12.3 0 .3.11.55.22.55.4 0 .56.88.27 1.45-.16.3-.42.55-.57.55-.35 0-.38-.28-.08-.83.26-.48.1-.72-.27-.41m5.43 10.95c0 .35-.12.4-.29.13a.23.23 0 0 1 .09-.31c.11-.07.2.01.2.19m2.14.54c-.7-.72-.74-.83-.77-2.15-.02-1.34-.03-1.36-.23-.64-.19.67-.74 1.07-.74.54 0-.12-.4-.59-.88-1.05a6.86 6.86 0 0 1-2.01-3.9c-.13-.98-.51-1.31-.51-.44 0 .22-.09.39-.2.39s-.2-.12-.2-.26-.32-.65-.72-1.12c-.65-.76-.7-.9-.49-1.36.17-.38.3-.45.48-.3.14.12.43.2.65.18.36-.03.38-.16.32-1.7-.07-1.59.11-2.26.58-2.26.34 0 .4.81.1 1.38-.4.77-.4 1.25 0 1.09.17-.06.3-.24.3-.39s.09-.28.2-.28.2.36.2.8c0 .55.09.8.27.8.34 0 .53.87.53 2.53 0 1 .06 1.28.3 1.28.2 0 .3.2.3.62 0 .5.05.58.27.4.28-.24.75.13.99.78.18.49.14-.83-.06-1.8-.1-.5-.13-1.48-.06-2.18l.12-1.28.31.58c.39.73.88 2.57.93 3.48.02.39.1.84.18 1.01.07.17 0 .7-.17 1.18-.38 1.07-.39.98.14 1.05.37.05.47.24.6 1.07.09.55.23 1.39.33 1.85.21 1.09-.05 1.11-1.03.09m-.62 2.6c-.49-.19-1.35-1.11-1.35-1.46 0-.1.17-.09.37.02.48.26.67.07.41-.42-.28-.52.06-.47.42.06.16.24.55.73.86 1.1.39.46.53.79.44 1.07-.08.27-.3.41-.64.41-.43 0-.47-.05-.26-.3.2-.25.16-.33-.25-.49m7.84 13.34c0 .22-.38.02-.48-.26-.1-.27-.07-.29.18-.07.17.14.31.29.31.33m-.53-3.02c-.5-1.1-.54-1.93-.16-3.79.08-.37.05-.53-.09-.45-.11.07-.26.4-.33.72-.26 1.19-.7 1-1.58-.68-.4-.76-.52-1.27-.52-2.3 0-1.64-.19-2.85-.42-2.71-.1.06-.18.46-.18.9 0 .86-.29 1.05-.51.34-.08-.25-.29-.67-.46-.94-.52-.8-.82-1.79-1.13-3.8-.32-2.08-.39-5.07-.12-5.59.09-.19.23-.73.31-1.22.12-.81.11-.86-.19-.61-.31.25-.32.21-.19-.57.11-.67.08-.87-.17-.97-.48-.19-.57-.8-.22-1.49.18-.35.28-.67.23-.73s-.2.09-.32.32c-.34.64-.61.5-.6-.33 0-.87.25-1.37.57-1.16.12.07.18.21.13.3-.06.09.13.42.41.74.35.4.48.75.43 1.14-.04.31 0 .61.09.66.09.06.17.38.17.72s.1.97.23 1.4c.18.58.18.84 0 1-.17.17-.12.38.19.81.3.43.38.75.28 1.24-.09.48-.03.74.2.93.36.3.26 1.28-.23 2.23-.21.41-.22.58-.04.69.13.08.27.04.32-.09.14-.42.45-.25.45.23 0 .26-.18.63-.4.83s-.4.53-.4.73c0 .46.18.47.52.02.25-.33.28-.32.4.1.25.89.48.42.5-1v-1.61c-.01-.09.1-.45.26-.8.39-.88.52-1.54.31-1.54-.1 0-.18.09-.18.2s-.1.2-.23.2c-.23 0-.13-1.16.16-1.92.09-.24.06-.31-.1-.21-.38.23-.52-.47-.25-1.22.14-.38.18-.75.1-.83-.08-.07-.18-.02-.23.12-.15.42-.45.06-.45-.55 0-1.16.62-1.68.91-.76.08.24.26.56.41.71s.27.43.27.62.11.46.24.59c.18.19.16.24-.09.24-.28 0-.3.09-.12.6.14.42.14.79 0 1.21-.12.33-.14.56-.04.5.09-.06.28.03.41.18.19.23.13.52-.29 1.43-.35.74-.47 1.2-.34 1.33s.24.05.33-.22c.08-.23.21-.42.31-.42.53 0 .58 1.24.09 2.62-.16.46-.29 1.03-.28 1.26 0 .42.02.42.19-.02.1-.25.27-.45.39-.45.28 0 .27 1.67-.01 1.94-.16.16-.13.35.09.7.28.42.28.54.02 1.05-.39.76-.37.88.15.96.34.05.48.24.57.76.1.55.13.59.16.2.2-2.94.31-3.76.54-4.1.15-.22.28-.53.28-.7s.22-.52.49-.77l.49-.47.13.52c.07.29.07.77 0 1.07-.2.91-.27 2.28-.09 2.01.11-.18.16-.11.17.2 0 .25-.12.45-.27.45s-.36.22-.49.48c-.18.4-.16.51.12.61.18.07.36.03.4-.08.04-.12.15-.21.25-.21.28 0 .22 1.26-.08 1.71-.52.77-.53 1.25-.01 1.38.44.11.69.52.31.52-.19 0-1.23 1.54-1.23 1.82 0 .4.4.15.7-.42.17-.33.4-.6.5-.6.25 0 .24.14-.05.67-.14.24-.35.83-.48 1.31-.21.8-.19.89.15.98.41.11.44.27.25 1.23-.16.81-.39.79-.67-.06-.12-.38-.36-.73-.52-.8-.16-.06-.52-.61-.8-1.21m4.49 11.92c0-.3.03-.3.34.01.36.36.32.55-.09.4-.14-.05-.25-.24-.25-.42m-.24-.72c-.1.1-.96-.76-.96-.97 0-.31.41-.1.72.37.18.28.29.55.24.6m-2.38 1.29a.42.42 0 0 1 .32.2c.07.11.03.2-.08.2s-.25-.09-.32-.2-.03-.2.08-.2m-5.53 2.55c-.45.03-.91-.41-.79-.77.05-.14.29-.05.64.25.51.44.52.49.15.51m8.4.81c.14.09.38.33.54.53.32.41.33.41-2.04-.74-.64-.31-1.22-.51-1.28-.45-.06.07.28.48.76.93.87.8.87.81.28.68-.33-.07-.82-.27-1.08-.45-.69-.47-.88-.58-1.22-.71-.17-.06-.52-.27-.8-.46l-.5-.35.4.49c.61.74.76.89 1.29 1.26 1.05.73-.15.31-1.7-.58l-2.44-1.42c-.47-.27-.96-.64-1.1-.83-.14-.18-.45-.44-.69-.58-.43-.24-.43-.24-.1.34.44.77.2.96-.5.41-.77-.61-2.53-2.61-2.4-2.73.2-.2 1.51.49 1.74.92.13.25.35.39.52.32.16-.06.89.1 1.63.37.74.26 1.72.54 2.16.61.45.07 1.53.35 2.4.62s1.86.49 2.21.49.69.09.77.21c.08.14.21.14.36.01.13-.11.68-.22 1.22-.26.98-.07.99-.06 1.27.69.36.94.2 1.12-.62.71-.92-.46-1.34-.58-1.34-.36 0 .1.11.25.25.34m2.21-6.16c.16.26.12.53-.18 1.11-.22.42-.49.8-.61.84-.44.14-.47-.36-.07-.93.56-.79.52-.99-.08-.43-.42.4-.54.43-.81.2-.48-.4-.96-1.43-.73-1.57.11-.07.25-.53.32-1.03.09-.68.08-.79-.07-.45-.27.63-.81.59-.81-.06 0-.28.1-.7.22-.92.29-.54.05-.74-.3-.26-.16.21-.32.34-.37.29-1.03-1.26-1.34-1.96-1.26-2.81.05-.5.14-1.84.21-2.99s.16-2.15.2-2.22c.11-.18.28-1.68.39-3.49.06-1.03.19-1.69.39-1.88.26-.26.31-.21.43.44.08.41.08 1.19 0 1.73-.08.56-.05.99.05.99s.23.18.29.41c.15.56-.22 3-.49 3.34-.12.15-.16.34-.08.42s.27-.03.42-.24c.16-.21.34-.33.41-.26.19.19-.32 2.1-.64 2.36-.36.3-.36.59 0 .59.15 0 .33-.15.41-.33.1-.26.18-.28.37-.09.18.18.18.28 0 .39-.13.08-.29.39-.37.68-.07.3-.3.6-.51.67-.44.14-.52.69-.1.69.16 0 .46-.24.67-.54l.39-.54.14.45c.09.28.02.63-.18.94-.19.29-.23.49-.1.49.12 0 .17.16.11.35a.91.91 0 0 0 .08.65c.11.16.21.21.22.1.02-.11.06-.46.09-.77.04-.32.17-1.25.3-2.08.12-.83.2-2.46.17-3.63s.01-2.34.1-2.59c.11-.33.06-.58-.18-.84-.24-.27-.32-.65-.28-1.34.04-.53-.05-1.17-.19-1.42s-.23-.75-.19-1.1c.05-.49.17-.66.51-.71.26-.04.45-.21.46-.4.01-.64.42.33.64 1.54.26 1.43.23 4.84-.04 5.11-.27.26-.27 1.33 0 1.33.11 0 .2-.19.2-.41 0-.25.09-.36.22-.28.33.2.03 1.89-.45 2.56-.49.69-.29 1.03.21.36.28-.37.38-.41.47-.18a.76.76 0 0 1-.06.57c-.1.16-.18.45-.18.66s-.16.49-.35.63-.28.33-.2.41.26.04.39-.08c.75-.75.64.71-.16 2.08-.53.9-.58 1.09-.3 1.09.1 0 .29-.32.42-.7.13-.39.32-.7.43-.7s.14.15.06.35a8.24 8.24 0 0 0-.25.75c-.06.22-.17.49-.26.6-.08.11-.3.56-.48.99l-.33.79.7-.79c.67-.76.7-.77.71-.29 0 .28-.08.63-.18.78-.11.17-.09.42.04.63m2.54-11.77l-.6.12v-1.36c0-1.79-.48-3.44-1-3.44-.21 0-.44.1-.52.23s-.34-.73-.58-1.89c-.47-2.32-.72-2.8-1.37-2.64-.38.09-.49-.08-.99-1.46-.31-.85-.71-1.86-.89-2.23-.38-.78-1.21-1.49-1.57-1.35-.35.14-.46-.08-.89-1.86-.46-1.86-.91-2.53-1.68-2.54-.49 0-.66-.19-1.29-1.35-.93-1.72-1.54-2.38-2.14-2.3-.38.05-.58-.17-1.2-1.27-.83-1.47-2.45-3.02-3.12-2.97-.93.07-1.12-.03-1.43-.75-.17-.41-.53-1.04-.81-1.41-.53-.7-.51-1.08.07-.93.22.06.66-.22 1.21-.76.77-.76.9-.83 1.26-.6.46.28.75.13 1.47-.77.96-1.2 1.28-1.39 1.96-1.15.76.26 1.85 1.05 2.49 1.8.47.55 1.66 1.42 2.68 1.94.3.16.55.36.55.45 0 .25-.97.19-2.19-.13-.91-.24-1.14-.25-1.36-.03s-.18.36.2.85c1.22 1.53 2.16 3.21 2.16 3.85 0 .21.22.58.5.85.27.26.5.64.5.84 0 .24.25.48.71.68l.71.3-.44.36c-.48.39-.38.83.19.83.19 0 .57.22.82.5.26.27.58.5.7.5s.41.19.61.42c.55.61 1.36.98 2.15.98 1.24 0 2.22.64 3.01 1.98.3.51.69 4.8.81 9.04l.22 5.46c.06.99.03 1.55-.1 1.55-.11 0-.21-.1-.21-.22 0-.14-.22-.18-.6-.11m.2 7.94c-.11 0-.2-.19-.2-.42s.09-.35.2-.29c.11.07.2.25.2.41s-.09.29-.2.29m.09.45c.05-.06.15.05.23.24.07.19.08.38.03.44-.06.06-.16-.05-.23-.24s-.08-.38-.03-.44m-1.74-43.93c.21 0 .27.22.22.86-.06.75-.01.86.38.91.34.05.45.2.45.63 0 .6.41.9.97.72.45-.15 1.24-2.17 1.45-3.72l.3-2.22c.07-.54.03-1.1-.1-1.34-.31-.59.02-.72.89-.35.4.17 1.02.31 1.38.31.49 0 .74.13 1 .55a6.42 6.42 0 0 0 .72.91c.49.48.69 1.32.4 1.78-.13.2-.23.63-.23.96 0 .87-1.18 4.43-1.7 5.13-.24.33-.51.81-.58 1.05s-.23.45-.33.45c-.27 0-.25-.07.49-1.44.37-.69.74-1.53.81-1.86.08-.33.32-1.2.54-1.94s.38-1.73.34-2.21c-.06-.83-.09-.79-.73 1.24l-.87 2.81c-.11.39-.59 1.43-1.05 2.31-1.01 1.92-1.7 3.98-1.72 5.15 0 .47-.09 1.04-.18 1.26-.14.32-.18.22-.21-.45-.02-.47-.05-.92-.07-1s-.1-.51-.19-.95c-.12-.59-.44-1.06-1.24-1.84-1.2-1.16-1.32-1.48-.56-1.48.44 0 .5-.07.4-.45-.07-.25-.12-.6-.12-.77 0-.18-.24-.57-.52-.89-.35-.38-.54-.82-.56-1.33-.02-.46-.21-.94-.47-1.22-.24-.25-.55-.81-.69-1.24-.2-.61-.46-.89-1.16-1.26-1.14-.6-1.28-.93-.32-.75.46.09.83.05 1.02-.11.38-.32.94.09.85.61-.07.41.58 1.19.98 1.19m-.03-5.42c.33 0 .35.04.18.48-.17.45-.48.39-.48-.08 0-.22.13-.4.3-.4m.41 3.67c-.06.2-.12.5-.12.65s-.09.28-.2.28c-.3 0-.24-.47.12-.91.29-.36.31-.36.2-.02m.29-1.87c.11 0 .2.13.2.29s-.09.35-.2.41c-.11.07-.2-.06-.2-.29s.09-.41.2-.41m1.28-.48c-.08-.33-.01-.51.22-.59.53-.21.7.03.7.98 0 1.49-.49 1.29-.91-.38m.08 1.92c.22-.08.26.09.15.84-.07.51-.3 1.32-.51 1.78-.46 1-.54.72-.12-.46.16-.47.27-1.12.25-1.45-.03-.38.06-.65.24-.71m-.01-5.05c.65 0 1.33.64 1.15 1.09-.17.44-1.24.36-1.87-.14-.41-.32.07-.95.72-.95m2.02-2.01h1.15l1.14 1.24c.63.69 1.27 1.52 1.41 1.85.48 1.12.29.2-.24-1.1-.6-1.49-1.31-2.51-1.88-2.69-.22-.07-.4-.21-.4-.3 0-.27.65-.34 1.26-.14.44.15.64.11.97-.19.41-.37.42-.36.71.08.17.25.42.45.56.45.39 0 1.29 1.17 1.16 1.51-.07.18 0 .29.21.29.4 0 .41-.38.02-1.13-.55-1.05-.26-1.44.5-.68.28.29.4.32.4.12 0-.15-.14-.33-.3-.4-.37-.14-.4-.73-.04-.73.31 0 1.53.87 1.89 1.35.54.72.3 1.32-.87 2.16-.61.44-1.46 1.17-1.88 1.63s-1.05.98-1.41 1.15c-.76.38-.73.38-.89.13-.22-.37-1.5-.86-1.93-.74-.64.17-1.1-.17-1.38-1.02-.13-.41-.6-1.09-1.04-1.5-1.05-.98-.81-1.36.86-1.36m8.68-2.53c.94.1 1.84.64 2.03 1.2.14.43.49.47.49.05 0-.39.98-.4 1.51-.02.44.32.56.24-1.41.93-1.9.66-2.03.68-2.15.22-.06-.22-.02-.49.08-.59.12-.12-.11-.43-.62-.83-1.06-.84-1.04-1.09.06-.96m7.82 3.05c1.43-.02 3.29-.16 4.14-.31 1.52-.27 1.55-.27 2.04.19.28.26.45.56.38.66-.06.1-.11.54-.1.97.01.66-.1.87-.71 1.38-.69.58-.71.61-.37.98.33.37.32.4-.19.81-.29.23-.61.43-.71.43s-.18.2-.18.45c0 .31-.31.67-.99 1.15-.55.39-.99.85-.99 1.02 0 .47-1.69 1.72-2.52 1.87-.69.13-.7.15-.4.6.3.46.29.48-.76 1.01-.59.3-1.12.71-1.17.91-.06.22-.32.39-.66.42-.44.05-.57.17-.57.52 0 .79-2.37 1.81-2.63 1.14-.07-.19-.19-.16-.45.1-.19.19-.79.41-1.32.49-.53.07-1.27.24-1.64.38-.54.19-.7.19-.83-.02-.13-.22-.27-.21-.74.03-.84.42-1.93.61-1.75.29.66-1.18 3.13-2.68 4.69-2.85 1.9-.21 3.72-.75 4.93-1.45 1.02-.59.99-.8-.06-.36-.41.17-.84.31-.95.31-.19 0 .6-.68 1.58-1.36.35-.25.35-.25-.03-.12-.22.08-.67.18-1 .23-.41.06-.72.28-.94.67-.18.32-.47.58-.64.58-.46 0-.37-.39.14-.59.44-.17.44-.18-.11-.32-.43-.11-.62-.06-.83.23-.23.31-.22.4.05.6.28.21.27.26-.11.46-.55.3-.99.29-1.1-.02-.06-.19-.19-.2-.57 0-.97.48-3.63 1.47-3.73 1.38-.12-.12.34-1.54.6-1.87.11-.14.57-.36 1.02-.49s1.03-.4 1.29-.59c.25-.19.88-.41 1.4-.48 4.08-.56 6.79-1.22 8.15-1.98l.58-.32-.58.13c-.49.11-.56.08-.46-.21.11-.28.06-.3-.25-.13-.58.31-1.07.26-.93-.11.13-.34-.12-.25-.71.26-.22.19-.37.21-.46.07-.09-.15-.26-.14-.57.03-.24.13-.6.22-.79.19-.2-.03-.67.22-1.06.56-.53.47-.89.62-1.5.62-.9 0-.89-.3.02-.5.33-.07.6-.26.6-.41 0-.47-.53-.32-1.13.32-.31.33-.68.6-.81.6s-.25.1-.25.22c0 .13-.19.18-.46.11-.25-.06-.89.02-1.43.18s-1.05.29-1.14.29-.17-.44-.17-.98v-.98l1.15-.41c2.39-.87 3.3-1.04 5.56-1.04 3 0 6.52-.82 7.84-1.84l.47-.37h-.74c-.41 0-.93.1-1.15.22-.31.17-.45.16-.57-.03-.1-.16-.35-.2-.7-.11-.45.11-.52.08-.42-.19.11-.28.05-.27-.43.04-1.54 1.02-1.82 1.16-1.99.98-.07-.08-.02-.31.11-.53s.2-.39.13-.39c-.24 0-1.29.62-1.29.77 0 .2-1.2.64-1.76.64-.49 0-.52-.07-.23-.62.17-.32.14-.39-.17-.39-.48 0-1.08.66-.94 1.02.15.4-2.61 1.29-3.01.97-.21-.18-.47-.15-1.08.09-1.05.42-1.13.41-1.5-.16-.29-.44-.29-.54.06-1.18.43-.82.58-.96 2.08-2.19.75-.61 1.27-.89 1.51-.83.21.06.91-.17 1.56-.5 1.91-.97 3.47-1.29 6.37-1.33m1.58-.91c.07-.11.59-.19 1.16-.18l1.04.02-.8.17c-1.1.23-1.54.23-1.4 0m2.86-.14c.14-.06.32-.05.38.01.06.07-.05.11-.26.11-.23-.01-.28-.06-.12-.12M52.67 87.36c-.27.21-1.01.63-1.65.94-.7.33-1.15.68-1.15.87 0 .21-.31.41-.9.57-.64.17-.9.35-.9.6s-.27.44-.95.64c-.52.15-1.12.27-1.33.25-.21-.01-.74.27-1.2.63-1.14.92-1.32 1-1.32.63 0-.18.14-.37.3-.43.17-.07.28-.25.25-.42-.03-.16.13-.4.35-.52s.62-.36.9-.53a10.53 10.53 0 0 1 1.3-.64c.53-.22.66-.35.4-.36l-.4-.02.4-.22c.55-.31.56-.31.42-.53-.16-.25-1.7.12-2.15.52-.37.32-1.04.27-.81-.05.73-1.04 4.45-2.69 6.73-2.99.55-.07 1.22-.17 1.5-.23l.5-.1-.45.32c-.6.43-.57.7.1.7h.55l-.49.39zm-9.54 6.47c.9-.45 1.95-.82 1.94-.69 0 .24-.49 1.52-.77 2.02-.15.26-.42.93-.61 1.49s-.44 1.04-.55 1.08c-.12.04-.26-.46-.33-1.17-.22-2.11-.18-2.49.32-2.74m-.85-2.22c0 .2-.09.42-.2.49s-.2-.07-.2-.3c0-.6.62-3.07.82-3.3.29-.32.19 1.26-.13 2.02-.17.4-.3.88-.3 1.09m-1.07 2.21c.23-.23.7.7.64 1.27-.09.96-.49.82-.63-.21-.07-.52-.08-1-.01-1.06m-.04 11.05c-.17-1.79-.25-3.51-.16-3.81.08-.3.13-1.04.11-1.65-.03-.61.04-1.33.15-1.6.16-.4.2-.21.21 1.02a9.3 9.3 0 0 0 .43 2.81c.39 1.2.42 1.82.51 10.2l.07 10.32-.06 5.01c-.02 2.13-.12 3.67-.24 3.75-.11.08-.32.15-.47.15-.22 0-.24-.32-.12-1.65.42-4.59.18-18.18-.44-24.55m4.92-10.63c.38-.04.78-.15.89-.25.11-.11.47-.19.81-.19s1.14-.19 1.79-.41l1.17-.41 1.27.45c.7.24 1.27.52 1.27.6 0 .32-.46.41-.9.17-.4-.22-.59-.18-1.4.27-.51.29-1.01.48-1.1.42s-.22 0-.29.1c-.08.13-.26.12-.51-.04-.33-.21-.47-.13-1.1.6-.53.62-.87.85-1.28.85-.52 0-.66.19-1.75 2.34-.65 1.29-1.29 2.38-1.42 2.42s-.25-.16-.27-.49c-.07-1.06.02-1.51.32-1.74.19-.14.33-.58.35-1.1.02-.48.17-1.01.34-1.18s.49-.77.72-1.33c.37-.93.47-1.03 1.1-1.08m7.87 1.42c-.07.17-.49.45-.95.61s-.99.36-1.18.44c-.2.08-.35.05-.35-.07s.16-.33.35-.47.35-.4.35-.56.2-.33.45-.37c.34-.05.42.01.33.25-.11.28-.06.28.44.02.63-.33.74-.3.57.15m1.02 1.75c.14 0 .38.62.56 1.41.18.78.43 1.58.56 1.8.21.33.15.48-.43 1.08-.61.64-.68.83-.77 2.18-.06.98-.02 1.53.13 1.62.33.21.28.72-.08.72-.17 0-.3-.08-.3-.17 0-.39-.91-.59-1.51-.33l-.59.26.53.02c.62.02.89.81.42 1.28-.22.22-.24.39-.07.7.15.29.16.57.02.95a14.06 14.06 0 0 0-.41 1.46c-.11.51-.51 1.4-.89 1.97-.75 1.14-.86 1.45-.37 1.04.26-.22.34-.21.49.03.14.21.18.15.19-.24 0-.29.14-.64.3-.78.36-.3.38-.08.08.77-.12.35-.34.63-.5.63s-.28.13-.28.3.09.3.2.3.25.23.32.5.27.5.44.5c.24 0 .26-.06.09-.23s-.12-.43.19-1.05c.23-.45.62-1.47.86-2.26.33-1.08.62-1.6 1.17-2.1.4-.37.72-.77.72-.89 0-.38.66-.82 1.6-1.07 1.77-.48 1.8-.48 2.28-.03.42.39 1.12.42 1.12.04 0-.56-1.59-1.42-2.65-1.42-.19 0-.35-.1-.35-.23s.18-.18.42-.11c.23.06.78-.02 1.23-.18 1.27-.45 1.97-.37 2.82.34.81.67 1.1.67.74 0-.17-.33-.16-.42.05-.42.47 0 .97.73 1.08 1.59.1.73.07.81-.31.81-.29 0-.45.16-.53.5l-.2.95c-.14.71-1.12 2.1-1.65 2.34-.83.38-1.06.28-1.06-.49 0-.52-.18-.9-.67-1.44l-.67-.74-.87.26c-.48.14-1.25.49-1.69.77-1.42.89-2.98 3.88-3.6 6.86-.35 1.71-.53 2.01-1.2 2.01-.37 0-.51-.13-.6-.6-.06-.33-.19-.6-.27-.6s-.7.27-1.36.6c-.67.33-1.35.6-1.51.6-.96 0-.9-2.52.11-4.61.47-.97 1.08-1.75 2.39-3.02 1.45-1.42 1.79-1.87 1.95-2.58.24-1.09.17-1.26-.76-1.78-1.33-.75-1.95-.61-3.3.76-.65.66-1.24 1.15-1.32 1.11-.23-.14.32-2.32.88-3.45.32-.65.84-1.29 1.35-1.65.81-.59 1.57-.79 1.57-.41 0 .11.12.15.27.09s.53.17.85.51c.42.45.76.61 1.24.61.66 0 .67-.01.58-.75a12.09 12.09 0 0 0-.37-1.71c-.24-.85-.23-1.12.09-2.41.4-1.59.87-2.55 1.24-2.55m2.42-2.91s-.28.23-.72.41c-.92.37-1.2.4-1.2.15 0-.19 1.78-.7 1.93-.56m-.84 8.93c-.08.27-.3.42-.62.42-.41 0-.48-.1-.48-.62 0-.58.04-.61.55-.49.69.18.71.19.55.69m1.02-7.02c-.07.45-.23 1.04-.36 1.32s-.29.51-.37.51c-.13 0-.79-1.43-.79-1.7 0-.05.37-.28.83-.51l.83-.42-.13.81zm1.31 1.47c1.04.59 1.16.78 1.16 1.97 0 .97-.1 1.29-.67 2.12-1.15 1.68-1.37 2.23-1.23 3.1.1.59.07.78-.13.78-.62 0-.72-.28-.55-1.65.1-.83.09-1.56-.03-1.88-.24-.64.07-2.59.62-3.84.35-.81.4-.84.83-.6m-3.33 17.31c-.29.38-.29.38-.29-.01 0-.22.13-.63.29-.9l.29-.5v.51c.01.28-.12.69-.28.9m-5.46-18.57c.4-.96.82-1.39 1.09-1.11.15.14-.54 1.76-.83 1.98-.57.41-.66.11-.26-.87m-1.14.42c.07-.11.16-.2.21-.2s.09.09.09.2-.09.2-.21.2-.16-.09-.09-.2m-1.1.42a.42.42 0 0 1 .2-.32c.11-.07.2-.04.2.07a.42.42 0 0 1-.2.32c-.11.07-.2.04-.2-.07m-.81 1.35c.44-.53.5-.44.21.32-.11.28-.29.52-.4.52-.31 0-.24-.31.19-.83m-1.59.83c.95-1.89 1.55-2 .69-.14-.28.62-.69 1.23-.9 1.34-.51.27-.49.19.21-1.2m-1.8 7.95c-.19-1.68-.19-2.34 0-2.96.3-1.02 2.3-3.18 3.75-4.04 2.88-1.72 4.84-2.76 5.25-2.76.12 0 .17.19.1.45-.18.73-.21 3.61-.04 4.21.13.46.09.55-.22.55-.21 0-.5-.14-.65-.32-.47-.57-1.84-.25-2.83.65-1.32 1.2-1.99 2.39-2.58 4.58-.51 1.92-.52 2.02-.18 2.36.48.5.94.28 2.4-1.11 1-.94 1.34-1.15 1.9-1.15.38 0 .74.1.81.21.2.32-.64 1.6-1.62 2.46-1.25 1.11-1.93 2.19-2.56 4.09-.6 1.81-.76 4.43-.31 4.97.15.18.19.5.09.85l-.15.55-.19-.55c-.11-.3-.32-.55-.48-.55s-.28-.08-.28-.17-.23-.13-.52-.07c-.62.12-.88.71-.98 2.24-.04.61-.16 1.33-.26 1.6-.18.47-.19.46-.29-.2-.06-.38-.04-2.04.04-3.7.18-4.1.09-9.57-.21-12.18m3.81 19.34a.48.48 0 0 1-.3.42c-.16.07-.3.04-.3-.05s.13-.28.3-.42c.24-.2.3-.19.3.06m3.25-6.22a5.21 5.21 0 0 0-.64.91c-.23.44-.22.45.19.24.42-.23.42-.22.09.29-.21.32-.46.48-.66.42-.21-.06-.5.15-.82.61-.27.39-1.07 1.4-1.77 2.25l-1.35 1.62c-.04.05-.08 0-.08-.11s.08-.28.17-.39c.09-.1.29-.64.43-1.19s.33-1.1.42-1.21c.09-.12.42-.88.73-1.7.45-1.19.69-1.55 1.16-1.77.33-.15.83-.5 1.13-.78.88-.82 1.81-.07 1.01.81m11.04 15.62c.09-.74.14-1.67.12-2.05-.02-.42.11-.89.33-1.18.33-.42.42-.45.85-.22.27.14.66.27.88.29 1.24.09 2.6 1.7 1.42 1.7-.28 0-.56-.1-.63-.21-.15-.24-1.63 1.31-1.82 1.9a1.93 1.93 0 0 1-.55.74c-.24.2-.5.36-.59.36s-.1-.6-.01-1.35m7.35 1.46c-.49.19-.92.14-.78-.08.07-.11.25-.2.41-.2s.29-.09.29-.2a.2.2 0 0 1 .2-.2c.32 0 .23.55-.12.68m-1.33-3.27c.43-.46.95-.68 2.44-1.04 1.04-.25 2.08-.46 2.3-.47.22 0 .5-.08.63-.16.35-.23 3.16-.22 3.59 0 .6.32 4.44 1.41 4.56 1.28.21-.21.1-.42-.27-.54-.35-.11-.72-.67-.55-.84.04-.04.49.16 1 .44.88.5.91.54.63.97s-.26.46.45.74a39.48 39.48 0 0 1 2.11.94c1.36.65 1.64 1.09.76 1.22-.24.04-.38.15-.32.25.07.1-.06.19-.26.19-.44 0-1.13-.69-.96-.97.12-.2-.55-.53-1.56-.76-.32-.08-1.09-.42-1.71-.77-1.14-.65-2.28-1.12-2.68-1.1-.12 0 .37.31 1.09.69 1.4.72 2.31 1.5 1.41 1.22-.26-.08-.79-.37-1.17-.63-.7-.47-2.2-.99-2.38-.82-.05.05.19.19.53.31.83.29 1.78 1.03 1.32 1.03-.18 0-.65-.13-1.03-.29s-.82-.24-.98-.19c-.15.06-.47 0-.72-.13-.33-.18-.47-.18-.58 0-.1.17-.29.17-.69.02-.3-.11-.65-.15-.77-.07-.13.08.07.24.45.37.37.13.71.34.75.47.11.34-.77.29-1.24-.07-.43-.33-.91-.39-.91-.12 0 .09.2.23.45.29.63.17.29.4-1.35.94l-1.6.53c-.11.04-.51-.24-.89-.63a4.9 4.9 0 0 0-1.54-1.03c-.47-.18-.86-.41-.86-.5s.25-.43.55-.75m11.89-3.18c.2.08.46.14.56.14s.14.09.07.2c-.18.29-.41.25-.72-.14-.24-.3-.23-.32.09-.2m8.72 9.75c0 .37-.28.21-1.1-.61-.44-.44-1.13-1.08-1.55-1.41-.79-.64-.99-1.06-.4-.82 1.14.47 3.05 2.25 3.05 2.84m-2.06 15.04c-.19-.33-.27-.6-.17-.6.25 0 .84.68.84.97 0 .42-.3.25-.67-.37m-1.44-9.78c.06-.06.23 0 .36.13.19.19.19.28 0 .39-.18.11-.18.27.04.69h0c.29.56.21.67-.28.36-.27-.17-.37-1.34-.13-1.58m1.99 4.88c.2.15.33.38.29.5-.05.14-.22.06-.45-.19-.45-.5-.36-.69.16-.31m.13-6.92c0 .11-.04.2-.09.2s-.14-.09-.21-.2-.03-.2.09-.2.21.09.21.2m-.75 3.69c-.24.24-.45.11-.45-.28 0-.22.08-.4.18-.4.22 0 .43.52.27.68m.03-5.42c-1.11-1.4-1.22-1.87-.19-.85.57.56.91 1.06.87 1.28-.06.27-.2.18-.68-.42m1.22-.32c-.33-.33-.83-.74-1.1-.9-.56-.34-1.7-1.84-1.52-2.01.19-.19 1.06.48 1.66 1.27a58.01 58.01 0 0 0 1.13 1.41c.73.87.61 1.03-.18.23m.35 3.85c-.14-.22-.18-.4-.1-.4s.26.18.4.4.18.4.09.4-.26-.18-.4-.4m-.46-2.36c-.25-.32-.24-.33.08-.08.19.15.35.31.35.35 0 .17-.16.06-.43-.27m.32 4.16c.07-.11.16-.2.21-.2s.09.09.09.2-.09.2-.21.2-.16-.09-.09-.2m-8.85 4.12c.31-.69.57-.65.57.09 0 .47-.09.6-.4.6-.47 0-.47-.02-.17-.69m-2.65-8.84c-.71-.22-.29-.77.83-1.1.47-.13.79-.1 1.21.11.71.37.86.37.71 0-.08-.2.01-.3.29-.3.52 0 1.78.53 1.78.75 0 .09.72.97 1.6 1.96 1.6 1.8 1.82 2.18 1.35 2.36-.2.08-.2.15 0 .36.14.15.25.34.25.42 0 .45-.43.05-.97-.91-.51-.92-2.78-3.25-2.96-3.07-.03.03.16.51.44 1.05.27.54.5 1.05.5 1.14 0 .22-.75.18-.9-.05-.29-.47-.55-.17-.44.51l.11.72-.84-.06c-.77-.06-.84-.11-.89-.66-.09-.97-.42-1.58-1.1-2.02-.35-.22-.63-.56-.61-.74.01-.19-.14-.39-.35-.46m-1.52 3.46c.29-1.11.66-1.6.9-1.19.09.14.31.2.49.13.48-.19.44.45-.05.7-.21.11-.45.5-.53.86s-.27.86-.44 1.1c-.65 1-.84.17-.38-1.6m-1.56-4.55c.21-.34.51-.24.51.18 0 .21-.09.44-.2.51-.24.15-.49-.4-.31-.69m.39-1.3c.06.18.12.36.12.4 0 .05-.14.08-.3.08s-.3-.18-.3-.4c0-.48.31-.53.48-.08m10.89 4.69c-.34 0-.64-.22-.97-.71-.69-1.01-.39-1.07.6-.11.8.77.82.82.36.82m-1.18-6.35c0-.33.2-.32.65.02.29.22.31.31.08.49-.3.25-.73-.05-.73-.51m-7.41-3.87a.42.42 0 0 1 .32.2c.07.11.03.2-.08.2s-.25-.09-.32-.2-.03-.2.08-.2m-4.06 3.04c-.31-.25-.31-.3.09-.73 1.01-1.08 5.68-1.82 6.57-1.03.17.16.6.34.96.42.35.08.74.26.87.42s.36.29.52.29c.44 0 1.47.58 1.47.83 0 .12.28.57.62 1 .34.44.57.84.51.91-.07.07-.59-.23-1.17-.65l-1.06-.76 1.1 1.25c.61.68 1.2 1.44 1.33 1.66.13.23.35.49.49.58s.2.22.13.29-.29-.07-.49-.31c-1.17-1.39-3.86-3.7-3.86-3.33 0 .03.32.38.7.78.83.85.95 1.45.15.72-.59-.55-2.62-1.9-3.13-2.1-.18-.06-.32-.03-.32.09s.2.27.45.34c.49.15 1.55 1.19 1.55 1.53 0 .11-.16.03-.35-.19-.2-.22-.72-.46-1.2-.52-1-.15-1.07-.04-.25.38.33.17.6.43.6.58s.21.34.45.42l.45.15-.45.09c-.3.06-.7-.12-1.19-.53-.75-.62-1.33-.78-1.54-.42-.06.1.16.33.5.51.79.41.69.67-.38 1.03-.97.33-1.06.28-1.85-1.24-.37-.71-1.22-1.63-2.26-2.48m.55 5.7c-.07.17-.15.3-.19.3s-.08-.14-.08-.3.09-.3.19-.3.14.14.08.3m-.16-2.41c-.38.75-.73 1.4-.78 1.44s-.04-.48.02-1.17c.09-1.19.08-1.24-.26-.96-.31.26-.34.26-.26 0 .06-.17.27-.33.48-.36s.58-.16.83-.28.5-.18.55-.12c.06.06-.21.71-.59 1.46m1.49 7.54c0 .29-.13.64-.29.78-.25.21-.3.18-.3-.14 0-.21.13-.56.3-.78.28-.38.29-.37.3.14m-.05-1.45l-.18-.48-.25.59c-.16.39-.3.51-.39.35-.16-.26.19-1.07.58-1.29.14-.08.3-.44.37-.8.16-.87.84-1.96 1.21-1.96.4 0 .38.13-.1.82-.23.32-.49 1.08-.59 1.69-.23 1.42-.41 1.72-.65 1.09m2.4 6.22c.55-1.03.8-1.77.8-2.33 0-.89.5-2.28.8-2.28.27 0 .42.5.29.98-.12.48.29.59.46.12.14-.37.68-.41.66-.05-.03.53-.73 2.25-.9 2.24-.1 0-.23-.28-.29-.6-.1-.56-.12-.53-.39.41-.29 1.02-1.38 3.12-1.95 3.76-.17.19-.41.34-.53.34-.8-.06-.94-.66-.37-1.61.33-.57.79-.82.6-.33-.63 1.68-.27 1.39.81-.65m4.41-2.69l-.93-1.92c-.59-1.2-.61-1.33-.3-1.56.19-.14.77-.25 1.3-.25.91 0 .97.03 1.08.59.18.9.9 1.47 1.85 1.45 1.03-.01 1.82.58 1.82 1.36 0 .32.13.62.3.68.31.12.43.73.14.73-.14 0-.88-.62-2.34-1.97-.22-.21-.62-.49-.9-.63-.49-.25-.49-.25-.15.14.42.48.44.74.07 1.05-.21.18-.35.16-.59-.08-.17-.17-.37-.31-.46-.31s.15.32.52.7c.37.39.64.73.59.78-.05.04-.27.12-.49.18-.58.14-1.21-.24-1.53-.94m.14 4.7c.19 0 .32.17.32.4 0 .22-.13.4-.3.4s-.42.29-.57.65c-.31.74-.93 1.37-.93.94 0-.14.09-.54.19-.88l.52-1.77c.36-1.26.79-1.6.58-.45-.11.57-.07.7.19.7m1.43-.8c-.31-.6-.7-1.17-.85-1.27-.22-.13-.23-.23-.05-.45.4-.48 1.15-.37 2.38.35a3.79 3.79 0 0 0 .65.29c.5.17.46.75-.05.62-.48-.13-.52.11-.09.47.58.48 1.14 1.42.96 1.6-.22.22-.49.04-.93-.66-.19-.3-.43-.55-.54-.55-.32 0-.22.61.22 1.33.23.37.34.67.25.67-.32-.01-1.38-1.31-1.94-2.4m.67 7.18c0 .23-.06.24-.31.03-.26-.22-.33-.19-.42.18-.06.24-.19.43-.29.43-.31 0-.19-.96.16-1.31.32-.32.35-.32.6.02.14.2.26.49.26.65m-.06-4.5c-.07-.08-.13-.36-.13-.63v-.49l.4.51c.22.28.4.56.4.63 0 .16-.5.15-.67-.01m1.83 9.76c-.04.25-.18.49-.32.53-.3.1-.34-.9-.06-1.35.16-.25.21-.25.31.04a1.79 1.79 0 0 1 .06.78m.16-6.17c-.32.12-.41-.07-.63-1.29-.11-.63-.07-.74.31-.84.87-.23 1.12.09 1.79 2.26.22.71.4 1.41.4 1.55 0 .41-.52.28-1.19-.28-.5-.42-.6-.63-.51-1.03.1-.39.06-.47-.17-.38m2.68 2.4c0-.12-.08-.25-.17-.28-.25-.1-.47-1.17-.25-1.17.69 0 1.17.43 1.37 1.23.12.47.17.93.11 1.02-.05.09-.17.16-.26.16-.22 0-.82-.69-.82-.95m.33 7.16s-.15-.09-.21-.2c-.07-.11-.03-.2.09-.2s.21.09.21.2-.04.2-.09.2m.29 1.3c.11.07.15.21.09.31-.17.28-.29.23-.29-.13 0-.17.09-.25.2-.19m1.3-14.53c-.25.41-.71.22-.71-.29 0-.28.08-.5.18-.5.29 0 .67.57.53.79m-.06-2.13c-.24.14-.65-.08-.65-.35 0-.14-.22-.37-.5-.51-.35-.19-.5-.44-.5-.82 0-.69.18-1.18.44-1.18.11 0 .15.13.09.29s-.03.35.07.4c.1.06.2-.09.24-.34l.07-.46.45.45c.35.35.45.68.45 1.44 0 .55-.07 1.03-.15 1.08m-.26-6.1c0 .08-.1.24-.22.37-.16.16-.11.25.18.35.63.2 1.24.82 1.24 1.27 0 .22.13.52.3.65.16.14.3.46.3.72s-.09.48-.19.48c-.29 0-2.99-3.25-2.87-3.46.06-.1.23-.13.39-.07.36.14.35.02-.04-.59-.18-.27-.47-.5-.65-.51-.21-.01-.23-.05-.08-.11.26-.11 1.65.66 1.65.91m.49-4.96c.15-.16.65.34.76.77.17.66-.21.64-.54-.03-.17-.35-.27-.68-.22-.73m1.09 5.95c.17.32.16.41-.06.41-.34 0-1.05-.75-.88-.93.2-.2.7.07.93.52m-48.42 41.95c.08.32.05.55-.07.55-.11 0-.2-.11-.2-.25s-.06-.48-.13-.75c-.08-.34-.06-.43.08-.3.11.11.26.45.33.75m-.96-1.8c-.06.13-.1-.02-.09-.36 0-.33.05-.44.1-.24.05.19.05.46 0 .6m-.22-1.46s-.12-.61-.18-1.35l-.33-4.33c-.13-1.64-.19-3.02-.13-3.08.05-.06.24-.05.41.01.26.1.31.73.31 4.43 0 2.37-.04 4.32-.08 4.32m-.52 7.02c-.25-.17-.25-.19.05-.2.19 0 .35.09.35.2 0 .25-.02.25-.4 0m-.71-20.51c-.17-.45.05-2.15.31-2.42.13-.13.2.21.2 1 0 1.31-.27 2.06-.51 1.43m-2.47-19.58c-.24 0-.49-.39-.34-.53.14-.14.53.11.53.35a.19.19 0 0 1-.19.19m-1.61-3.29c0-.24-.23-.7-.5-1.03l-.5-.6.12.93c.07.53.04.98-.07 1.05-.11.06-.51-.09-.88-.35-.86-.59-1.7-.75-4.35-.84-2.06-.06-2.1-.06-2.33.42-.13.27-.16.49-.07.49.19 0 .84 1.23.71 1.35-.05.05-.54-.04-1.09-.21-1.24-.37-1.6-.15-.91.54.51.52-.05.36-.65-.19-.55-.5-.56-.51-.16-.81.22-.17.65-.37.95-.43.96-.19.81-.46-.25-.46-.82 0-1.12-.1-1.52-.5-.27-.28-.66-.5-.85-.5s-.51-.12-.7-.26c-.32-.24-.33-.29-.05-.52.24-.2.6-.21 1.66-.05 1.55.24 1.83.17.73-.18-.42-.13-.96-.36-1.2-.51l-.43-.27.54-.59c.54-.57 1.91-1.13 4.75-1.93 1.21-.34 1.24-.34 1.83.08.33.24.7.43.82.43s.66.31 1.19.7c.53.38 1.17.7 1.41.7s.39.08.32.19c-.07.1.06.29.29.41.22.12.41.31.41.43 0 .35 1.04 1.48 1.3 1.42.29-.06.78.65.95 1.36a21.79 21.79 0 0 0 .25.95c.1.33.06.45-.17.45-.46 0-1.53-1.17-1.54-1.67m-1.41 1.17c-1.08-.55-3.3-.86-3.82-.53-.63.39-1.82-.41-1.46-.99.17-.27.97-.22 1.83.1.41.16 1.19.34 1.73.42.54.07 1.32.35 1.74.62.42.26.9.48 1.07.48s.31.09.31.2c0 .3-.4.21-1.4-.31m-10.58-.69c-.45.19-.89.19-1.86.02-1.63-.28-1.56-.3-1.44.23.08.36-.06.55-.75.97-.47.29-1.09.58-1.38.65s-.67.26-.83.43c-.17.17-.4.3-.53.3-.4 0 .29-.78 1.27-1.43.51-.34 1.1-.84 1.32-1.11.21-.27.74-.75 1.17-1.06.72-.52.85-.55 1.66-.36 2.07.49 2.49.89 1.38 1.35m-.06 1.05c-.36.05-.44.18-.42.61.03.51-.01.54-.7.5-.64-.04-.73.01-.69.38.03.35-.09.45-.7.55-1.04.17-1.4.16-1.54-.07-.19-.32.62-.98 1.38-1.12.52-.1.71-.24.71-.52 0-.43.71-.77 1.6-.77.7 0 .98.35.35.44M21 157.5c-.23-.01-.28-.06-.12-.12.14-.06.31-.05.38.02.07.06-.05.11-.26.1m-2.73-.08l-.8.22c-.19.06-.35 0-.35-.12 0-.23.82-.61 1.31-.61.45 0 .33.36-.16.51m-1.66 1.91c-.63.24-1.09.25-1.09.03 0-.2.89-.64 1.31-.64.47 0 .33.4-.22.61M4.51 83.26c-.13.13-.37-.11-.37-.37 0-.12.09-.11.23.03.13.13.19.28.13.34m72.72 45.6a.2.2 0 0 1 0-.4.2.2 0 0 1 0 .4m-1.4-.9c-.98-.53-.91-.61.25-.29.43.12.75.34.75.5 0 .35.08.37-1-.21m15.97 27.21l-.41-1.71.41-.39c.54-.5.52-.97-.09-2.18-.58-1.15-1.18-2.66-1.37-3.45-.12-.51-.09-.55.47-.55.51 0 .6-.07.6-.51 0-.59-.76-2.1-1.54-3.08-.53-.66-.54-.67-.09-.53.47.15 1.04-.15 1.03-.56 0-.12-.81-1.08-1.8-2.11-1.22-1.28-1.73-1.96-1.6-2.09.59-.59 0-1.46-1.83-2.7-.85-.57-1.23-1.1-1.14-1.57.08-.46-.12-.66-1.42-1.37-.77-.42-1.4-.9-1.4-1.06 0-.37-1.21-1.48-2.39-2.18l-.97-.59c-.05-.03.03-.19.17-.36.36-.44.1-.91-.51-.91-.77 0-2.93-.59-3.28-.9-.17-.15-.86-.38-1.55-.52-1.23-.26-1.53-.48-.95-.71.17-.07.3-.24.3-.39 0-.21-.35-.26-1.45-.24-1.61.04-3.93-.22-4.25-.47-.31-.24-4.76-.07-4.84.19-.12.37.95.5 3.95.45.38 0 .78.08.89.19s.56.2 1 .21c.44 0 1.17.15 1.61.31.44.17 1.2.34 1.69.38.57.05 1 .22 1.2.46.17.21.74.5 1.26.64.99.27 1.26.6.5.61-.26 0 .1.23.85.54 1.42.58 2.8 1.41 2.8 1.7 0 .22-.65-.11-1.08-.54-.27-.27-1.16-.5-3.21-.83-.46-.07-.53-.05-.3.12.22.16-.14.22-1.4.25-1.21.03-1.38.06-.6.1 2.01.11 3.65.48 4.58 1.01 1.01.58 3.13 2.15 3.31 2.46.22.36-.5.2-.9-.2-.22-.22-.47-.4-.55-.4s-.47-.26-.85-.57c-.78-.64-1.64-1.12-2.39-1.32-.35-.1-.29-.02.22.26.92.51 2.76 2.21 2.41 2.21-.15 0-1.3-.49-2.57-1.1-1.26-.61-2.37-1.09-2.46-1.05-.09.03.64.51 1.63 1.06 1.3.73 1.68 1.02 1.37 1.07-.23.04-.66-.1-.96-.3-.76-.52-1.61-.87-2.11-.87-.27 0-.04.19.62.49 1.57.73 1.31 1.28-.28.61-.4-.17-.91-.29-1.14-.29-.33.01-.28.07.21.25.35.13.7.3.78.38.25.26-.53.41-.97.19-.66-.33-1.74-.5-1.74-.28 0 .1.2.25.45.32.44.12.45.13.05.43-.23.18-.59.26-.85.2-1.54-.38-1.49-.38-1.42.01.09.42-1.06 1.3-1.19.91-.29-.88-1.95-2.02-3.39-2.33-1.23-.27-.73-.85 1.54-1.81a17.95 17.95 0 0 1 2.58-.81l1.33-.28-1.2.06c-1.19.06-1.58.2-4.63 1.65-.79.38-1.48.68-1.54.68-.24 0-2.11-1.24-2.11-1.41 0-.21 1.7-1.26 2.49-1.55.33-.12.46-.22.29-.23-.42-.02-2.63.86-3.46 1.38-.37.23-.84.41-1.05.41-.36 0-2.05-1.51-1.85-1.66.05-.04.35-.18.66-.31.32-.14.53-.3.47-.35-.06-.06-.88.16-1.82.5-1.4.49-1.92.58-2.81.49-.6-.06-1.1-.16-1.1-.23 0-.23 1.7-1.64 1.98-1.64.22 0 .19.08-.09.3-.31.24-.33.29-.07.3.17 0 1.25-.56 2.4-1.25l2.08-1.25h1.93c1.81-.02 2.56-.22 2.56-.7 0-.08-.85-.16-1.88-.18-1.59-.03-2.1.05-3.25.48-.75.28-1.66.69-2.03.91-.37.21-1.2.57-1.86.79s-1.64.71-2.18 1.1c-1.08.76-2.17.97-1.76.35.12-.2.78-.81 1.45-1.37 1.09-.91 1.77-1.38 4.86-3.36.62-.4.85-.68.85-1.03 0-.4-.13-.51-.72-.62-.77-.15-1.95.16-3.02.78-.35.21-.8.34-1 .3-.35-.07.77-1.04 2.65-2.31.63-.43 1.08-1.38 1.08-2.31 0-.19.31-.69.69-1.12.67-.75 1.69-3.22 1.98-4.83.16-.89.65-1.42 1.32-1.42.86 0 1.27.62 1.11 1.67-.1.7-.06.91.18 1 .49.19 2.08-.18 2.53-.59.71-.65 3.16-4.51 3.16-4.99 0-.57-1.42-2.41-2.04-2.63-.25-.09-1.33-.14-2.4-.12-1.9.04-1.95.03-1.95-.41s.85-1.9 1.25-2.17c.39-.26.91-2.34.8-3.18-.09-.72-.25-.94-1.16-1.62-1.74-1.29-1.66-2.09.25-2.65.81-.24 1.68-.32 2.87-.27 1.65.07 1.71.05 1.74-.39.03-.4-.08-.46-.91-.55-.52-.06-3.01-.08-5.54-.06-2.52.03-4.73-.02-4.89-.11-2-1.03-2.33-1.13-2.92-.89a7.73 7.73 0 0 1-1.33.39c-.67.12-.75.1-.75-.27 0-.51-.08-.51-.79.02-.33.24-.98.46-1.49.5-1.59.13-.98-.57 1.07-1.23.59-.2 1.27-.56 1.51-.81.44-.48 1.89-1.08 2.63-1.09.47 0 .76-.47.69-1.12-.05-.46.57-.83 2.45-1.47 1.17-.4 1.4-.84.58-1.12l-.55-.2.7-.42c.38-.23 1.06-.54 1.5-.69 1.07-.35 1.46-.7 1.14-1.03-.13-.13-.24-.33-.24-.45s.9-.75 1.99-1.41c1.69-1.02 1.97-1.26 1.88-1.62-.08-.34.09-.55.82-1.02.51-.33 1.07-.9 1.26-1.28.19-.37.89-1.08 1.57-1.58 1.25-.92 1.5-1.33.96-1.54-.4-.16-.38-.54.1-1.48a4.25 4.25 0 0 0 .4-1.76c0-1.08-.39-1.62-1.5-2.06-.99-.4-3.65-.54-6.15-.32l-2.36.2-.83-.79c-1.95-1.83-1.76-1.74-3.87-1.81-1.68-.05-2.03 0-2.61.35-.53.33-.86.39-1.52.29-.6-.09-.96-.04-1.24.17-.22.16-.59.3-.82.31-.24 0-.48.14-.54.3-.08.21-.29.26-.7.18-.56-.11-1.5.23-2.83 1.03a6.53 6.53 0 0 1-1.04.49c-.38.13-.82.66-1.48 1.81-.59 1.03-1.04 1.6-1.23 1.56-.33-.07-.68-1.11-1.15-3.47-.18-.88-.54-2.51-.8-3.61-.56-2.33-1.02-5.43-1.29-8.73-.26-3.17-.27-14.74 0-15.6.16-.56.59-1.32 1.35-2.41.03-.05.16 0 .28.13.16.16.51.08 1.27-.27 1.11-.51 5.24-1.5 6.59-1.58.44-.03 1.03-.14 1.3-.25.28-.12 1.18-.41 2-.65 2-.6 4.01-1.64 5.04-2.61.47-.44.9-.8.97-.8s.71-.69 1.4-1.53l2.06-2.48 2.1-2.51c.71-.86 1.51-1.75 1.77-1.98s.82-.88 1.25-1.45c.45-.61 1.26-1.34 1.96-1.77.66-.4 1.23-.85 1.29-.99s.52-.32 1.03-.4c.82-.12 1.89-.79 1.64-1.03-.05-.05-.62.06-1.26.24-2.42.67-3.1.77-3.28.47-.14-.23-.33-.19-1.08.17-.5.24-1.14.45-1.42.45s-.78.14-1.12.32c-.36.19-.81.26-1.1.19-.35-.09-.86.08-1.79.6-1.35.76-1.42 1.02-.31 1.12l.65.07-.47.7c-1.13 1.68-1.15 1.86-.06.71 1.18-1.25 1.28-1.43.87-1.57-.42-.15-.1-.29.98-.42.73-.08 1.06-.05 1.11.12.05.15.43-.09.97-.6.88-.84 1.41-1.02 1.98-.66.24.15.07.4-.9 1.3-.66.61-1.36 1.11-1.55 1.11s-.43.21-.53.46c-.28.73-.78 1.03-1.63.97-.43-.03-.78.03-.78.14 0 .24.49.44 1.08.44.25 0 .51.06.58.12.22.22-.24.85-.61.84-.7-.03-1.45.44-1.94 1.22-.53.84-1.21 1.35-1.39 1.04-.06-.1.02-.23.18-.29.37-.14.4-.73.04-.73-.14 0-.38.11-.52.25-.21.2-.28.19-.37-.02-.06-.17-.32.07-.68.66-.44.71-.67.91-.95.82-.21-.07-.47.02-.62.2-.22.27-.19.33.17.43.24.06.43.24.43.4 0 .34-1.32 1.82-1.48 1.66-.06-.06-.17-.54-.24-1.04-.12-.87-.08-.97.55-1.59.37-.36.85-.75 1.05-.87.31-.17.33-.28.15-.63-.18-.34-.15-.51.17-.92.22-.28.39-.64.39-.81s.51-.86 1.13-1.54c.87-.94 1.07-1.27.86-1.4-.23-.14-.22-.23.02-.52.26-.32.24-.34-.31-.2-.33.08-.99.33-1.48.55s-1.11.36-1.39.31c-.35-.07-.89.14-1.77.68-.7.43-1.44.78-1.64.78s-.49.14-.63.32c-.14.17-.42.27-.62.22-.36-.09-1.99.82-2.26 1.26-.08.13-.54.41-1.02.61-.48.21-1.25.73-1.73 1.15-.85.77-2.62 2.05-2.84 2.05-.34 0-.03-.88.58-1.69 1.22-1.6 2.1-2.91 2.1-3.12 0-.11-.22-.2-.5-.2s-.5-.02-.5-.05c0-.18.55-1.53.76-1.91.14-.26.23-.66.21-.9-.07-.64.18-1.71.67-2.79.4-.91.41-.97.07-1.34-.26-.29-.32-.55-.22-1.03.09-.4.04-.82-.12-1.12-.22-.41-.2-.64.11-1.5.39-1.09.25-1.43-.51-1.23-.6.16-.67-.46-.19-1.6l.43-1.04-.43-.33c-.38-.29-.42-.44-.29-1.28.11-.76.08-1-.19-1.19-.3-.22-.31-.35-.08-1.14A12.41 12.41 0 0 1 42.19 6c.34-.67.12-.82-.35-.24-.46.57-.79.41-.79-.39 0-.4-.24-.9-.7-1.46q-.7-.85-.57-2.39C39.93.18 39.9 0 39.61 0c-.18 0-.6.43-.92.95s-.78 1.22-1.01 1.55a27.51 27.51 0 0 0-.6.9c-.15.25-.24.26-.59.04-.5-.32-.8-.16-.8.42 0 .72-.28.98-.86.83-.49-.12-.53-.08-.53.48 0 .71-.29.97-.71.62-.4-.33-.52-.17-.99 1.28-.4 1.22-.47 1.29-1.13 1.03-.23-.09-.37 0-.47.34-.36 1.19-.76 1.8-1.12 1.7-.45-.12-2.18 2.01-2.55 3.12-.23.68-.29.73-.88.61a3.81 3.81 0 0 1-1.09-.42q-.99-.64-.8 5.84c.04 1.18-.02 1.61-.23 1.73s-.25.4-.15 1.13l.18 1.35c.08.63-.32.57-1.1-.18-.58-.54-.86-.68-1.23-.58-.3.07-.68-.02-1.01-.23-.43-.28-.61-.31-.91-.12-.57.36-1.36.29-2.11-.19-.79-.49-1.35-.51-4.36-.21-1.21.12-2.45.17-2.76.1-.9-.19-2.33.09-2.33.46 0 .26-.19.3-1.04.22-.57-.06-1.62.02-2.35.18-1.63.34-3.84.36-4.17.03-.19-.19-.33-.15-.67.18-.61.61-.37.95.96 1.33 1.08.31 2.01.77 3.93 1.93.75.46.77.46.55.05-.27-.51-.29-.85-.04-.85.36 0 2.29 1.92 2.54 2.54.33.8 1.23 1.5 2.78 2.18l1.99.89c1.41.65 8.81 2.62 9.78 2.6l.6-.02-.8-.39-.8-.39.8.11 1.1.19a5.02 5.02 0 0 0 .45.09c.35.04.11.39-.3.46-.33.05-.16.17.65.44.6.2 1.29.55 1.53.77s.53.34.63.27c.32-.2 3.64 1.57 4.57 2.44.72.66.85.91.85 1.57 0 .43.14 1.59.31 2.59.22 1.32.3 3.36.29 7.69 0 3.24.08 7.07.2 8.52l.28 3.93c.17 2.79.8 6.64 1.29 7.87.12.31.26 1.18.3 1.94.11 1.89-.09 2.14-1.82 2.3-.74.07-1.8.26-2.36.42-.56.17-1.15.24-1.32.18-.17-.07-.65.02-1.06.19-1.03.43-1.39.4-3.04-.28-2.23-.91-3.82-1.09-6.44-.73-1.26.18-2.4.71-3.28 1.54-.34.32-.71.58-.83.58s-.47.23-.77.51c-.46.43-.53.63-.44 1.21.09.57.02.79-.45 1.27-.97 1-1.65 1.99-1.51 2.21.08.12-.26.57-.73.99-.85.76-.87.77-1.27.4-.45-.42-1.92-.99-2.54-.99-.36 0-.39.09-.28.9.07.52.04.9-.07.9s-.73-.49-1.4-1.08c-1.01-.91-2.54-1.92-2.9-1.92-.25 0-.04.5.5 1.16.56.69.98 1.54 1.3 2.61.13.41.09.45-.29.33a.56.56 0 0 0-.71.23c-.39.52-.36.8.16 1.54 1.17 1.67 1.49 2.33 1.19 2.52-.17.11-.12.35.17.91.57 1.06 1.44 3.54 1.3 3.68-.06.06-.42-.18-.79-.54s-.72-.57-.79-.47c-.06.1.06 1.03.28 2.07a34.13 34.13 0 0 1 .52 3.34c.11 1.25.08 1.45-.19 1.45s-.3.17-.2 1.05a19.35 19.35 0 0 0 .47 2.31c.19.69.28 1.3.19 1.35s-.21-.04-.27-.21c-.14-.36-.93-.4-.92-.05 0 .31.43 2.18.91 4.04.26 1.03.29 1.41.12 1.47-.13.04-.24.27-.24.51 0 .49 1 3.73 1.41 4.61.24.51.23.6-.07.83-.46.34-.43.65.16 1.68.29.5.45 1.05.4 1.3-.12.5 1.33 3.44 1.69 3.44s.85.75.58.92c-.15.1.01.53.51 1.36.51.84.7 1.35.61 1.63a.86.86 0 0 0 .12.72c.31.37 2.25 1.68 2.5 1.68.1 0 .44.21.75.46.53.42.55.5.3.91s-.23.49.19.84c.26.21.77.39 1.13.39.74 0 1.98.89 1.82 1.3-.16.42.32.7 1.22.7 1.12 0 2.13.5 1.95.97-.27.69-.19.74 1.5.79 1.99.06 2.37.15 2.03.49-.49.5-.2.7 1.32.94 1.62.26 4.04 1.29 4.04 1.72 0 .14-.18.3-.4.35-.23.06-.4.27-.4.5 0 .32.26.47 1.35.76 1.25.33 3.84 1.61 3.84 1.9 0 .07-.36.29-.8.49-1.22.55-.99 1.18.49 1.34.46.05 1.03-.03 1.36-.19 1.74-.87 3.74 1.12 3.74 3.74 0 .19.18.73.4 1.18.34.7.4 1.24.4 3.53 0 2.69-.08 3.33-.43 3.33-.3 0-.97-1.26-.97-1.81 0-.32-.26-.76-.69-1.18-.38-.37-.79-.92-.92-1.24s-.33-.57-.44-.57-.69-.46-1.28-1.02c-.69-.65-1.19-.98-1.38-.9-.17.06-.77-.1-1.34-.35-1.36-.62-3.13-1.16-3.35-1.02a.45.45 0 0 0-.18.35c0 .16-.41.25-1.21.27-1.52.03-2.44.38-2.28.87.14.45-.27.61-1.16.47-.56-.09-.74-.03-1 .35-.22.32-.26.53-.12.71.15.18-.06.33-.82.58-.96.32-1.41.75-1.11 1.05.07.07.31.03.52-.11.24-.15.43-.16.5-.05.14.23-.67.76-2.46 1.63-1.01.49-1.25.69-1.17.99.12.47-.18.72-1.39 1.18-1.11.42-1.29.71-.57.89l.52.13-.42.59c-.34.48-.49.56-.79.4-.4-.21-1-.08-1 .23 0 .1.11.23.26.28.82.31-.31 2.07-2.3 3.59-.52.4-.95.82-.95.93 0 .37.56.78 1.06.78.58 0 1.94-.54 1.94-.77s2.31-1.34 3.51-1.7c.56-.17 1.37-.48 1.8-.7s1.09-.46 1.48-.54c.38-.08 2.03-.59 3.66-1.13s3.17-.98 3.42-.98 1.05-.23 1.78-.5c3.16-1.19 5.41-.13 6.33 3l.59 2.01c.1.33.19 1.39.2 2.35.02.97.11 1.75.21 1.75s.17-.35.17-.79.1-.85.23-.93c.29-.18.08 2.97-.34 5.41-.16.9-.28 1.85-.28 2.13.01.8.52-.89.66-2.21.06-.61.34-1.66.62-2.34.42-1.02.48-1.45.4-2.53-.07-.79-.03-1.35.1-1.42.12-.07.21-.37.21-.66 0-.82.75-3.06 1.02-3.06.22 0 .21.1-.03 1.1-.4 1.63-.56 3.53-.36 4.12.32.93.56.68.56-.6s.88-4.25 1.54-5.17c.2-.28.47-.7.6-.93.42-.72.31.03-.53 3.42-.43 1.75-.85 3.85-.92 4.68s-.17 1.68-.22 1.9-.14 1.24-.21 2.25c-.09 1.27-.2 1.86-.37 1.86-.25 0-.29.1-.79 1.93-.99 3.61-.75 11.77.48 16.91.49 2.05.57 4.81.13 4.81-.16 0-.47-.25-.69-.55-.23-.3-.41-.44-.42-.3-.01.42-.77.28-1.02-.18-.26-.5-.55-2.06-.76-4.19-.08-.83-.21-1.61-.28-1.73s-.13-1.7-.14-3.5v-5.74c0-1.39.11-3.01.27-3.71.24-1.08.28-2.23.13-3.35-.02-.16-.19.74-.36 2.01-.41 2.99-.47 14.75-.08 17.03.9 5.26.96 5.38 3.17 6.14 2.09.72 3.09.3 3.74-1.57.38-1.1.38-1.11-.04-2.69-.49-1.85-1.01-5.28-1.28-8.4-.25-2.94.04-14.17.43-17.03l.5-3.61c.33-2.43.65-3.65 1.52-5.93.32-.83.58-1.6.59-1.7.02-.61 1.1-2.23 2.3-3.44 1.54-1.56 2.25-1.94 2.42-1.29.07.27.26.39.58.37.27-.01.48-.09.48-.18 0-.08.09-.15.21-.15s.19.11.18.25c-.02.14-.02.64 0 1.12.02.73.08.85.37.76.57-.18.75.09 1.24 1.83.38 1.34.54 1.65.89 1.7.45.07 1.12 1.21 1.55 2.67.35 1.18.7 1.52 1.31 1.29.54-.2.86-.1.86.27 0 .13.24.71.53 1.29.41.81.67 1.09 1.14 1.22.49.13.67.34.95 1.11.53 1.49.86 1.9 1.45 1.78.44-.08.56.03.95.84.41.84.51.92.99.81.48-.1.6-.01 1.08.8.71 1.22 1.27 1.52 1.66.92.29-.43.31-.42 1.72 1.09 1.27 1.36 1.49 1.51 1.97 1.39.44-.11.68 0 1.29.54a12.65 12.65 0 0 0 1.5 1.14c.41.26.75.55.75.65s.22.18.5.18c.31 0 .5-.11.5-.3 0-.33.5-.41.69-.11.16.26 1.19.76 1.91.91.52.11.6.08.6-.28 0-.56.41-.53 1.11.08.36.31.83.5 1.23.5.72 0 .82-.27.3-.86-.35-.39-.34-.39.31-.06.36.18 1.14.78 1.74 1.32 1.41 1.28 1.79 1.48 2.1 1.11.13-.16.18-.47.11-.7-.1-.31.06-.23.63.32 1.85 1.77 4.37 3.1 4.73 2.52.06-.09-.17-.7-.5-1.35-.45-.9-.58-1.4-.54-2.09.05-.77.13-.92.52-.97.46-.07.46-.09.41-2.61-.03-1.4-.02-2.88.02-3.31.06-.68.11-.75.53-.65.63.16.76-.44.6-2.91-.12-1.84-.1-1.99.27-2.18.34-.18.4-.42.4-1.48 0-.7-.13-1.65-.3-2.12-.48-1.38-.36-2.19.24-1.58.35.36.66.01.66-.76 0-.39-.19-1.48-.41-2.42"/></g></svg>