<?xml version="1.0" encoding="UTF-8"?>
<svg id="Layer_2" data-name="Layer 2" xmlns="http://www.w3.org/2000/svg" xmlns:xlink="http://www.w3.org/1999/xlink" viewBox="0 0 78.19 77.47">
  <defs>
    <style>
      .cls-1 {
        fill: none;
      }

      .cls-1, .cls-2 {
        stroke-width: 0px;
      }

      .cls-3 {
        clip-path: url(#clippath);
      }

      .cls-2 {
        fill: #1d1d1b;
      }
    </style>
    <clipPath id="clippath">
      <rect class="cls-1" width="78.19" height="77.47"/>
    </clipPath>
  </defs>
  <g id="Layer_1-2" data-name="Layer 1">
    <g class="cls-3">
      <path class="cls-2" d="M68.5,20.03s.07.08.1.12c.06-.01.12-.01.18-.04,1.22-.63,2.51-.72,3.85-.62.78.06,1.58-.01,2.36-.07.36-.03.71-.17.88-.53-.06-.32-.28-.4-.52-.47-.76-.22-1.53-.21-2.3-.1-1.33.18-2.66.4-3.83,1.12-.26.16-.49.39-.73.59M69.03,21.04c-.27-.36-.57-.36-.85-.35-1.8.02-3.5.47-5.13,1.21-.2.09-.38.25-.59.41.68.39,1.3.38,4.12-.21.86-.18,1.74-.4,2.45-1.05M70.62,15.18c.41-.14.74-.2,1.01-.34,1.8-.97,3.48-2.12,5.1-3.35.18-.13.33-.3.48-.47.08-.1.12-.23.23-.45-.29.02-.49.02-.68.06-1.04.2-1.98.65-2.83,1.26-.91.66-1.78,1.37-2.63,2.09-.31.26-.63.58-.69,1.2M69.72,8.14c-.46.05-.51.11-.82.34-.6.44-.92,1.08-1.15,1.74-.5,1.39-1.15,2.68-2.04,3.86-.09.12-.13.27-.23.48.17-.05.26-.05.32-.09.85-.65,1.76-1.23,2.52-1.97.54-.53.91-1.24,1.26-1.93.24-.48.34-1.03.44-1.57.06-.32.02-.65-.29-.86M58.81,23.61c.64-.75,1.46-1.31,2.19-2-.85-.21-1.48,0-2.06.57-.63.61-1.3,1.17-1.97,1.74-.15.13-.34.21-.55.33-.07-.32.14-.4.28-.52.57-.47,1.14-.92,1.71-1.39.18-.15.34-.31.51-.47-.02-.04-.04-.08-.07-.12-.35.09-.71.14-1.03.27-.81.34-1.59.72-2.39,1.08-.18.08-.39.1-.58.15-.03-.05-.05-.1-.08-.15.1-.1.19-.24.31-.3.48-.22.96-.46,1.46-.62.83-.26,1.69-.46,2.52-.72.2-.06.4-.19.55-.34.23-.23.43-.49.62-.75.87-1.22,1.9-2.28,2.99-3.3.65-.61,1.23-1.3,1.85-1.97-.05-.15-.1-.3-.14-.43.02-.09.03-.15.05-.2.11-.22.21-.44.36-.64.9-1.17,1.54-2.49,2.06-3.87.16-.43.41-.84.63-1.25.24-.45.64-.72,1.1-.91.68-.28,1.18,0,1.29.72.11.71-.06,1.38-.35,2.02-.42.94-.93,1.84-1.69,2.52-.75.67-1.62,1.21-2.44,1.81-.23.17-.49.3-.67.51-.95,1.09-1.94,2.13-3.03,3.09-.92.81-1.65,1.78-2.5,2.83.71-.09,1.29-.14,1.86-.24.19-.03.35-.2.51-.32,1.43-1.01,2.85-2.05,4.31-3.02,1.13-.75,2.31-1.43,3.47-2.14.1-.06.2-.13.32-.21-.12-.57.13-1.01.51-1.37,1.28-1.19,2.55-2.43,4.16-3.18.57-.26,1.18-.43,1.78-.62.36-.11.72-.07,1.04.08.28.33.14.63-.06.86-.31.35-.63.71-1.01.97-1.47.99-2.95,1.97-4.46,2.91-.4.25-.91.32-1.37.47-.1.03-.2.05-.29.1-.8.51-1.6,1.03-2.4,1.55-.27.18-.54.37-.83.52-1.65.86-3.12,2-4.61,3.1-.04.03-.07.1-.15.23,1.94-.12,3.7-.75,5.5-1.07.6-.82,1.42-1.23,2.3-1.5.66-.2,1.34-.34,2.02-.47.57-.11,1.15-.23,1.72-.26.46-.02.94.06,1.39.16.55.11.78.39.81.86.03.44-.19.77-.69.97-.78.3-1.59.27-2.41.25-.89-.02-1.79-.03-2.68.03-.43.03-.85.23-1.28.35.37.75.29,1.03-.38,1.4-.37.2-.77.38-1.18.5-1.35.4-2.72.72-4.14.7-.34,0-.7-.03-1.03-.11-.35-.09-.64-.03-.94.13-.53.27-1.05.54-1.59.79-.23.11-.47.19-.73.23.75-.78,1.71-1.2,2.62-1.6.31-.33.58-.62.85-.92-.54-.12-1.01.01-1.43.4-.58.54-1.2,1.05-1.8,1.56-.16.13-.33.25-.5.37-.05-.06-.1-.13-.15-.19"/>
      <path class="cls-2" d="M68.5,20.03s.07.08.1.12c.06-.01.12-.01.18-.04,1.22-.63,2.51-.72,3.85-.62.78.06,1.58-.01,2.36-.07.36-.03.71-.17.88-.53-.06-.32-.28-.4-.52-.47-.76-.22-1.53-.21-2.3-.1-1.33.18-2.66.4-3.83,1.12-.26.16-.49.39-.73.59ZM69.03,21.04c-.27-.36-.57-.36-.85-.35-1.8.02-3.5.47-5.13,1.21-.2.09-.38.25-.59.41.68.39,1.3.38,4.12-.21.86-.18,1.74-.4,2.45-1.05ZM70.62,15.18c.41-.14.74-.2,1.01-.34,1.8-.97,3.48-2.12,5.1-3.35.18-.13.33-.3.48-.47.08-.1.12-.23.23-.45-.29.02-.49.02-.68.06-1.04.2-1.98.65-2.83,1.26-.91.66-1.78,1.37-2.63,2.09-.31.26-.63.58-.69,1.2ZM69.72,8.14c-.46.05-.51.11-.82.34-.6.44-.92,1.08-1.15,1.74-.5,1.39-1.15,2.68-2.04,3.86-.09.12-.13.27-.23.48.17-.05.26-.05.32-.09.85-.65,1.76-1.23,2.52-1.97.54-.53.91-1.24,1.26-1.93.24-.48.34-1.03.44-1.57.06-.32.02-.65-.29-.86ZM58.81,23.61c.64-.75,1.46-1.31,2.19-2-.85-.21-1.48,0-2.06.57-.63.61-1.3,1.17-1.97,1.74-.15.13-.34.21-.55.33-.07-.32.14-.4.28-.52.57-.47,1.14-.92,1.71-1.39.18-.15.34-.31.51-.47-.02-.04-.04-.08-.07-.12-.35.09-.71.14-1.03.27-.81.34-1.59.72-2.39,1.08-.18.08-.39.1-.58.15-.03-.05-.05-.1-.08-.15.1-.1.19-.24.31-.3.48-.22.96-.46,1.46-.62.83-.26,1.69-.46,2.52-.72.2-.06.4-.19.55-.34.23-.23.43-.49.62-.75.87-1.22,1.9-2.28,2.99-3.3.65-.61,1.23-1.3,1.85-1.97-.05-.15-.1-.3-.14-.43.02-.09.03-.15.05-.2.11-.22.21-.44.36-.64.9-1.17,1.54-2.49,2.06-3.87.16-.43.41-.84.63-1.25.24-.45.64-.72,1.1-.91.68-.28,1.18,0,1.29.72.11.71-.06,1.38-.35,2.02-.42.94-.93,1.84-1.69,2.52-.75.67-1.62,1.21-2.44,1.81-.23.17-.49.3-.67.51-.95,1.09-1.94,2.13-3.03,3.09-.92.81-1.65,1.78-2.5,2.83.71-.09,1.29-.14,1.86-.24.19-.03.35-.2.51-.32,1.43-1.01,2.85-2.05,4.31-3.02,1.13-.75,2.31-1.43,3.47-2.14.1-.06.2-.13.32-.21-.12-.57.13-1.01.51-1.37,1.28-1.19,2.55-2.43,4.16-3.18.57-.26,1.18-.43,1.78-.62.36-.11.72-.07,1.04.08.28.33.14.63-.06.86-.31.35-.63.71-1.01.97-1.47.99-2.95,1.97-4.46,2.91-.4.25-.91.32-1.37.47-.1.03-.2.05-.29.1-.8.51-1.6,1.03-2.4,1.55-.27.18-.54.37-.83.52-1.65.86-3.12,2-4.61,3.1-.04.03-.07.1-.15.23,1.94-.12,3.7-.75,5.5-1.07.6-.82,1.42-1.23,2.3-1.5.66-.2,1.34-.34,2.02-.47.57-.11,1.15-.23,1.72-.26.46-.02.94.06,1.39.16.55.11.78.39.81.86.03.44-.19.77-.69.97-.78.3-1.59.27-2.41.25-.89-.02-1.79-.03-2.68.03-.43.03-.85.23-1.28.35.37.75.29,1.03-.38,1.4-.37.2-.77.38-1.18.5-1.35.4-2.72.72-4.14.7-.34,0-.7-.03-1.03-.11-.35-.09-.64-.03-.94.13-.53.27-1.05.54-1.59.79-.23.11-.47.19-.73.23.75-.78,1.71-1.2,2.62-1.6.31-.33.58-.62.85-.92-.54-.12-1.01.01-1.43.4-.58.54-1.2,1.05-1.8,1.56-.16.13-.33.25-.5.37-.05-.06-.1-.13-.15-.19Z"/>
      <path class="cls-2" d="M.36,77.07c.02-.33.21-.47.43-.58,3.22-1.64,22.54-20.33,24.66-23.2,1.51-2.05,2.97-4.14,4.46-6.2.28-.4.59-.78.9-1.15.15-.17.33-.37.67-.22-.29.35-.58.65-.82.98-.86,1.21-1.68,2.46-2.56,3.65-1.22,1.66-2.43,3.32-3.74,4.91-1.82,2.21-20.81,20.26-23.38,21.56-.14.07-.29.15-.44.22-.03.02-.08.02-.18.03"/>
      <path class="cls-2" d="M.36,77.07c.02-.33.21-.47.43-.58,3.22-1.64,22.54-20.33,24.66-23.2,1.51-2.05,2.97-4.14,4.46-6.2.28-.4.59-.78.9-1.15.15-.17.33-.37.67-.22-.29.35-.58.65-.82.98-.86,1.21-1.68,2.46-2.56,3.65-1.22,1.66-2.43,3.32-3.74,4.91-1.82,2.21-20.81,20.26-23.38,21.56-.14.07-.29.15-.44.22-.03.02-.08.02-.18.03Z"/>
      <path class="cls-2" d="M47.82,50.8c-.01.06-.02.11-.03.17,1.93.36,3.85.78,5.67,1.54,1.85.78,3.5,1.86,5,3.35-.02-.18,0-.24-.03-.29-.87-1.85-2.22-3.25-4.07-4.14-.64-.31-1.31-.56-2.04-.57-1.5-.03-3-.04-4.5-.06M46.62,51.08s-.02.04-.03.06c.33.11.65.23.98.33,1.56.48,3.06,1.09,4.47,1.92,3.25,1.89,5.76,4.5,7.6,7.77.12.22.28.41.5.74.13-.35.23-.54.27-.75.23-1.27-.06-2.43-.83-3.45-1.65-2.17-3.72-3.83-6.26-4.83-1.24-.49-2.54-.86-3.83-1.21-.94-.25-1.91-.39-2.87-.58M37.05,2.88c-.05,0-.11,0-.16,0-.01.32.01.65-.05.96-.25,1.36-.52,2.72-.79,4.08-.01.08-.06.15-.08.23-.32,1.39-.55,2.8-.38,4.23.16,1.31.38,2.62.59,3.92.25,1.58.28,3.16-.08,4.73-.07.3-.15.59-.22.89.37-.46.64-.96.9-1.46,1.42-2.65,2.06-5.48,1.75-8.47-.12-1.17-.43-2.32-.73-3.46-.33-1.24-.58-2.49-.6-3.78,0-.62-.11-1.25-.16-1.87M34.07,43.6c1.21-.64,2.35-1.25,3.51-1.86,2.63-1.38,5.35-2.58,7.86-4.2,1.36-.88,2.63-1.84,3.88-2.86.89-.72,1.68-1.52,2.35-2.45.1-.13.17-.29.25-.44-1.69,1.08-3.52,1.65-5.41,2.09-.61.14-1.24.24-1.85.38-1.24.28-2.44.62-3.55,1.27-1.65.95-3.01,2.22-4.12,3.75-1,1.38-1.91,2.83-2.9,4.31M29.84,35.22c.29-.96.49-1.87.83-2.71.87-2.12,1.8-4.22,2.73-6.32.32-.72.73-1.41,1.08-2.12.63-1.26,1.23-2.53,1.42-3.94.17-1.32.08-2.64-.16-3.95-.31-1.72-.52-3.46-.54-5.21,0-.63.03-1.27.16-1.88.27-1.25.58-2.5.95-3.72.26-.86.31-1.73.33-2.6.02-.64-.06-1.3-.36-1.88-.48-.15-.56-.15-.95.03-.79.37-1.39.95-1.74,1.74-.28.63-.53,1.29-.68,1.96-.47,2.11-.74,4.26-.88,6.42-.08,1.3-.13,2.6-.16,3.9-.04,1.61-.06,3.21-.06,4.82,0,1.55.07,3.09.03,4.64-.06,2.13-.63,4.19-1.14,6.24-.37,1.48-.73,2.97-.87,4.6M29.94,37.21c-.3,1.51-.18,3.56.44,5.59.04.13.05.28.1.41.24.62.45,1.26.76,1.85.23.43.55.45.9.12.38-.36.77-.74,1.07-1.17.98-1.45,1.94-2.92,2.87-4.4.76-1.2,1.72-2.22,2.8-3.13,1.68-1.4,3.63-2.24,5.77-2.65,1.82-.35,3.61-.77,5.34-1.51,1.36-.58,2.31-1.55,3.12-2.72.1-.15.15-.33.22-.5.44-1.02.59-2.11.74-3.2.06-.42.13-.85.27-1.25.45-1.33.84-2.67.86-4.1.03-1.4-.11-2.76-.64-4.07-.33-.81-.66-1.62-1-2.43-.47-1.13-.78-2.3-.72-3.54.03-.67.04-1.34.03-2.01-.02-.9-.12-1.79-.51-2.62-.58-1.23-1.51-1.64-2.75-1.11-.7.3-1.39.7-1.98,1.19-1.34,1.1-2.52,2.37-3.51,3.8-.35.5-.7,1-1.02,1.52-2.07,3.36-4.13,6.73-6.2,10.1-1.55,2.53-3.23,4.97-4.39,7.73-1.03,2.45-2.02,4.89-2.56,8.09M32.33,45.82c.04.5.27.85.63,1.12.31.23.62.46.95.66,1.88,1.1,3.92,1.81,6.06,2.15,1.33.21,2.67.33,4.01.43,1.56.11,3.13.16,4.69.21,2.36.07,4.72.08,7.07.19,2.08.1,4.15.31,6.19.7,1.48.28,2.96.59,4.45.82.51.08,1.06.04,1.57-.06,1.23-.24,1.9-1.28,1.61-2.5-.15-.62-.43-1.23-.71-1.81-.43-.91-.8-1.83-.98-2.82-.26-1.43-.28-2.87-.24-4.32.04-1.65.26-3.28.5-4.92.22-1.48.23-2.97-.15-4.43-.58-2.26-1.91-3.9-4.12-4.73-1-.38-1.87-.92-2.7-1.61-1.33-1.1-2.89-1.38-4.52-.64-.48.22-.92.53-1.38.79-.58.32-.87.77-.92,1.46-.17,2.19-1.08,4.12-2.3,5.9-.76,1.11-1.72,2.03-2.77,2.89-1.98,1.62-4.09,3.02-6.35,4.2-2.19,1.14-4.41,2.22-6.59,3.37-1.01.53-1.96,1.16-2.92,1.78-.44.28-.86.63-1.08,1.17M38.31,18.3c.33-.53.67-1.06.99-1.6,1.17-1.93,2.34-3.87,3.52-5.8.27-.43.56-.85.85-1.27,1.02-1.46,2.23-2.75,3.56-3.93.65-.57,1.37-1.03,2.18-1.33,1.51-.57,2.69-.08,3.35,1.4.43.97.51,2.01.52,3.05,0,.67-.07,1.35-.02,2.01.09,1.03.3,2.04.67,3.01.32.84.68,1.66,1.02,2.49.62,1.5.74,3.07.62,4.68-.1,1.27-.41,2.48-.84,3.77.19-.09.31-.14.42-.2.25-.14.49-.29.73-.45,1.91-1.26,4.68-.59,5.88.69.58.62,1.32.94,2.09,1.22,2.61.95,4.1,2.85,4.63,5.53.23,1.16.26,2.34.11,3.53-.21,1.6-.4,3.2-.51,4.8-.11,1.67-.09,3.34.22,4.99.18.97.57,1.87,1,2.75.26.53.49,1.08.66,1.64.22.73.11,1.46-.3,2.12-.43.69-1.1,1.01-1.88,1.12-1.09.16-2.15-.06-3.21-.28-1.42-.29-2.83-.6-4.27-.79-1.61-.22-3.24-.33-4.87-.48-.36-.03-.72-.01-1.19-.02.5.27.92.47,1.31.72,1.22.79,2.2,1.8,2.9,3.09.59,1.1,1.21,2.17,1.8,3.27.58,1.07.72,2.2.43,3.37-.06.24-.2.47-.28.64-.45.14-.69,0-.87-.3-.17-.28-.32-.57-.49-.85-2.59-4.27-6.19-7.31-10.96-8.89-2.21-.73-4.43-1.38-6.75-1.65-2.55-.3-4.98-.99-7.28-2.15-1.35-.68-2.76-.67-4.06.25-.21.15-.38.36-.58.53-.66.58-1.33,1.15-2.03,1.7.27-.47.54-.94.82-1.4.64-1.06,1.04-2.2,1.27-3.41.31-1.6.24-3.19.05-4.8-.27-2.26-.36-4.53.02-6.81.32-1.97.83-3.9,1.27-5.85.29-1.27.5-2.57.55-3.87.08-2.25-.02-4.51,0-6.77.01-1.44.07-2.89.15-4.33.08-1.61.15-3.22.32-4.81.15-1.35.41-2.7.68-4.04.13-.65.35-1.3.59-1.92.37-.97,1.06-1.67,1.99-2.15.94-.49,1.85-.02,2.08.99.28,1.22.46,2.44.49,3.68.03,1.07.27,2.09.56,3.12.38,1.33.73,2.67.79,4.07.08,1.91-.1,3.78-.78,5.59-.03.09-.03.19-.05.29.04.01.08.03.12.04"/>
      <path class="cls-2" d="M47.82,50.8c-.01.06-.02.11-.03.17,1.93.36,3.85.78,5.67,1.54,1.85.78,3.5,1.86,5,3.35-.02-.18,0-.24-.03-.29-.87-1.85-2.22-3.25-4.07-4.14-.64-.31-1.31-.56-2.04-.57-1.5-.03-3-.04-4.5-.06ZM46.62,51.08s-.02.04-.03.06c.33.11.65.23.98.33,1.56.48,3.06,1.09,4.47,1.92,3.25,1.89,5.76,4.5,7.6,7.77.12.22.28.41.5.74.13-.35.23-.54.27-.75.23-1.27-.06-2.43-.83-3.45-1.65-2.17-3.72-3.83-6.26-4.83-1.24-.49-2.54-.86-3.83-1.21-.94-.25-1.91-.39-2.87-.58ZM37.05,2.88c-.05,0-.11,0-.16,0-.01.32.01.65-.05.96-.25,1.36-.52,2.72-.79,4.08-.01.08-.06.15-.08.23-.32,1.39-.55,2.8-.38,4.23.16,1.31.38,2.62.59,3.92.25,1.58.28,3.16-.08,4.73-.07.3-.15.59-.22.89.37-.46.64-.96.9-1.46,1.42-2.65,2.06-5.48,1.75-8.47-.12-1.17-.43-2.32-.73-3.46-.33-1.24-.58-2.49-.6-3.78,0-.62-.11-1.25-.16-1.87ZM34.07,43.6c1.21-.64,2.35-1.25,3.51-1.86,2.63-1.38,5.35-2.58,7.86-4.2,1.36-.88,2.63-1.84,3.88-2.86.89-.72,1.68-1.52,2.35-2.45.1-.13.17-.29.25-.44-1.69,1.08-3.52,1.65-5.41,2.09-.61.14-1.24.24-1.85.38-1.24.28-2.44.62-3.55,1.27-1.65.95-3.01,2.22-4.12,3.75-1,1.38-1.91,2.83-2.9,4.31ZM29.84,35.22c.29-.96.49-1.87.83-2.71.87-2.12,1.8-4.22,2.73-6.32.32-.72.73-1.41,1.08-2.12.63-1.26,1.23-2.53,1.42-3.94.17-1.32.08-2.64-.16-3.95-.31-1.72-.52-3.46-.54-5.21,0-.63.03-1.27.16-1.88.27-1.25.58-2.5.95-3.72.26-.86.31-1.73.33-2.6.02-.64-.06-1.3-.36-1.88-.48-.15-.56-.15-.95.03-.79.37-1.39.95-1.74,1.74-.28.63-.53,1.29-.68,1.96-.47,2.11-.74,4.26-.88,6.42-.08,1.3-.13,2.6-.16,3.9-.04,1.61-.06,3.21-.06,4.82,0,1.55.07,3.09.03,4.64-.06,2.13-.63,4.19-1.14,6.24-.37,1.48-.73,2.97-.87,4.6ZM29.94,37.21c-.3,1.51-.18,3.56.44,5.59.04.13.05.28.1.41.24.62.45,1.26.76,1.85.23.43.55.45.9.12.38-.36.77-.74,1.07-1.17.98-1.45,1.94-2.92,2.87-4.4.76-1.2,1.72-2.22,2.8-3.13,1.68-1.4,3.63-2.24,5.77-2.65,1.82-.35,3.61-.77,5.34-1.51,1.36-.58,2.31-1.55,3.12-2.72.1-.15.15-.33.22-.5.44-1.02.59-2.11.74-3.2.06-.42.13-.85.27-1.25.45-1.33.84-2.67.86-4.1.03-1.4-.11-2.76-.64-4.07-.33-.81-.66-1.62-1-2.43-.47-1.13-.78-2.3-.72-3.54.03-.67.04-1.34.03-2.01-.02-.9-.12-1.79-.51-2.62-.58-1.23-1.51-1.64-2.75-1.11-.7.3-1.39.7-1.98,1.19-1.34,1.1-2.52,2.37-3.51,3.8-.35.5-.7,1-1.02,1.52-2.07,3.36-4.13,6.73-6.2,10.1-1.55,2.53-3.23,4.97-4.39,7.73-1.03,2.45-2.02,4.89-2.56,8.09ZM32.33,45.82c.04.5.27.85.63,1.12.31.23.62.46.95.66,1.88,1.1,3.92,1.81,6.06,2.15,1.33.21,2.67.33,4.01.43,1.56.11,3.13.16,4.69.21,2.36.07,4.72.08,7.07.19,2.08.1,4.15.31,6.19.7,1.48.28,2.96.59,4.45.82.51.08,1.06.04,1.57-.06,1.23-.24,1.9-1.28,1.61-2.5-.15-.62-.43-1.23-.71-1.81-.43-.91-.8-1.83-.98-2.82-.26-1.43-.28-2.87-.24-4.32.04-1.65.26-3.28.5-4.92.22-1.48.23-2.97-.15-4.43-.58-2.26-1.91-3.9-4.12-4.73-1-.38-1.87-.92-2.7-1.61-1.33-1.1-2.89-1.38-4.52-.64-.48.22-.92.53-1.38.79-.58.32-.87.77-.92,1.46-.17,2.19-1.08,4.12-2.3,5.9-.76,1.11-1.72,2.03-2.77,2.89-1.98,1.62-4.09,3.02-6.35,4.2-2.19,1.14-4.41,2.22-6.59,3.37-1.01.53-1.96,1.16-2.92,1.78-.44.28-.86.63-1.08,1.17ZM38.31,18.3c.33-.53.67-1.06.99-1.6,1.17-1.93,2.34-3.87,3.52-5.8.27-.43.56-.85.85-1.27,1.02-1.46,2.23-2.75,3.56-3.93.65-.57,1.37-1.03,2.18-1.33,1.51-.57,2.69-.08,3.35,1.4.43.97.51,2.01.52,3.05,0,.67-.07,1.35-.02,2.01.09,1.03.3,2.04.67,3.01.32.84.68,1.66,1.02,2.49.62,1.5.74,3.07.62,4.68-.1,1.27-.41,2.48-.84,3.77.19-.09.31-.14.42-.2.25-.14.49-.29.73-.45,1.91-1.26,4.68-.59,5.88.69.58.62,1.32.94,2.09,1.22,2.61.95,4.1,2.85,4.63,5.53.23,1.16.26,2.34.11,3.53-.21,1.6-.4,3.2-.51,4.8-.11,1.67-.09,3.34.22,4.99.18.97.57,1.87,1,2.75.26.53.49,1.08.66,1.64.22.73.11,1.46-.3,2.12-.43.69-1.1,1.01-1.88,1.12-1.09.16-2.15-.06-3.21-.28-1.42-.29-2.83-.6-4.27-.79-1.61-.22-3.24-.33-4.87-.48-.36-.03-.72-.01-1.19-.02.5.27.92.47,1.31.72,1.22.79,2.2,1.8,2.9,3.09.59,1.1,1.21,2.17,1.8,3.27.58,1.07.72,2.2.43,3.37-.06.24-.2.47-.28.64-.45.14-.69,0-.87-.3-.17-.28-.32-.57-.49-.85-2.59-4.27-6.19-7.31-10.96-8.89-2.21-.73-4.43-1.38-6.75-1.65-2.55-.3-4.98-.99-7.28-2.15-1.35-.68-2.76-.67-4.06.25-.21.15-.38.36-.58.53-.66.58-1.33,1.15-2.03,1.7.27-.47.54-.94.82-1.4.64-1.06,1.04-2.2,1.27-3.41.31-1.6.24-3.19.05-4.8-.27-2.26-.36-4.53.02-6.81.32-1.97.83-3.9,1.27-5.85.29-1.27.5-2.57.55-3.87.08-2.25-.02-4.51,0-6.77.01-1.44.07-2.89.15-4.33.08-1.61.15-3.22.32-4.81.15-1.35.41-2.7.68-4.04.13-.65.35-1.3.59-1.92.37-.97,1.06-1.67,1.99-2.15.94-.49,1.85-.02,2.08.99.28,1.22.46,2.44.49,3.68.03,1.07.27,2.09.56,3.12.38,1.33.73,2.67.79,4.07.08,1.91-.1,3.78-.78,5.59-.03.09-.03.19-.05.29.04.01.08.03.12.04Z"/>
    </g>
  </g>
</svg>