<svg xmlns="http://www.w3.org/2000/svg" viewBox="0 0 80.1 106.36" xmlns:v="https://vecta.io/nano"><defs><clipPath id="A"><path d="M0 0h80.1v106.36H0z" fill="none" stroke-width="0"/></clipPath></defs><g clip-path="url(#A)" fill="#1d1d1b"><path d="M39.86 22.08l3.1-1.14c2.34-.98 4.53-2.22 6.6-3.68 4.02-2.82 7.58-6.18 11.17-9.49 1.98-1.82 4.01-3.58 6.3-5 1.21-.74 2.46-1.41 3.74-2.13.07.19.81-.42.86-.29-.56.3-1.82 1.32-2.39 1.61-2.44 1.25-4.61 2.9-6.65 4.71l-6.82 6.18c-2.28 2.03-4.67 3.91-7.22 5.58-.62.41-1.3.73-1.9 1.16-.62.44-1.26.84-1.96 1.13l-4.02 1.62c-.27.11-.59.2-.82-.26"/><path d="M39.86 22.08l3.1-1.14c2.34-.98 4.53-2.22 6.6-3.68 4.02-2.82 7.58-6.18 11.17-9.49 1.98-1.82 4.01-3.58 6.3-5 1.21-.74 2.46-1.41 3.74-2.13.07.19.81-.42.86-.29-.56.3-1.82 1.32-2.39 1.61-2.44 1.25-4.61 2.9-6.65 4.71l-6.82 6.18c-2.28 2.03-4.67 3.91-7.22 5.58-.62.41-1.3.73-1.9 1.16-.62.44-1.26.84-1.96 1.13l-4.02 1.62c-.27.11-.59.2-.82-.26z"/><path d="M32.66 30.29c.03.17.03.21.05.25.78 1.54 1.2 3.18 1.52 4.87.31 1.65.25 3.31.18 4.98-.05 1.16.04 2.32.07 3.48 0 .03.05.06.09.11l.17-.32 1.39-2.46c.37-.6.81-1.15 1.2-1.73.14-.21.22-.46.32-.67-.65-1.03-.84-2.13-1.01-3.25-.09-.65-.21-1.31-.45-1.92-.64-1.62-2.12-2.38-3.53-3.35m12.94 5.68s.08-.02.12-.04c-.01-.26.02-.52-.04-.76l-.74-2.6-1.76-5.25-1.32-3.29c-.51-1.03-1.49-1.55-2.59-1.97l.04.27c.02.08.05.16.09.22.5.76.65 1.64.75 2.51.08.69.06 1.4.1 2.1.04.75.11 1.49.48 2.15.5.9 1.07 1.74 1.85 2.42l1.14 1.07c.67.67 1.24 1.41 1.57 2.32l.31.84M8.08 52.24l-.74-1.16c-.34-.67-.35-1.41-.19-2.12l.68-2.49c.21-.69.36-1.38.3-2.12-.08-1.01-.77-1.78-1.77-1.8-.52-.01-1.04.07-1.56.09-.23 0-.46-.02-.65-.03-.07-.14-.12-.19-.11-.24.03-.55-.31-.83-.75-1.04-.18-.09-.35-.2-.52-.31-.72-.43-1.35-.95-1.61-1.8 0-.02-.06-.03-.15-.08-.39 1.18-.43 2.31.21 3.41.4.68 1.06 1.08 1.65 1.56.89.71 1.6 1.54 1.98 2.66.34 1 .44 2.03.64 3.06.11.59.21 1.2.7 1.62.52.44 1.15.63 1.87.79m18.51-21.35c-2.32.58-4.61.99-6.98.96h-2.28c-1.33.01-2.65.13-3.92.49-1.53.44-2.96 1.09-4.24 2.07-.58.45-1.23.82-1.88 1.17-.44.24-.95.36-1.42.53a.97.97 0 0 0 .53.2c2.38.15 4.73-.09 7.03-.65l4.92-1.36c2.06-.55 4.02-1.38 5.97-2.22.78-.34 1.52-.79 2.27-1.2m-7.61-11.75c.17.13.21.17.26.19 1.55.7 2.96 1.63 4.18 2.81.86.83 1.81 1.47 2.93 1.93a11.19 11.19 0 0 1 4.15 2.93c.23.26.42.54.67.86.14-.56.21-1.06.4-1.52.25-.62.32-1.23.25-1.88l-.06-.9c-.13-1.22-.75-2.15-1.76-2.8-.32-.2-.75-.25-1.14-.31-.41-.07-.84-.06-1.26-.12-1.13-.15-2.18-.55-3.19-1.07-1.04-.53-2.13-.72-3.27-.58-.69.09-1.37.28-2.17.44m12.27 2.19c-.18-.84-.53-1.47-.89-2.08-1.05-1.76-2.49-3.11-4.3-4.09-1.9-1.04-3.89-1.61-6.07-1.35-2.07.24-4.15.31-6.24.33a15.94 15.94 0 0 0-1.38.07c-1.14.11-2.05.64-2.75 1.55-.61.8-.56 1.64.18 2.31.29.27.64.49.99.67.73.38 1.52.49 2.33.52 1.85.08 3.67-.14 5.49-.43.3-.05.59-.12.88-.2 1.75-.5 3.48-.58 5.14.34.26.15.54.26.82.39 1.04.46 2.13.73 3.27.72.86 0 1.56.28 2.16.89.09.1.19.19.37.36m10.06 18.26c1.07.18 2.88-.51 3.72-1.7a1.88 1.88 0 0 0 .29-1.7 6.55 6.55 0 0 0-1.91-3.15l-1.66-1.58c-.85-.9-1.52-1.93-1.74-3.17-.14-.78-.16-1.59-.18-2.39-.03-1.04-.22-2.03-.64-2.98-.47-1.07-1.04-1.42-2.16-1.29-.36.04-.73.1-1.05.24-1.23.52-2.24 1.31-2.96 2.46-.8 1.28-1.32 2.66-1.47 4.19.27.47.6.91 1.08 1.24l1.48 1.03c2.01 1.29 3.6 2.99 4.98 4.92.86 1.21 1.6 2.49 2.22 3.87m-4.52-6.05l-.08.08.34 1.88c.13 1.02.31 2.02.84 2.92.22.37.2.72-.04 1.07l-.98 1.44c-1.08 1.38-1.85 2.91-2.3 4.6l-.69 2.43c-.64 2.13-.86 4.28-.4 6.47.13.62.43 1.11.95 1.47 1.23.83 2.42.88 3.65.03 2.54-1.75 4.11-4.13 4.45-7.24.23-2.08-.01-4.13-.58-6.13a21.08 21.08 0 0 0-3.78-7.39l-1.39-1.64M4.51 42.25l.48-.03 1.5-.08c.98-.05 2.03 1.09 2.04 1.94 0 .81-.05 1.6-.26 2.37l-.6 2.02c-.12.6-.19 1.23-.15 1.84.07 1.09 1.02 2.05 2.1 2.15.57.06 1.16.04 1.74 0 1.24-.08 2.39-.54 3.5-1.05.54-.24 1-.64 1.48-.94-.45-6.41 1.56-11.95 5.47-16.84l-6.25 1.89c-1.85.56-3.72.98-5.65 1.14-1.8.15-3.6.29-5.37-.28l-1.01-.31c-.23.19-.47.36-.68.57-.34.34-.69.68-1 1.04-.59.7-.61 1.27-.04 2a2.8 2.8 0 0 0 .61.58c.38.27.77.51 1.17.74.39.21.69.48.78.93.02.09.08.18.13.3m26.31-14.05c-.33-.64-.77-1.1-1.24-1.53-1.04-.93-2.2-1.69-3.47-2.27-.84-.38-1.72-.68-2.55-1.07-1.86-.86-3.79-1.4-5.83-1.63-3.86-.44-7.57-.04-11.05 1.81-1.71.91-3.25 2.07-4.51 3.55-.52.61-.92 1.31-.9 2.18l.02 2.95c.02.43.06.9.23 1.29.47 1.14 1.36 1.85 2.48 2.32.98.41 1.84.04 2.72-.3.89-.34 1.64-.92 2.39-1.49 1.52-1.14 3.23-1.83 5.08-2.21 1.19-.24 2.38-.28 3.59-.31 1.44-.04 2.89 0 4.32-.14 1.86-.17 3.69-.55 5.42-1.29.41-.17.81-.35 1.19-.57.71-.41 1.39-.85 2.1-1.29M18.54 52.49l-.01.75c-.06.6-.16 1.19-.18 1.8-.03.9.4 1.44 1.28 1.62.39.08.8.09 1.19.07.95-.06 1.85-.36 2.73-.7 1.35-.51 2.65-1.15 4.07-1.48.35-.08.71-.31.98-.56.5-.46 1-.94 1.4-1.48a16.98 16.98 0 0 0 2.28-4.1c1.09-2.8 1.51-5.74 1.72-8.71.24-3.41-.45-6.62-2-9.66-.28-.54-.57-1.1-1.1-1.49l-.86.59c-1.76 1.23-3.58 2.36-5.53 3.27-1.17.55-2.25 1.22-3.02 2.31-1.01 1.43-1.92 2.9-2.66 4.5-1.01 2.21-1.78 4.48-1.98 6.91-.13 1.5-.32 3-.02 4.5.14.71.32 1.41.96 1.85h.75m4.83-29.88c-.51-.41-.98-.87-1.53-1.22a50.8 50.8 0 0 0-3.11-1.84c-.28-.15-.65-.22-.98-.21-.71.03-1.42.09-2.14.2-1.47.23-2.96.24-4.41-.2-.72-.22-1.36-.59-1.88-1.15-.7-.77-.76-1.8-.14-2.64.85-1.16 2.03-1.73 3.45-1.82 1-.06 2-.06 3-.11l4.38-.27c2.05-.19 3.95.24 5.76 1.18 1.89.98 3.51 2.25 4.64 4.08 1.03 1.66 1.66 3.46 1.75 5.43 0 .14.01.28.03.42 0 .03.04.06.09.12.1-.14.19-.26.27-.39.92-1.49 2.23-2.45 3.92-2.9.63-.17 1.28-.16 1.91 0 .88.22 1.7.6 2.47 1.08.98.62 1.58 1.54 1.96 2.59.45 1.23.81 2.48 1.23 3.72l1.72 5.08c.16.47.28.97.34 1.46.24 1.98-.97 3.69-2.68 4.41-.57.24-1.19.34-1.86.52.06.18.12.4.2.61.65 1.86 1.09 3.77 1.2 5.75.21 3.5-.9 6.49-3.52 8.85a8.17 8.17 0 0 1-1.72 1.2c-1.47.77-2.98.3-4.03-.74-.43-.43-.57-1.01-.68-1.58-.4-1.97-.19-3.91.28-5.84.25-1.05.44-2.12.65-3.19.05-.27.05-.54.07-.82-.05 0-.09-.02-.14-.03l-.17.77c-.57 2.73-1.61 5.26-3.27 7.51-.44.59-.98 1.11-1.51 1.63-.48.48-1.11.69-1.76.87-.73.21-1.48.41-2.16.73-1.26.59-2.56 1.05-3.95 1.24-.51.07-1.05.05-1.55-.04-1.04-.19-1.64-.96-1.61-2.01.02-.68.13-1.36.2-2.06-1.13-.16-1.32-1.13-1.66-2.02-.47.28-.92.57-1.39.81-2.62 1.34-5.32 1.54-8.11.59-1.07-.36-1.67-1.12-1.83-2.24-.13-.89-.32-1.77-.48-2.66-.19-1.03-.71-1.87-1.5-2.54-.4-.34-.79-.68-1.2-.99C.49 42.84.08 41.38.41 39.66c.27-1.39 1.15-2.41 2.16-3.32l.51-.43c-.16-.13-.28-.24-.42-.34C1.4 34.63.72 33.42.81 31.81c.04-.82.02-1.64 0-2.46-.02-.67.16-1.26.49-1.83.69-1.19 1.74-2.03 2.8-2.86a16.06 16.06 0 0 1 5.6-2.85c2.54-.72 5.13-.84 7.75-.58a19.84 19.84 0 0 1 5.53 1.37c.1.04.21.07.32.1l.06-.09"/><path d="M32.66 30.29c.03.17.03.21.05.25.78 1.54 1.2 3.18 1.52 4.87.31 1.65.25 3.31.18 4.98-.05 1.16.04 2.32.07 3.48 0 .03.05.06.09.11l.17-.32 1.39-2.46c.37-.6.81-1.15 1.2-1.73.14-.21.22-.46.32-.67-.65-1.03-.84-2.13-1.01-3.25-.09-.65-.21-1.31-.45-1.92-.64-1.62-2.12-2.38-3.53-3.35zm12.94 5.67s.08-.02.12-.04c-.01-.26.02-.52-.04-.76l-.74-2.6-1.76-5.25-1.32-3.29c-.51-1.03-1.49-1.55-2.59-1.97l.04.27c.02.08.05.16.09.22.5.76.65 1.64.75 2.51.08.69.06 1.4.1 2.1.04.75.11 1.49.48 2.15.5.9 1.07 1.74 1.85 2.42l1.14 1.07c.67.67 1.24 1.41 1.57 2.32l.31.84zM8.08 52.24l-.74-1.16c-.34-.67-.35-1.41-.19-2.12l.68-2.49c.21-.69.36-1.38.3-2.12-.08-1.01-.77-1.78-1.77-1.8-.52-.01-1.04.07-1.56.09-.23 0-.46-.02-.65-.03-.07-.14-.12-.19-.11-.24.03-.55-.31-.83-.75-1.04-.18-.09-.35-.2-.52-.31-.72-.43-1.35-.95-1.61-1.8 0-.02-.06-.03-.15-.08-.39 1.18-.43 2.31.21 3.41.4.68 1.06 1.08 1.65 1.56.89.71 1.6 1.54 1.98 2.66.34 1 .44 2.03.64 3.06.11.59.21 1.2.7 1.62.52.44 1.15.63 1.87.79zm18.49-21.35c-2.32.58-4.61.99-6.98.96h-2.28c-1.33.01-2.65.13-3.92.49-1.53.44-2.96 1.09-4.24 2.07-.58.45-1.23.82-1.88 1.17-.44.24-.95.36-1.42.53a.97.97 0 0 0 .53.2c2.38.15 4.73-.09 7.03-.65l4.92-1.36c2.06-.55 4.02-1.38 5.97-2.22.78-.34 1.52-.79 2.27-1.2zm-7.61-11.76c.17.13.21.17.26.19 1.55.7 2.96 1.63 4.18 2.81.86.83 1.81 1.47 2.93 1.93a11.19 11.19 0 0 1 4.15 2.93c.23.26.42.54.67.86.14-.56.21-1.06.4-1.52.25-.62.32-1.23.25-1.88l-.06-.9c-.13-1.22-.75-2.15-1.76-2.8-.32-.2-.75-.25-1.14-.31-.41-.07-.84-.06-1.26-.12-1.13-.15-2.18-.55-3.19-1.07-1.04-.53-2.13-.72-3.27-.58-.69.09-1.37.28-2.17.44zm12.26 2.17c-.18-.84-.53-1.47-.89-2.08-1.05-1.76-2.49-3.11-4.3-4.09-1.9-1.04-3.89-1.61-6.07-1.35-2.07.24-4.15.31-6.24.33a15.94 15.94 0 0 0-1.38.07c-1.14.11-2.05.64-2.75 1.55-.61.8-.56 1.64.18 2.31.29.27.64.49.99.67.73.38 1.52.49 2.33.52 1.85.08 3.67-.14 5.49-.43.3-.05.59-.12.88-.2 1.75-.5 3.48-.58 5.14.34.26.15.54.26.82.39 1.04.46 2.13.73 3.27.72.86 0 1.56.28 2.16.89.09.1.19.19.37.36zm10.06 18.26c1.07.18 2.88-.51 3.72-1.7a1.88 1.88 0 0 0 .29-1.7 6.55 6.55 0 0 0-1.91-3.15l-1.66-1.58c-.85-.9-1.52-1.93-1.74-3.17-.14-.78-.16-1.59-.18-2.39-.03-1.04-.22-2.03-.64-2.98-.47-1.07-1.04-1.42-2.16-1.29-.36.04-.73.1-1.05.24-1.23.52-2.24 1.31-2.96 2.46-.8 1.28-1.32 2.66-1.47 4.19.27.47.6.91 1.08 1.24l1.48 1.03c2.01 1.29 3.6 2.99 4.98 4.92.86 1.21 1.6 2.49 2.22 3.87zm-4.52-6.06l-.08.08.34 1.88c.13 1.02.31 2.02.84 2.92.22.37.2.72-.04 1.07l-.98 1.44c-1.08 1.38-1.85 2.91-2.3 4.6l-.69 2.43c-.64 2.13-.86 4.28-.4 6.47.13.62.43 1.11.95 1.47 1.23.83 2.42.88 3.65.03 2.54-1.75 4.11-4.13 4.45-7.24.23-2.08-.01-4.13-.58-6.13a21.08 21.08 0 0 0-3.78-7.39l-1.39-1.64zM4.51 42.25l.48-.03 1.5-.08c.98-.05 2.03 1.09 2.04 1.94 0 .81-.05 1.6-.26 2.37l-.6 2.02c-.12.6-.19 1.23-.15 1.84.07 1.09 1.02 2.05 2.1 2.15.57.06 1.16.04 1.74 0 1.24-.08 2.39-.54 3.5-1.05.54-.24 1-.64 1.48-.94-.45-6.41 1.56-11.95 5.47-16.84l-6.25 1.89c-1.85.56-3.72.98-5.65 1.14-1.8.15-3.6.29-5.37-.28l-1.01-.31c-.23.19-.47.36-.68.57-.34.34-.69.68-1 1.04-.59.7-.61 1.27-.04 2a2.8 2.8 0 0 0 .61.58c.38.27.77.51 1.17.74.39.21.69.48.78.93.02.09.08.18.13.3zm26.3-14.07c-.33-.64-.77-1.1-1.24-1.53-1.04-.93-2.2-1.69-3.47-2.27-.84-.38-1.72-.68-2.55-1.07-1.86-.86-3.79-1.4-5.83-1.63-3.86-.44-7.57-.04-11.05 1.81-1.71.91-3.25 2.07-4.51 3.55-.52.61-.92 1.31-.9 2.18l.02 2.95c.02.43.06.9.23 1.29.47 1.14 1.36 1.85 2.48 2.32.98.41 1.84.04 2.72-.3.89-.34 1.64-.92 2.39-1.49 1.52-1.14 3.23-1.83 5.08-2.21 1.19-.24 2.38-.28 3.59-.31 1.44-.04 2.89 0 4.32-.14 1.86-.17 3.69-.55 5.42-1.29.41-.17.81-.35 1.19-.57.71-.41 1.39-.85 2.1-1.29zM18.54 52.49l-.01.75c-.06.6-.16 1.19-.18 1.8-.03.9.4 1.44 1.28 1.62.39.08.8.09 1.19.07.95-.06 1.85-.36 2.73-.7 1.35-.51 2.65-1.15 4.07-1.48.35-.08.71-.31.98-.56.5-.46 1-.94 1.4-1.48a16.98 16.98 0 0 0 2.28-4.1c1.09-2.8 1.51-5.74 1.72-8.71.24-3.41-.45-6.62-2-9.66-.28-.54-.57-1.1-1.1-1.49l-.86.59c-1.76 1.23-3.58 2.36-5.53 3.27-1.17.55-2.25 1.22-3.02 2.31-1.01 1.43-1.92 2.9-2.66 4.5-1.01 2.21-1.78 4.48-1.98 6.91-.13 1.5-.32 3-.02 4.5.14.71.32 1.41.96 1.85h.75zm4.83-29.89c-.51-.41-.98-.87-1.53-1.22a50.8 50.8 0 0 0-3.11-1.84c-.28-.15-.65-.22-.98-.21-.71.03-1.42.09-2.14.2-1.47.23-2.96.24-4.41-.2-.72-.22-1.36-.59-1.88-1.15-.7-.77-.76-1.8-.14-2.64.85-1.16 2.03-1.73 3.45-1.82 1-.06 2-.06 3-.11l4.38-.27c2.05-.19 3.95.24 5.76 1.18 1.89.98 3.51 2.25 4.64 4.08 1.03 1.66 1.66 3.46 1.75 5.43 0 .14.01.28.03.42 0 .03.04.06.09.12.1-.14.19-.26.27-.39.92-1.49 2.23-2.45 3.92-2.9.63-.17 1.28-.16 1.91 0 .88.22 1.7.6 2.47 1.08.98.62 1.58 1.54 1.96 2.59.45 1.23.81 2.48 1.23 3.72l1.72 5.08c.16.47.28.97.34 1.46.24 1.98-.97 3.69-2.68 4.41-.57.24-1.19.34-1.86.52.06.18.12.4.2.61.65 1.86 1.09 3.77 1.2 5.75.21 3.5-.9 6.49-3.52 8.85a8.17 8.17 0 0 1-1.72 1.2c-1.47.77-2.98.3-4.03-.74-.43-.43-.57-1.01-.68-1.58-.4-1.97-.19-3.91.28-5.84.25-1.05.44-2.12.65-3.19.05-.27.05-.54.07-.82-.05 0-.09-.02-.14-.03l-.17.77c-.57 2.73-1.61 5.26-3.27 7.51-.44.59-.98 1.11-1.51 1.63-.48.48-1.11.69-1.76.87-.73.21-1.48.41-2.16.73-1.26.59-2.56 1.05-3.95 1.24-.51.07-1.05.05-1.55-.04-1.04-.19-1.64-.96-1.61-2.01.02-.68.13-1.36.2-2.06-1.13-.16-1.32-1.13-1.66-2.02-.47.28-.92.57-1.39.81-2.62 1.34-5.32 1.54-8.11.59-1.07-.36-1.67-1.12-1.83-2.24-.13-.89-.32-1.77-.48-2.66-.19-1.03-.71-1.87-1.5-2.54-.4-.34-.79-.68-1.2-.99C.49 42.84.08 41.38.41 39.66c.27-1.39 1.15-2.41 2.16-3.32l.51-.43c-.16-.13-.28-.24-.42-.34C1.4 34.63.72 33.42.81 31.81c.04-.82.02-1.64 0-2.46-.02-.67.16-1.26.49-1.83.69-1.19 1.74-2.03 2.8-2.86a16.06 16.06 0 0 1 5.6-2.85c2.54-.72 5.13-.84 7.75-.58a19.84 19.84 0 0 1 5.53 1.37c.1.04.21.07.32.1l.06-.09zm13.97 77.16c-.26.12-.5.2-.7.34-1.36.97-2.18 2.32-2.62 3.92-.09.33-.11.68.14.96.48.04.76-.07 1.05-.42l.52-.66c.67-.88 1.26-1.81 1.63-2.87.13-.37.29-.76-.02-1.26m.44-.16c.23.73.04 1.36-.23 1.97a12.25 12.25 0 0 1-2.26 3.39c-.05.06-.11.11-.18.16-.32.22-.67.41-1.06.21-.41-.2-.42-.6-.45-.99 0-.16.02-.32.07-.47.47-1.57 1.24-2.96 2.59-3.95.38-.27.84-.42 1.31-.58 5.96-7.22 11.25-14.88 14.78-23.65.04.02.08.03.12.05-.05.22-.08.45-.17.66-1.97 4.83-4.42 9.4-7.38 13.71-.29.43-.53.9-.82 1.32-.25.36-.55.69-.81 1.04-1.75 2.42-3.49 4.86-5.52 7.12"/><path d="M37.34 99.76c-.26.12-.5.2-.7.34-1.36.97-2.18 2.32-2.62 3.92-.09.33-.11.68.14.96.48.04.76-.07 1.05-.42l.52-.66c.67-.88 1.26-1.81 1.63-2.87.13-.37.29-.76-.02-1.26zm.44-.15c.23.73.04 1.36-.23 1.97a12.25 12.25 0 0 1-2.26 3.39c-.05.06-.11.11-.18.16-.32.22-.67.41-1.06.21-.41-.2-.42-.6-.45-.99 0-.16.02-.32.07-.47.47-1.57 1.24-2.96 2.59-3.95.38-.27.84-.42 1.31-.58 5.96-7.22 11.25-14.88 14.78-23.65.04.02.08.03.12.05-.05.22-.08.45-.17.66-1.97 4.83-4.42 9.4-7.38 13.71-.29.43-.53.9-.82 1.32-.25.36-.55.69-.81 1.04-1.75 2.42-3.49 4.86-5.52 7.12zm-3.26-3.39c1.07-.34 1.88-.73 2.58-1.31l2.2-1.95c.21-.2.33-.54.42-.84.12-.42-.18-.66-.6-.48-.2.08-.37.23-.55.36l-2.53 1.68c-.4.24-.9.32-1.36.47-.67.22-1.23.58-1.61 1.18-.3.47-.14.84.41.91.41.05.83-.01 1.05-.02m5.48-4.72c.28.83-.07 1.42-.7 1.94l-1.98 1.75a6.45 6.45 0 0 1-2.85 1.36c-.27.06-.55.08-.83.09-.4.02-.71-.15-.87-.52-.17-.39-.22-.8.06-1.14.48-.58.97-1.14 1.78-1.33 1.23-.28 2.32-.88 3.31-1.65l.52-.41c.6-.46.65-.47 1.44-.33l2.02-2.08c3.53-3.45 6.32-7.46 8.81-11.69.35-.6.77-1.16 1.2-1.71.06.35-.16.62-.31.89-.34.59-.73 1.15-1.08 1.73-2.1 3.55-4.48 6.9-7.31 9.91-.91.96-1.87 1.87-2.81 2.8-.13.13-.26.25-.41.39"/><path d="M34.52 96.22c1.07-.34 1.88-.73 2.58-1.31l2.2-1.95c.21-.2.33-.54.42-.84.12-.42-.18-.66-.6-.48-.2.08-.37.23-.55.36l-2.53 1.68c-.4.24-.9.32-1.36.47-.67.22-1.23.58-1.61 1.18-.3.47-.14.84.41.91.41.05.83-.01 1.05-.02zm5.49-4.72c.28.83-.07 1.42-.7 1.94l-1.98 1.75a6.45 6.45 0 0 1-2.85 1.36c-.27.06-.55.08-.83.09-.4.02-.71-.15-.87-.52-.17-.39-.22-.8.06-1.14.48-.58.97-1.14 1.78-1.33 1.23-.28 2.32-.88 3.31-1.65l.52-.41c.6-.46.65-.47 1.44-.33l2.02-2.08c3.53-3.45 6.32-7.46 8.81-11.69.35-.6.77-1.16 1.2-1.71.06.35-.16.62-.31.89-.34.59-.73 1.15-1.08 1.73-2.1 3.55-4.48 6.9-7.31 9.91-.91.96-1.87 1.87-2.81 2.8-.13.13-.26.25-.41.39zm2.2 14.19c.21-.36.38-.58.47-.83.15-.43.28-.88.36-1.33l.6-4.1c.05-.39.06-.8.05-1.2 0-.18-.07-.36-.14-.69-.21.24-.35.36-.43.5a7.58 7.58 0 0 0-.42.86c-.4.96-.65 1.97-.89 2.99-.25 1.07-.24 2.09.04 3.13.05.19.19.36.36.67m1.31-8.65l1.39-3.3 1.02-2.18 3.12-5.97 2.38-5.06.25-.54.13.03c-.05.19-.07.4-.15.58l-1.51 3.54-2.4 4.52-2.92 6.07-1.07 2.44c.38.83.33 1.63.22 2.43l-.67 4.34c-.09.51-.3 1-.5 1.48-.12.29-.35.52-.7.48-.32-.04-.45-.3-.55-.57-.31-.85-.38-1.72-.3-2.61.16-1.68.71-3.25 1.47-4.75.17-.34.5-.6.78-.93"/><path d="M42.21 105.69c.21-.36.38-.58.47-.83.15-.43.28-.88.36-1.33l.6-4.1c.05-.39.06-.8.05-1.2 0-.18-.07-.36-.14-.69-.21.24-.35.36-.43.5a7.58 7.58 0 0 0-.42.86c-.4.96-.65 1.97-.89 2.99-.25 1.07-.24 2.09.04 3.13.05.19.19.36.36.67zm1.31-8.65l1.39-3.3 1.02-2.18 3.12-5.97 2.38-5.06.25-.54.13.03c-.05.19-.07.4-.15.58l-1.51 3.54-2.4 4.52-2.92 6.07-1.07 2.44c.38.83.33 1.63.22 2.43l-.67 4.34c-.09.51-.3 1-.5 1.48-.12.29-.35.52-.7.48-.32-.04-.45-.3-.55-.57-.31-.85-.38-1.72-.3-2.61.16-1.68.71-3.25 1.47-4.75.17-.34.5-.6.78-.93zm5.43-3.03c-.06 0-.13-.02-.19-.03-.11.15-.26.29-.33.46-.46 1.32-.57 2.65-.12 3.99.1.29.25.6.61.67.38-.1.41-.43.48-.71.23-1.03.16-2.07-.06-3.09-.1-.44-.25-.87-.38-1.3m.04-.51c.63.99.8 2.06.85 3.15.03.57-.04 1.16-.1 1.73-.02.21-.1.43-.2.63-.27.55-.81.62-1.21.16-.37-.42-.51-.96-.58-1.49-.13-1-.08-2 .22-2.98.14-.44.31-.87.74-1.14.79-3.84 1.44-7.71 3.02-11.33.01.64-.3 1.2-.47 1.8l-.56 1.91a63.52 63.52 0 0 0-.48 1.86l-.43 1.88-.4 1.94-.41 1.89"/><path d="M48.95 94.01c-.06 0-.13-.02-.19-.03-.11.15-.26.29-.33.46-.46 1.32-.57 2.65-.12 3.99.1.29.25.6.61.67.38-.1.41-.43.48-.71.23-1.03.16-2.07-.06-3.09-.1-.44-.25-.87-.38-1.3zm.05-.52c.63.99.8 2.06.85 3.15.03.57-.04 1.16-.1 1.73-.02.21-.1.43-.2.63-.27.55-.81.62-1.21.16-.37-.42-.51-.96-.58-1.49-.13-1-.08-2 .22-2.98.14-.44.31-.87.74-1.14.79-3.84 1.44-7.71 3.02-11.33.01.64-.3 1.2-.47 1.8l-.56 1.91a63.52 63.52 0 0 0-.48 1.86l-.43 1.88-.4 1.94-.41 1.89zM79.75.57c0 .08 0 .12-.01.16-1.3 2.89-15.14 52.13-16.35 55.06-.11.26-.22.52-.35.77-.08.15-.2.27-.3.41-.04-.01-.09-.03-.13-.05 0-.12-.03-.25.02-.35.96-2.42 14.72-51.1 15.69-53.52l.82-2.06c.1-.27.26-.45.61-.42"/><path d="M79.75.57c0 .08 0 .12-.01.16-1.3 2.89-15.14 52.13-16.35 55.06-.11.26-.22.52-.35.77-.08.15-.2.27-.3.41-.04-.01-.09-.03-.13-.05 0-.12-.03-.25.02-.35.96-2.42 14.72-51.1 15.69-53.52l.82-2.06c.1-.27.26-.45.61-.42z"/><path d="M65.57 77.61c-.04 3.98 1.42 7.44 3.95 10.49.01-.15-.04-.27-.09-.4-.26-.75-.6-1.49-.76-2.27-.33-1.64-.87-3.21-1.58-4.72-.49-1.05-1.02-2.08-1.53-3.1m-13.38 1.43c-.06.18-.09.25-.09.32-.12 1.4-.14 2.81.22 4.18.4 1.49.9 2.95 1.34 4.43.41 1.39.78 2.78 1.16 4.18l.17.6c.11-.1.16-.14.18-.18.53-1.26.92-2.57.94-3.95.01-.87-.01-1.74-.36-2.54-.35-.81-.77-1.58-1.2-2.35-.85-1.49-1.95-2.85-2.36-4.68M24.3 74.99s.08.05.12.07l.42-.43c1.05-1.1 2.24-2.02 3.68-2.53 1.09-.39 2.22-.69 3.34-1.01 1.04-.3 2.07-.61 3.05-1.09 1.66-.82 3.17-1.88 4.65-2.98 2.38-1.76 4.98-3.06 7.86-3.78.53-.13 1.05-.27 1.56-.45.45-.17.94-.31 1.26-.81-.86.31-1.66.62-2.48.88-2.61.83-5.31 1.28-7.98 1.81-2.07.42-4.11.94-6.04 1.81-2.35 1.07-4.53 2.4-6.35 4.27-1.05 1.08-2.02 2.24-2.76 3.56-.12.22-.22.46-.33.69m5.95.72c.73.17 1.42.05 2.08-.19 1.19-.44 2.31-1.01 3.33-1.77.69-.52 1.37-1.06 2.1-1.51 3.94-2.39 7.34-5.44 10.7-8.55.13-.12.25-.26.37-.4-.03-.04-.06-.09-.09-.13l-3.26 1.05c-1.82.61-3.47 1.54-5.04 2.64-1.15.81-2.28 1.64-3.46 2.4-1.71 1.11-3.56 1.95-5.57 2.32-1.42.26-2.75.72-4 1.42-1.33.75-2.4 1.8-3.31 2.95.16 1.18.85 1.67 1.89 1.33.62-.2 1.26-.44 1.82-.78.58-.35 1.08-.83 1.6-1.26.19-.15.35-.33.65-.23l.19.7m34.84 2.94s-.04.02-.05.06l-.15.46c-.77 2.47-1.1 5.01-1.16 7.59-.08 3.17-.18 6.32-.89 9.44-.27 1.2-.02 2.43.23 3.63.11.55.38.69.93.53.3-.09.61-.22.88-.38.88-.52 1.57-1.24 2.17-2.06 1.69-2.33 2.29-4.96 2.12-7.79-.07-1.14-.38-2.17-1.05-3.14-.96-1.38-1.78-2.86-2.2-4.51-.32-1.26-.55-2.54-.82-3.81m2.01-9.84h-.07c-.02.11-.06.22-.06.34a28.91 28.91 0 0 1-.89 5.7c-.12.48-.25.98-.26 1.47-.02.95.34 1.8.79 2.61.95 1.68 1.71 3.45 2.16 5.33l.4 1.58c.26 1.06.69 2.05 1.26 2.98.44.72.13 1.2.96 1.4.43.1.76.35 1.01.71.33.48.63.98.99 1.43.46.58.93 1.16 1.48 1.65.61.54 1.14.45 1.66-.19.48-.59.78-1.26.93-2 .25-1.22.19-2.43-.1-3.64-.38-1.55-1.11-2.93-2.09-4.16-1.08-1.37-2.22-2.69-3.34-4.03-1.07-1.28-2.11-2.57-2.97-4-1.13-1.87-1-3.86-1.54-5.97-.1-.4-.22-.8-.33-1.2M43.22 80.98a.59.59 0 0 0 .73.23c.32-.1.67-.18.96-.35 1.09-.63 2.19-1.26 3.23-1.97 1.48-1.01 2.83-2.18 3.95-3.59.2-.25.38-.53.47-.83 1.1-3.66 2.74-7.08 4.53-10.43.97-1.81 1.95-3.61 3.41-5.09.12-.12.21-.3.27-.46.14-.41.02-.71-.38-.89-.2-.09-.42-.16-.63-.18-.92-.12-1.79.02-2.64.4-1.35.6-2.55 1.44-3.74 2.29-2.46 1.76-4.58 3.9-6.82 5.9-2.15 1.93-4.34 3.81-6.76 5.41-1.17.77-2.36 1.52-3.47 2.38-1.64 1.28-3.22 2.65-4.81 4-.91.78-1.34 1.83-1.53 2.99a3.42 3.42 0 0 0 0 1.01 1.19 1.19 0 0 0 1.2 1.06c.36.02.73.01 1.08-.07 1.5-.37 2.92.03 4.31.5 1.09.36 2.54.11 3.32-.75l2.85-3.16c.13-.15.32-.25.56-.43.34.76-.17 1.38-.08 2.03m22.69-17.94c-.19-.85-.61-1.84-1.16-2.78-.32-.54-.7-1.03-1.24-1.37-.91-.58-1.86-.49-2.62.27-.81.8-1.46 1.71-2.05 2.67-1.57 2.56-2.89 5.24-4.1 7.98-1.05 2.37-1.91 4.81-2.41 7.37-.06.29-.07.59-.07.89 0 .85.34 1.61.74 2.33.64 1.13 1.34 2.23 2.02 3.34.78 1.26 1.36 2.59 1.46 4.09.08 1.17-.02 2.34-.43 3.44-.36.99-.88 1.93-1.24 2.92-.39 1.05-.73 2.13-.99 3.22-.19.79-.25 1.62-.3 2.44-.05.83.22 1.58.72 2.24.39.51.89.86 1.55.75.65-.11 1.32-.23 1.9-.51 1.95-.95 3.19-2.58 4.05-4.52.51-1.16.82-2.39 1.04-3.64.38-2.1.44-4.23.48-6.35.06-3.02.34-6 1.24-8.91.43-1.38.81-2.77 1.14-4.18.3-1.29.57-2.59.74-3.9.34-2.54.31-5.08-.46-7.79M52.08 76.08l-1.85 1.72c-1.03.97-2.23 1.69-3.4 2.48-.66.44-1.29.93-2.03 1.24-.22.09-.45.19-.68.24-.83.18-1.38-.32-1.32-1.15.01-.15.04-.31-.04-.52l-.4.48c-.78.85-1.47 1.79-2.4 2.51-1.17.91-2.44 1.04-3.81.65-.26-.08-.51-.22-.77-.31-1.09-.39-2.21-.37-3.33-.17a9.61 9.61 0 0 1-.53.07c-1.28.11-1.95-.68-1.99-1.94-.01-.49.08-1 .23-1.48.3-.97.79-1.84 1.57-2.52l1.31-1.16c.14-.13.28-.26.37-.5-.2.06-.4.12-.6.16-.47.1-.94.22-1.41.29-.55.09-1.06.03-1.3-.64-.17.15-.3.24-.4.35-.95.96-2.16 1.45-3.4 1.86-1.04.34-2.16-.5-2.22-1.59-.03-.67.14-1.29.48-1.84.47-.77.95-1.54 1.51-2.25 1.84-2.35 4.15-4.11 6.8-5.44 1.69-.85 3.45-1.53 5.29-1.95 1.33-.3 2.68-.53 4.02-.79.57-.11 1.15-.21 1.71-.34 1.27-.3 2.55-.56 3.8-.93 2.02-.6 3.97-1.39 5.65-2.72.78-.62 1.65-1.13 2.49-1.68 1.22-.78 2.55-1.22 4.01-1.31 1.33-.07 2.58-.4 3.49-1.49.1-.12.29-.16.41-.23.09.67.08 1.3.27 1.87.23.69.59 1.36.97 1.99 1.4 2.37 2.23 4.91 2.38 7.67.02.41.14.82.24 1.22.18.7.41 1.39.59 2.09.86 3.34 1.56 6.27 3.79 8.89l3.52 4.2c.83.99 1.56 2.05 2.05 3.24.74 1.79 1.13 3.64.71 5.59-.15.72-.45 1.37-.87 1.97-.53.76-1.57 1.26-2.52.33-.49-.47-.92-1-1.35-1.53-.24-.29-.44-.62-.64-.95a2.92 2.92 0 0 0-1.59-1.29c-.6-.21-.24-.64-.77-1.03-.27-.19-.49-.46-.82-.78.08.56.16 1 .19 1.44.19 2.87-.38 5.55-2.08 7.93-.72 1.01-1.57 1.88-2.7 2.44a3.84 3.84 0 0 1-.67.25c-.81.21-1.33-.14-1.43-.99-.09-.71-.15-1.43-.24-2.3l-.28.61c-.86 1.87-2.07 3.44-3.88 4.47-.72.41-1.49.68-2.33.74s-1.49-.25-1.98-.91c-.61-.82-.89-1.77-.81-2.77.08-.98.24-1.95.44-2.91.17-.8.43-1.59.66-2.38.21-.71.24-1.41.03-2.13l-1.47-5.16c-.29-.98-.65-1.94-.91-2.93a10.96 10.96 0 0 1-.33-2.14c-.04-.69.07-1.39.08-2.08 0-1.13.17-2.24.41-3.34.02-.11.03-.23.06-.45"/><path d="M65.57 77.61c-.04 3.98 1.42 7.44 3.95 10.49.01-.15-.04-.27-.09-.4-.26-.75-.6-1.49-.76-2.27-.33-1.64-.87-3.21-1.58-4.72-.49-1.05-1.02-2.08-1.53-3.1zm-13.39 1.43c-.06.18-.09.25-.09.32-.12 1.4-.14 2.81.22 4.18.4 1.49.9 2.95 1.34 4.43.41 1.39.78 2.78 1.16 4.18l.17.6c.11-.1.16-.14.18-.18.53-1.26.92-2.57.94-3.95.01-.87-.01-1.74-.36-2.54-.35-.81-.77-1.58-1.2-2.35-.85-1.49-1.95-2.85-2.36-4.68zM24.3 74.99s.08.05.12.07l.42-.43c1.05-1.1 2.24-2.02 3.68-2.53 1.09-.39 2.22-.69 3.34-1.01 1.04-.3 2.07-.61 3.05-1.09 1.66-.82 3.17-1.88 4.65-2.98 2.38-1.76 4.98-3.06 7.86-3.78.53-.13 1.05-.27 1.56-.45.45-.17.94-.31 1.26-.81-.86.31-1.66.62-2.48.88-2.61.83-5.31 1.28-7.98 1.81-2.07.42-4.11.94-6.04 1.81-2.35 1.07-4.53 2.4-6.35 4.27-1.05 1.08-2.02 2.24-2.76 3.56-.12.22-.22.46-.33.69zm5.95.73c.73.17 1.42.05 2.08-.19 1.19-.44 2.31-1.01 3.33-1.77.69-.52 1.37-1.06 2.1-1.51 3.94-2.39 7.34-5.44 10.7-8.55.13-.12.25-.26.37-.4-.03-.04-.06-.09-.09-.13l-3.26 1.05c-1.82.61-3.47 1.54-5.04 2.64-1.15.81-2.28 1.64-3.46 2.4-1.71 1.11-3.56 1.95-5.57 2.32-1.42.26-2.75.72-4 1.42-1.33.75-2.4 1.8-3.31 2.95.16 1.18.85 1.67 1.89 1.33.62-.2 1.26-.44 1.82-.78.58-.35 1.08-.83 1.6-1.26.19-.15.35-.33.65-.23l.19.7zm34.84 2.93s-.04.02-.05.06l-.15.46c-.77 2.47-1.1 5.01-1.16 7.59-.08 3.17-.18 6.32-.89 9.44-.27 1.2-.02 2.43.23 3.63.11.55.38.69.93.53.3-.09.61-.22.88-.38.88-.52 1.57-1.24 2.17-2.06 1.69-2.33 2.29-4.96 2.12-7.79-.07-1.14-.38-2.17-1.05-3.14-.96-1.38-1.78-2.86-2.2-4.51-.32-1.26-.55-2.54-.82-3.81zm2.02-9.82h-.07c-.02.11-.06.22-.06.34a28.91 28.91 0 0 1-.89 5.7c-.12.48-.25.98-.26 1.47-.02.95.34 1.8.79 2.61.95 1.68 1.71 3.45 2.16 5.33l.4 1.58c.26 1.06.69 2.05 1.26 2.98.44.72.13 1.2.96 1.4.43.1.76.35 1.01.71.33.48.63.98.99 1.43.46.58.93 1.16 1.48 1.65.61.54 1.14.45 1.66-.19.48-.59.78-1.26.93-2 .25-1.22.19-2.43-.1-3.64-.38-1.55-1.11-2.93-2.09-4.16-1.08-1.37-2.22-2.69-3.34-4.03-1.07-1.28-2.11-2.57-2.97-4-1.13-1.87-1-3.86-1.54-5.97-.1-.4-.22-.8-.33-1.2zM43.22 80.98a.59.59 0 0 0 .73.23c.32-.1.67-.18.96-.35 1.09-.63 2.19-1.26 3.23-1.97 1.48-1.01 2.83-2.18 3.95-3.59.2-.25.38-.53.47-.83 1.1-3.66 2.74-7.08 4.53-10.43.97-1.81 1.95-3.61 3.41-5.09.12-.12.21-.3.27-.46.14-.41.02-.71-.38-.89-.2-.09-.42-.16-.63-.18-.92-.12-1.79.02-2.64.4-1.35.6-2.55 1.44-3.74 2.29-2.46 1.76-4.58 3.9-6.82 5.9-2.15 1.93-4.34 3.81-6.76 5.41-1.17.77-2.36 1.52-3.47 2.38-1.64 1.28-3.22 2.65-4.81 4-.91.78-1.34 1.83-1.53 2.99a3.42 3.42 0 0 0 0 1.01 1.19 1.19 0 0 0 1.2 1.06c.36.02.73.01 1.08-.07 1.5-.37 2.92.03 4.31.5 1.09.36 2.54.11 3.32-.75l2.85-3.16c.13-.15.32-.25.56-.43.34.76-.17 1.38-.08 2.03zm22.7-17.94c-.19-.85-.61-1.84-1.16-2.78-.32-.54-.7-1.03-1.24-1.37-.91-.58-1.86-.49-2.62.27-.81.8-1.46 1.71-2.05 2.67-1.57 2.56-2.89 5.24-4.1 7.98-1.05 2.37-1.91 4.81-2.41 7.37-.06.29-.07.59-.07.89 0 .85.34 1.61.74 2.33.64 1.13 1.34 2.23 2.02 3.34.78 1.26 1.36 2.59 1.46 4.09.08 1.17-.02 2.34-.43 3.44-.36.99-.88 1.93-1.24 2.92-.39 1.05-.73 2.13-.99 3.22-.19.79-.25 1.62-.3 2.44-.05.83.22 1.58.72 2.24.39.51.89.86 1.55.75.65-.11 1.32-.23 1.9-.51 1.95-.95 3.19-2.58 4.05-4.52.51-1.16.82-2.39 1.04-3.64.38-2.1.44-4.23.48-6.35.06-3.02.34-6 1.24-8.91.43-1.38.81-2.77 1.14-4.18.3-1.29.57-2.59.74-3.9.34-2.54.31-5.08-.46-7.79zM52.08 76.08l-1.85 1.72c-1.03.97-2.23 1.69-3.4 2.48-.66.44-1.29.93-2.03 1.24-.22.09-.45.19-.68.24-.83.18-1.38-.32-1.32-1.15.01-.15.04-.31-.04-.52l-.4.48c-.78.85-1.47 1.79-2.4 2.51-1.17.91-2.44 1.04-3.81.65-.26-.08-.51-.22-.77-.31-1.09-.39-2.21-.37-3.33-.17a9.61 9.61 0 0 1-.53.07c-1.28.11-1.95-.68-1.99-1.94-.01-.49.08-1 .23-1.48.3-.97.79-1.84 1.57-2.52l1.31-1.16c.14-.13.28-.26.37-.5-.2.06-.4.12-.6.16-.47.1-.94.22-1.41.29-.55.09-1.06.03-1.3-.64-.17.15-.3.24-.4.35-.95.96-2.16 1.45-3.4 1.86-1.04.34-2.16-.5-2.22-1.59-.03-.67.14-1.29.48-1.84.47-.77.95-1.54 1.51-2.25 1.84-2.35 4.15-4.11 6.8-5.44 1.69-.85 3.45-1.53 5.29-1.95 1.33-.3 2.68-.53 4.02-.79.57-.11 1.15-.21 1.71-.34 1.27-.3 2.55-.56 3.8-.93 2.02-.6 3.97-1.39 5.65-2.72.78-.62 1.65-1.13 2.49-1.68 1.22-.78 2.55-1.22 4.01-1.31 1.33-.07 2.58-.4 3.49-1.49.1-.12.29-.16.41-.23.09.67.08 1.3.27 1.87.23.69.59 1.36.97 1.99 1.4 2.37 2.23 4.91 2.38 7.67.02.41.14.82.24 1.22.18.7.41 1.39.59 2.09.86 3.34 1.56 6.27 3.79 8.89l3.52 4.2c.83.99 1.56 2.05 2.05 3.24.74 1.79 1.13 3.64.71 5.59-.15.72-.45 1.37-.87 1.97-.53.76-1.57 1.26-2.52.33-.49-.47-.92-1-1.35-1.53-.24-.29-.44-.62-.64-.95a2.92 2.92 0 0 0-1.59-1.29c-.6-.21-.24-.64-.77-1.03-.27-.19-.49-.46-.82-.78.08.56.16 1 .19 1.44.19 2.87-.38 5.55-2.08 7.93-.72 1.01-1.57 1.88-2.7 2.44a3.84 3.84 0 0 1-.67.25c-.81.21-1.33-.14-1.43-.99-.09-.71-.15-1.43-.24-2.3l-.28.61c-.86 1.87-2.07 3.44-3.88 4.47-.72.41-1.49.68-2.33.74s-1.49-.25-1.98-.91c-.61-.82-.89-1.77-.81-2.77.08-.98.24-1.95.44-2.91.17-.8.43-1.59.66-2.38.21-.71.24-1.41.03-2.13l-1.47-5.16c-.29-.98-.65-1.94-.91-2.93a10.96 10.96 0 0 1-.33-2.14c-.04-.69.07-1.39.08-2.08 0-1.13.17-2.24.41-3.34.02-.11.03-.23.06-.45zM77.45.54c.27 1.18-2.73 13.32-2.94 14.47-.27 1.5-.71 2.95-1.39 4.31-1.49 2.97-3.24 5.74-6 7.72-1.6 1.14-3.37 1.97-5.16 2.74-2.26.97-4.51 1.97-6.49 3.45-1.98 1.49-3.91 3.04-5.86 4.57-.08.06-.13.15-.25.29.17.04.28.08.38.08.08 0 .15-.06.22-.11 1.32-.81 2.8-1.09 4.31-1.29 1.27-.17 2.54-.37 3.8-.59 2.26-.4 4.31-1.37 6.28-2.5 4.35-2.5 6.89-6.38 8.56-10.99.94-2.6 1.48-5.28 1.98-7.97C74.91 14.6 79.2.53 79.26.28M53.89 35.01c1.35-1.25 2.81-2.31 4.43-3.12 1.69-.84 3.41-1.62 5.13-2.38 3.1-1.36 5.75-3.28 7.7-6.09.04-.06.1-.12.15-.18-.34.82-.81 1.55-1.35 2.24-2.6 3.33-5.95 5.65-9.86 7.17-1.38.54-2.81.97-4.21 1.48-.68.25-1.33.58-2 .88m19.08-14.12l.09.06L72.7 22c-.23.67-.44 1.36-.71 2.02-1.55 3.8-3.87 6.96-7.43 9.12-2.64 1.6-5.43 2.72-8.51 3.09-1.21.15-2.41.34-3.62.53-.34.05-.67.17-1.14.29.16-.15.21-.22.28-.26.85-.5 1.68-1.03 2.56-1.49.78-.4 1.59-.77 2.41-1.06 1.68-.6 3.38-1.13 5.01-1.86 5.09-2.3 8.91-5.86 11.15-11.03.07-.16.18-.31.27-.46"/><path d="M77.45.54c.27 1.18-2.73 13.32-2.94 14.47-.27 1.5-.71 2.95-1.39 4.31-1.49 2.97-3.24 5.74-6 7.72-1.6 1.14-3.37 1.97-5.16 2.74-2.26.97-4.51 1.97-6.49 3.45-1.98 1.49-3.91 3.04-5.86 4.57-.08.06-.13.15-.25.29.17.04.28.08.38.08.08 0 .15-.06.22-.11 1.32-.81 2.8-1.09 4.31-1.29 1.27-.17 2.54-.37 3.8-.59 2.26-.4 4.31-1.37 6.28-2.5 4.35-2.5 6.89-6.38 8.56-10.99.94-2.6 1.48-5.28 1.98-7.97C74.91 14.6 79.2.53 79.26.28M53.89 35.01c1.35-1.25 2.81-2.31 4.43-3.12 1.69-.84 3.41-1.62 5.13-2.38 3.1-1.36 5.75-3.28 7.7-6.09.04-.06.1-.12.15-.18-.34.82-.81 1.55-1.35 2.24-2.6 3.33-5.95 5.65-9.86 7.17-1.38.54-2.81.97-4.21 1.48-.68.25-1.33.58-2 .88zm19.07-14.12l.09.06L72.7 22c-.23.67-.44 1.36-.71 2.02-1.55 3.8-3.87 6.96-7.43 9.12-2.64 1.6-5.43 2.72-8.51 3.09-1.21.15-2.41.34-3.62.53-.34.05-.67.17-1.14.29.16-.15.21-.22.28-.26.85-.5 1.68-1.03 2.56-1.49.78-.4 1.59-.77 2.41-1.06 1.68-.6 3.38-1.13 5.01-1.86 5.09-2.3 8.91-5.86 11.15-11.03.07-.16.18-.31.27-.46z"/></g></svg>