<?xml version="1.0" encoding="UTF-8"?>
<svg id="Layer_2" data-name="Layer 2" xmlns="http://www.w3.org/2000/svg" viewBox="0 0 343.05 174.96">
  <defs>
    <style>
      .cls-1 {
        stroke-width: 0px;
      }

      .cls-2 {
        fill: none;
        stroke: #000;
        stroke-miterlimit: 10;
        stroke-width: 5px;
      }
    </style>
  </defs>
  <g id="Layer_1-2" data-name="Layer 1">
    <path class="cls-1" d="M116.12,87.53c0,5.44-3.46,10.25-8.63,11.98l-1.77.59c-11.79,3.93-24.07,5.93-36.51,5.93h-3.65c-20.06,0-39.87-5.26-57.29-15.21-2.52-1.44-3.74-4.32-2.98-7,.78-2.75,1.17-6.32,1.17-10.61,0-5.88,3.21-16.29,9.28-30.11,5.09-11.6,12.34-22.15,21.57-31.37,4.3-4.3,10.01-6.66,16.08-6.66,2.56,0,5.04.75,7.17,2.17l6.13,4.09c.63.42,1.03,1.1,1.11,1.85.08.76-.19,1.5-.72,2.04l-8.07,8.07c-.86.86-2.18,1.07-3.27.53-.82-.42-1.38-1.17-1.53-2.08-.14-.91.14-1.8.8-2.45l2.32-2.32c.98-.98.98-2.58,0-3.57s-2.58-.98-3.57,0l-2.32,2.32c-1.82,1.81-2.62,4.31-2.21,6.83.41,2.53,1.96,4.64,4.25,5.78,3.04,1.51,6.69.93,9.1-1.48l5.52-5.52c.68.98.63,2.33-.25,3.2l-10.09,10.1c-.47.46-1.13.74-1.79.74h-11.79c.16-.27.31-.54.52-.74.98-.99.98-2.58,0-3.57-.99-.99-2.58-.99-3.57,0-4.14,4.13-3.13,11.1-1.97,19.18.61,4.2,1.22,8.54,1.22,12.89,0,10.39-7.87,12.61-8.2,12.69-1.34.35-2.16,1.71-1.82,3.06.28,1.15,1.32,1.91,2.44,1.91.21,0,.41-.02.62-.08,3.02-.75,7.98-3.65,10.47-9.6.03-.05.09-.07.12-.11,4.2-6.51,11.34-10.4,19.08-10.4,6.03,0,11.71,2.34,16,6.58.98.98,2.58.98,3.57,0,.98-.99.98-2.59-.02-3.57-1.16-1.15-2.45-2.16-3.77-3.08,4.74-9.19,14.15-15.07,24.61-15.07h.75c6.54.19,11.87,5.85,11.87,12.65v29.45ZM104.38,40.39h-.88c-12.31,0-23.38,6.87-29.01,17.65-3.55-1.6-7.38-2.51-11.39-2.51-6.6,0-12.82,2.36-17.73,6.46-.09-4.34-.66-8.65-1.21-12.5-.47-3.28-.93-6.46-.96-9.11h12.76c2.03,0,3.93-.79,5.36-2.22l10.09-10.1c2.89-2.89,2.91-7.52.15-10.48.97-1.45,1.42-3.17,1.25-4.93-.23-2.27-1.44-4.3-3.33-5.56l-6.13-4.08c-2.96-1.98-6.41-3.02-9.97-3.02-7.42,0-14.41,2.89-19.65,8.14-9.67,9.67-17.29,20.74-22.63,32.92C4.67,55.71,1.4,66.53,1.4,73.2c0,3.82-.33,6.93-.98,9.23-1.4,4.92.8,10.17,5.34,12.76,18.18,10.38,38.86,15.88,59.79,15.88h3.65c12.98,0,25.81-2.08,38.11-6.18l1.77-.6c7.22-2.4,12.08-9.14,12.08-16.76v-29.45c0-9.5-7.53-17.44-16.78-17.68"/>
    <g>
      <path class="cls-2" d="M171.39,98.31h28.27c8.16,0,14.36,7.04,16.55,14.76,1.89,6.66,2.22,12.67,8.6,19.62l3,3.28c1.69,1.83,2.82,1.3,6.6.14,8.06-2.47,11.53,8.82,4.38,12.79l-7.97,4.42M173.58,98.31h-7.55c-8.15,0-14.35,7.04-16.55,14.76-1.88,6.66-2.22,12.67-8.59,19.62l-3,3.28c-1.69,1.83-2.82,1.3-6.6.14-8.06-2.47-11.53,8.82-4.38,12.79l7.96,4.42M205.26,122.22v30.27M205.26,132.23l15.38,16.77M160.44,122.22v30.27M160.44,132.23l-15.38,16.77M176.24,172.46h-30.09c-7.34,0-13.35-3.17-13.35-10.52,0-12.88,8.83-14.71,18.72-11.74l31.33,8.03M219.54,172.46c7.34,0,13.35-3.17,13.35-10.52,0-12.88-8.83-14.71-18.72-11.74l-37.93,9.72c-9.43,2.4-6.93,12.53,0,12.53h42.73"/>
      <circle class="cls-2" cx="182.85" cy="77.38" r="19.56"/>
    </g>
    <path class="cls-1" d="M334.17,59.1c-3.7-2.72-8.2-4.06-12.26-3.99-.7-1.47-1.58-2.79-2.7-4.03,3.12-5.82,1.89-13.31-3.5-17.77-1.32-1.09-3.28-.91-4.37.41-1.09,1.32-.91,3.28.41,4.37,2.76,2.29,3.62,6.03,2.38,9.2-.66-.32-1.35-.6-2.06-.83-1.63-.53-3.39.36-3.92,1.99-.53,1.63.36,3.38,1.99,3.91,5.46,1.79,8.44,7.67,6.66,13.13-.53,1.63.36,3.38,1.98,3.91,1.62.53,3.38-.35,3.92-1.98.65-1.97.91-4.01.81-6.02,7.3.78,12.92,6.99,12.92,14.38s-5.67,13.61-12.92,14.38c.22-4.18-1.16-8.27-3.78-11.44-1.09-1.32-3.05-1.51-4.37-.41-1.32,1.09-1.51,3.05-.42,4.37,5.64,6.83.65,17.04-8.03,17.04-5.74,0-10.41-4.67-10.41-10.41V26.57c0-5.74,4.67-10.41,10.41-10.41,4.72,0,8.86,3.18,10.07,7.74.37,1.4,1.65,2.36,3.1,2.31,7.28-.27,12.64,6.96,10.16,13.91-.5,1.37.04,2.9,1.28,3.68,5.38,3.36,6.46,10.55,2.65,15.32ZM279.88,99.71c-8.68,0-13.69-10.2-8.03-17.04,1.09-1.32.91-3.28-.41-4.37-1.32-1.09-3.28-.91-4.37.41-2.61,3.16-4,7.25-3.78,11.44-11.78-1.25-17.02-15.33-9.24-24.01.09.09,3.01-4.08,9.23-4.74-.1,2.01.16,4.04.81,6.02.43,1.31,1.65,2.14,2.95,2.14,2.1,0,3.61-2.06,2.95-4.07-1.78-5.46,1.21-11.35,6.66-13.13,1.63-.53,2.52-2.29,1.99-3.91-.53-1.63-2.29-2.52-3.91-1.99-.71.23-1.4.51-2.06.83-1.24-3.17-.39-6.91,2.38-9.2,1.32-1.09,1.5-3.05.41-4.37-1.09-1.32-3.05-1.5-4.37-.41-5.38,4.46-6.62,11.95-3.5,17.77-2.09,2.32-2.58,4.03-2.75,4.03-4.56,0-8.78,1.48-12.2,3.99-3.81-4.77-2.73-11.96,2.65-15.32,1.23-.77,1.77-2.3,1.28-3.68-2.28-6.39,2.02-13.91,10.26-13.91,1.4,0,2.64-.95,3-2.31,1.21-4.56,5.35-7.74,10.07-7.74,5.74,0,10.41,4.67,10.41,10.41v62.73c0,5.74-4.67,10.41-10.41,10.41M337.12,40c1.96-9.69-4.91-18.8-14.51-19.83-5.01-11.83-21.19-13.82-28.82-3.17-7.63-10.65-23.81-8.67-28.82,3.17-9.6,1.03-16.47,10.15-14.51,19.83-7.15,5.99-7.89,16.67-1.87,23.59-9.96,13.41-.5,32.96,16.68,32.96,5.48,11.44,21.15,12.8,28.52,2.5,7.38,10.3,23.04,8.92,28.52-2.5,17.14.04,26.64-19.54,16.68-32.96,6.02-6.94,5.26-17.61-1.87-23.59Z"/>
  </g>
</svg>