<svg xmlns="http://www.w3.org/2000/svg" viewBox="0 0 512 512" fill="#fff" xmlns:v="https://vecta.io/nano"><circle cx="386" cy="210" r="20"/><path d="M432 40h-26V20c0-11.05-8.95-20-20-20s-20 8.95-20 20v20h-91V20c0-11.05-8.95-20-20-20s-20 8.95-20 20v20h-90V20c0-11.05-8.95-20-20-20s-20 8.95-20 20v20H80C35.89 40 0 75.89 0 120v312c0 44.11 35.89 80 80 80h153c11.05 0 20-8.95 20-20s-8.95-20-20-20H80c-22.06 0-40-17.94-40-40V120c0-22.06 17.94-40 40-40h25v20c0 11.05 8.95 20 20 20s20-8.95 20-20V80h90v20c0 11.05 8.95 20 20 20s20-8.95 20-20V80h91v20c0 11.05 8.95 20 20 20s20-8.95 20-20V80h26c22.06 0 40 17.94 40 40v114c0 11.05 8.95 20 20 20s20-8.95 20-20V120c0-44.11-35.89-80-80-80zm-41 230c-66.72 0-121 54.28-121 121s54.28 121 121 121 121-54.28 121-121-54.28-121-121-121zm0 202c-44.66 0-81-36.34-81-81s36.34-81 81-81 81 36.34 81 81-36.34 81-81 81zm29-101h-9v-21c0-11.05-8.95-20-20-20s-20 8.95-20 20v41c0 11.05 8.95 20 20 20h29c11.05 0 20-8.95 20-20s-8.95-20-20-20z"/><circle cx="299" cy="210" r="20"/><circle cx="212" cy="297" r="20"/><circle cx="125" cy="210" r="20"/><circle cx="125" cy="297" r="20"/><circle cx="125" cy="384" r="20"/><circle cx="212" cy="384" r="20"/><circle cx="212" cy="210" r="20"/></svg>