<?xml version="1.0" encoding="UTF-8"?>
<svg id="Layer_2" data-name="Layer 2" xmlns="http://www.w3.org/2000/svg" viewBox="0 0 111.4 105.88">
  <defs>
    <style>
      .cls-1 {
        fill: #0e0e0e;
        stroke-width: 0px;
      }
    </style>
  </defs>
  <g id="Layer_1-2" data-name="Layer 1">
    <g id="_1" data-name=" 1">
      <path class="cls-1" d="M100.53,0H25.07c-6,0-10.86,4.87-10.87,10.87v3.33h-3.33C4.87,14.21,0,19.07,0,25.07v52.14c0,6,4.87,10.86,10.87,10.87h22.32v11.94c-.02,2.47,1.53,4.67,3.85,5.5.64.23,1.32.35,2,.36,1.73,0,3.36-.78,4.46-2.11l13.12-15.69h29.71c6,0,10.87-4.87,10.87-10.87h0v-3.27h3.33c6.01-.01,10.88-4.9,10.87-10.91,0,0,0,0,0-.01V10.87c-.01-6-4.87-10.86-10.87-10.87ZM92.2,77.21c0,3.24-2.63,5.87-5.87,5.87h-30.88c-.74,0-1.44.33-1.92.9l-13.83,16.59c-.22.28-.61.39-.94.25-.35-.11-.58-.44-.56-.8v-14.44c0-1.38-1.12-2.5-2.5-2.5H10.87c-3.24,0-5.86-2.63-5.87-5.87V25.07c0-3.24,2.63-5.86,5.87-5.87h75.46c3.24,0,5.87,2.63,5.87,5.87h0v52.14ZM106.4,63.02c.02,3.25-2.59,5.9-5.84,5.92-.01,0-.02,0-.03,0h-3.33V25.07c0-6-4.87-10.87-10.87-10.87H19.2v-3.33c0-3.24,2.63-5.86,5.87-5.87h75.46c3.24.01,5.86,2.63,5.87,5.87v52.15ZM50.4,28.87c-12.23-1.08-23.02,7.95-24.1,20.18-1.08,12.23,7.95,23.02,20.18,24.1.14.01.28.02.42.03.57,0,1.14.07,1.7.07,3.96,0,7.86-1.05,11.27-3.07l-2.54-4.25c-8.21,4.82-18.76,2.07-23.58-6.14-4.82-8.21-2.07-18.76,6.14-23.58,8.21-4.82,18.76-2.07,23.58,6.14,1.33,2.26,2.12,4.8,2.32,7.42.1,1.41.03,2.83-.2,4.22-.32,1.71-1.86,2.92-3.6,2.82-1.89-.08-3.38-1.63-3.38-3.52v-2.27c.01-5.52-4.45-10.01-9.97-10.03-5.52-.01-10.01,4.45-10.03,9.97-.01,5.52,4.45,10.01,9.97,10.03,2.5,0,4.91-.92,6.76-2.6,2.85,3.75,8.2,4.48,11.95,1.64,1.69-1.28,2.84-3.15,3.23-5.24,2.06-12.13-6.09-23.63-18.22-25.69-.63-.11-1.26-.19-1.9-.24ZM48.6,56.03c-2.76,0-5-2.24-5-5s2.24-5,5-5,5,2.24,5,5-2.24,5-5,5Z"/>
    </g>
  </g>
</svg>