<?xml version="1.0" encoding="utf-8"?>
<!-- Generator: Adobe Illustrator 28.1.0, SVG Export Plug-In . SVG Version: 6.00 Build 0)  -->
<svg version="1.1" id="Layer_1" xmlns="http://www.w3.org/2000/svg" xmlns:xlink="http://www.w3.org/1999/xlink" x="0px" y="0px"
	 viewBox="0 0 512 512" style="enable-background:new 0 0 512 512;" xml:space="preserve">
<style type="text/css">
	.st0{fill:#FFFFFF;}
</style>
<path class="st0" d="M488,288H264c-4.4,0-8,3.6-8,8v192c0,4.4,3.6,8,8,8h224c4.4,0,8-3.6,8-8V296C496,291.6,492.4,288,488,288z
	 M480,480H272v-28.4l64-56.9l58.2,51.8c3.1,2.8,8,2.6,11-0.3l34.8-34.8l40,40L480,480L480,480z M480,428.7l-34.3-34.3
	c-3-3-8.3-3-11.3,0l-35.1,35.1l-57.9-51.4c-3-2.7-7.6-2.7-10.6,0L272,430.2V304.1h208L480,428.7L480,428.7z"/>
<path class="st0" d="M400,384c17.7,0,32-14.3,32-32s-14.3-32-32-32s-32,14.3-32,32S382.3,384,400,384z M400,336c8.8,0,16,7.2,16,16
	s-7.2,16-16,16s-16-7.2-16-16S391.2,336,400,336z"/>
<path class="st0" d="M56,288h128c4.4,0,8-3.6,8-8s-3.6-8-8-8H56c-4.4,0-8,3.6-8,8S51.6,288,56,288z"/>
<path class="st0" d="M168,304H72c-4.4,0-8,3.6-8,8s3.6,8,8,8h96c4.4,0,8-3.6,8-8S172.4,304,168,304z"/>
<path class="st0" d="M152,336H88c-4.4,0-8,3.6-8,8s3.6,8,8,8h64c4.4,0,8-3.6,8-8S156.4,336,152,336z"/>
<path class="st0" d="M38.5,392h62.9l61.8,46.4c1.4,1,3.1,1.6,4.8,1.6s3.3-0.5,4.6-1.5c2.8-2.1,4-5.7,2.9-9L163,392h38.4
	c12.4,0,22.5-10.1,22.5-22.5v-115c0-12.4-10.1-22.5-22.5-22.5h-163C26.1,232,16,242.1,16,254.5v115C16,381.9,26.1,392,38.5,392z
	 M32,254.5c0-3.6,2.9-6.5,6.5-6.5h163c3.6,0,6.5,2.9,6.5,6.5v115c0,3.6-2.9,6.5-6.5,6.5H152c-2.6,0-5,1.2-6.5,3.4
	c-1.5,2.1-1.9,4.8-1.1,7.2l7.9,23.7l-43.5-32.6c-1.4-1-3-1.6-4.8-1.6H38.5c-3.6,0-6.5-2.9-6.5-6.5L32,254.5z"/>
<path class="st0" d="M54.3,216h211.3c12.3,0,22.3-10,22.3-22.3V38.3c0-12.3-10-22.3-22.3-22.3H54.3C42,16,32,26,32,38.3v155.4
	C32,206,42,216,54.3,216z M48,38.3c0-3.5,2.9-6.3,6.3-6.3h211.3c3.5,0,6.3,2.9,6.3,6.3v155.4c0,3.5-2.9,6.3-6.3,6.3H54.3
	c-3.5,0-6.3-2.9-6.3-6.3L48,38.3z"/>
<path class="st0" d="M124.2,143c1.2,0.6,2.6,1,3.8,1c1.4,0,3-0.4,4.2-1.2l64-40c2.3-1.4,3.8-4,3.8-6.8s-1.4-5.4-3.8-6.8l-64-40
	c-2.5-1.5-5.6-1.6-8.1-0.2c-2.6,1.4-4.2,4.1-4.2,7v80C120,138.8,121.6,141.5,124.2,143L124.2,143z M136,70.4L176.9,96L136,121.6
	V70.4L136,70.4z"/>
<path class="st0" d="M72,176h97.4c3.3,9.3,12.1,16,22.6,16s19.2-6.7,22.6-16H248c4.4,0,8-3.6,8-8s-3.6-8-8-8h-33.4
	c-3.3-9.3-12.1-16-22.6-16s-19.2,6.7-22.6,16H72c-4.4,0-8,3.6-8,8S67.6,176,72,176z M192,160c4.4,0,8,3.6,8,8s-3.6,8-8,8s-8-3.6-8-8
	S187.6,160,192,160z"/>
<path class="st0" d="M488,16H328c-4.4,0-8,3.6-8,8v240c0,4.4,3.6,8,8,8h160c4.4,0,8-3.6,8-8V24C496,19.6,492.4,16,488,16z M480,256
	H336V32h144V256z"/>
<path class="st0" d="M360,72h96c4.4,0,8-3.6,8-8s-3.6-8-8-8h-96c-4.4,0-8,3.6-8,8S355.6,72,360,72z"/>
<path class="st0" d="M360,136h96c4.4,0,8-3.6,8-8s-3.6-8-8-8h-96c-4.4,0-8,3.6-8,8C352,132.4,355.6,136,360,136z"/>
<path class="st0" d="M360,200h96c4.4,0,8-3.6,8-8s-3.6-8-8-8h-96c-4.4,0-8,3.6-8,8S355.6,200,360,200z"/>
<path class="st0" d="M360,104h16c4.4,0,8-3.6,8-8s-3.6-8-8-8h-16c-4.4,0-8,3.6-8,8S355.6,104,360,104z"/>
<circle class="st0" cx="456" cy="160" r="8"/>
<path class="st0" d="M456,88h-40c-4.4,0-8,3.6-8,8s3.6,8,8,8h40c4.4,0,8-3.6,8-8S460.4,88,456,88z"/>
<path class="st0" d="M360,232h40c4.4,0,8-3.6,8-8s-3.6-8-8-8h-40c-4.4,0-8,3.6-8,8S355.6,232,360,232z"/>
<path class="st0" d="M360,168h56c4.4,0,8-3.6,8-8s-3.6-8-8-8h-56c-4.4,0-8,3.6-8,8S355.6,168,360,168z"/>
</svg>
