<?xml version="1.0" encoding="utf-8"?>
<!-- Generator: Adobe Illustrator 28.1.0, SVG Export Plug-In . SVG Version: 6.00 Build 0)  -->
<svg version="1.1" id="Capa_1" xmlns="http://www.w3.org/2000/svg" xmlns:xlink="http://www.w3.org/1999/xlink" x="0px" y="0px"
	 viewBox="0 0 512 512" style="enable-background:new 0 0 512 512;" xml:space="preserve">
<style type="text/css">
	.st0{fill:none;stroke:#FFFFFF;stroke-width:9;stroke-miterlimit:10;}
</style>
<g>
	<path class="st0" d="M473.6,281.1c-12.4,0-119.1,0-132.8,0c31.3-27.3,51-67.5,51-112.1c0-82.1-66.8-149-149-149s-149,66.8-149,149
		c0,49.6,24.3,93.6,61.8,120.7C77.1,314,20,387.3,20,473.6c0,10.1,8.3,18.4,18.4,18.4h435.1c10.1,0,18.4-8.3,18.4-18.4
		c0-4.9,0-169.2,0-174C492,289.3,483.7,281.1,473.6,281.1z M281.1,386.5v68.6H58C67.1,378,132.9,318,212.5,318h68.6V386.5z
		 M242.7,281.1c-61.8,0-112.1-50.2-112.1-112.1S180.9,56.9,242.7,56.9S354.8,107.1,354.8,169S304.5,281.1,242.7,281.1L242.7,281.1z
		 M368.1,455.1H318V405h50.1V455.1z M368.1,368.1H318V318h50.1V368.1z M455.1,455.1H405V405h50.1V455.1z M455.1,368.1H405V318h50.1
		V368.1z"/>
</g>
</svg>
