<?xml version="1.0" encoding="UTF-8"?>
<svg id="Layer_2" data-name="Layer 2" xmlns="http://www.w3.org/2000/svg" viewBox="0 0 392.53 482.14">
  <defs>
    <style>
      .cls-1 {
        fill: #0e0e0e;
        stroke-width: 0px;
      }
    </style>
  </defs>
  <g id="Capa_1" data-name="Capa 1">
    <g>
      <path class="cls-1" d="M97.22,310.19c0-8.01-5.56-12.78-15.36-12.78-4,0-6.71.39-8.13.77v25.69c1.68.38,3.74.5,6.59.5,10.45,0,16.9-5.28,16.9-14.18Z"/>
      <path class="cls-1" d="M157.9,297.68c-4.39,0-7.23.38-8.9.77v56.9c1.68.39,4.39.39,6.84.39,17.81.13,29.42-9.68,29.42-30.45.13-18.06-10.46-27.61-27.36-27.61Z"/>
      <path class="cls-1" d="M270.65,0H77C48.71,0,25.69,23.04,25.69,51.31v189.75h-5.01c-11.42,0-20.68,9.25-20.68,20.68v125.4c0,11.43,9.26,20.68,20.68,20.68h5.01v22.99c0,28.3,23.03,51.32,51.32,51.32h264.22c28.27,0,51.3-23.01,51.3-51.32V121.45L270.65,0ZM54.25,284.38c6.06-1.02,14.58-1.8,26.58-1.8s20.77,2.32,26.58,6.96c5.55,4.38,9.29,11.61,9.29,20.13s-2.84,15.74-8,20.65c-6.71,6.32-16.64,9.16-28.26,9.16-2.58,0-4.9-.13-6.71-.38v31.1h-19.48v-85.82ZM341.23,450.71H77c-10.95,0-19.87-8.92-19.87-19.89v-22.99h246.31c11.42,0,20.68-9.25,20.68-20.68v-125.4c0-11.43-9.26-20.68-20.68-20.68H57.13V51.31c0-10.94,8.92-19.86,19.87-19.86l181.89-.19v67.23c0,19.64,15.93,35.59,35.59,35.59l65.86-.19.74,296.92c0,10.97-8.9,19.89-19.86,19.89ZM129.26,369.8v-85.42c7.23-1.15,16.64-1.8,26.58-1.8,16.52,0,27.23,2.96,35.62,9.28,9.03,6.71,14.7,17.42,14.7,32.78,0,16.64-6.06,28.13-14.45,35.22-9.16,7.61-23.1,11.22-40.12,11.22-10.2,0-17.42-.65-22.32-1.29ZM270.09,319.23v16h-31.23v34.97h-19.74v-86.97h53.16v16.12h-33.42v19.88h31.23Z"/>
    </g>
  </g>
</svg>