<svg id="Layer_1" enable-background="new 0 0 450 450" viewBox="0 0 450 450" xmlns="http://www.w3.org/2000/svg"><g><g><path d="m385.7 144.9h-29.8c-2.8 0-5-2.2-5-5s2.2-5 5-5h24.8v-45h-25.3c-2.8 0-5-2.2-5-5s2.2-5 5-5h30.3c2.8 0 5 2.2 5 5v55c0 2.7-2.2 5-5 5zm-291 0h-1.8c-2.8 0-5-2.2-5-5v-55c0-2.8 2.2-5 5-5h51.7c2.8 0 5 2.2 5 5s-2.2 5-5 5h-46.7v46.2c1.1.9 1.8 2.3 1.8 3.8 0 2.7-2.3 5-5 5z"/></g><g><path d="m63 144.9c-2.8 0-5-2.2-5-5s2.2-5 5-5h29.9c2.8 0 5 2.2 5 5s-2.2 5-5 5zm29.9-55h-29.9c-2.8 0-5-2.2-5-5s2.2-5 5-5h29.9c2.8 0 5 2.2 5 5s-2.2 5-5 5z"/></g><g><path d="m63 144.9c-.8 0-1.6-.2-2.3-.6l-53.7-27.5c-1.7-.9-2.7-2.6-2.7-4.4s1-3.6 2.7-4.4l53.8-27.5c1.6-.8 3.4-.7 4.9.2s2.4 2.5 2.4 4.3v55c0 1.7-.9 3.4-2.4 4.3-.9.3-1.8.6-2.7.6zm-42.7-32.5 37.7 19.3v-38.6z"/></g><g><path d="m413.8 144.9h-28.1c-1.3 0-2.6-.5-3.5-1.5-.9-.9-1.5-2.2-1.5-3.5v-55c0-2.8 2.2-5 5-5h28.1c17.9 0 32.5 14.6 32.5 32.5s-14.6 32.5-32.5 32.5zm-23.1-10h23.1c12.4 0 22.5-10.1 22.5-22.5s-10.1-22.5-22.5-22.5h-23.1z"/></g><g><path d="m385.7 117.4h-29.8c-2.8 0-5-2.2-5-5s2.2-5 5-5h29.8c2.8 0 5 2.2 5 5s-2.2 5-5 5z"/></g><g><path d="m299.8 287.5h-149.1c-33.7 0-61.1-27.4-61.1-61.1v-85.1c0-18.8 15.3-34.1 34.1-34.1h15.9v-41.6c0-17.3 14.1-31.4 31.4-31.4s31.4 14.1 31.4 31.4v42.6c11.3 3 26.2 12.4 26.2 33 0 18.8-15.3 34.1-34.1 34.1-2.8 0-5-2.2-5-5s2.2-5 5-5c13.3 0 24.1-10.8 24.1-24.1 0-20.4-19.7-23.7-21.9-24-2.5-.4-4.4-2.5-4.3-5.1v-46.5c0-11.8-9.6-21.4-21.4-21.4s-21.4 9.6-21.4 21.4v46.6c0 2.8-2.2 5-5 5h-20.9c-13.3 0-24.1 10.8-24.1 24.1v85.1c0 28.2 22.9 51.1 51.1 51.1h149.1c28.1 0 51.1-22.9 51.1-51.1v-54.4c0-2.8 2.2-5 5-5s5 2.2 5 5v54.4c0 33.7-27.4 61.1-61.1 61.1z"/></g><g><path d="m223.8 203.4c-17.3 0-31.4-14.1-31.4-31.4v-1.8c0-2.8 2.2-5 5-5s5 2.2 5 5v1.8c0 11.8 9.6 21.4 21.4 21.4s21.4-9.6 21.4-21.4v-99.5c0-11.8-9.6-21.4-21.4-21.4s-21.4 9.6-21.4 21.4v39.8c0 2.8-2.2 5-5 5s-5-2.2-5-5v-39.8c0-17.3 14.1-31.4 31.4-31.4s31.4 14.1 31.4 31.4v99.5c.1 17.3-14 31.4-31.4 31.4z"/></g><g><path d="m276.7 203.4c-17.3 0-31.4-14.1-31.4-31.4v-87.3c0-17.3 14.1-31.4 31.4-31.4s31.4 14.1 31.4 31.4v87.3c0 17.3-14.1 31.4-31.4 31.4zm0-140.1c-11.8 0-21.4 9.6-21.4 21.4v87.3c0 11.8 9.6 21.4 21.4 21.4s21.4-9.6 21.4-21.4v-87.3c0-11.8-9.6-21.4-21.4-21.4z"/></g><g><path d="m329.5 203.4c-17.3 0-31.4-14.1-31.4-31.4v-82c0-17.3 14.1-31.4 31.4-31.4s31.4 14.1 31.4 31.4v82c0 17.3-14.1 31.4-31.4 31.4zm0-134.9c-11.8 0-21.4 9.6-21.4 21.4v82c0 11.8 9.6 21.4 21.4 21.4s21.4-9.6 21.4-21.4v-81.9c0-11.9-9.6-21.5-21.4-21.5z"/></g><g><path d="m194.6 175.4h-40.1c-2.8 0-5-2.2-5-5s2.2-5 5-5h40.1c2.8 0 5 2.2 5 5s-2.2 5-5 5z"/></g><g><path d="m179.6 235.3c-1.3 0-2.5-.5-3.5-1.4-2-1.9-2-5.1-.1-7.1 5.5-5.7 8.6-13.2 8.6-21.1 0-16.6-13.5-30.2-30.1-30.3-2.8 0-5-2.3-5-5s2.3-5 5-5c22.1.1 40.1 18.2 40.1 40.3 0 10.6-4.1 20.6-11.4 28.1-1 1-2.3 1.5-3.6 1.5z"/></g><g><path d="m297.9 354.1c-2.8 0-5-2.2-5-5v-66.6c0-2.8 2.2-5 5-5s5 2.2 5 5v66.6c0 2.7-2.2 5-5 5zm-145.3 0c-2.8 0-5-2.2-5-5v-66.6c0-2.8 2.2-5 5-5s5 2.2 5 5v66.6c0 2.7-2.2 5-5 5z"/></g><g><path d="m197.4 117.2h-52.8c-2.8 0-5-2.2-5-5s2.2-5 5-5h52.8c2.8 0 5 2.2 5 5s-2.2 5-5 5z"/></g><g><path d="m307 417.3h-163.5c-14 0-25.3-11.4-25.3-25.3v-22.5c0-14 11.4-25.3 25.3-25.3h163.5c14 0 25.3 11.4 25.3 25.3v22.5c.1 13.9-11.3 25.3-25.3 25.3zm-163.5-63.2c-8.4 0-15.3 6.9-15.3 15.3v22.5c0 8.5 6.9 15.3 15.3 15.3h163.5c8.5 0 15.3-6.9 15.3-15.3v-22.5c0-8.5-6.9-15.3-15.3-15.3z"/></g></g></svg>