<?xml version="1.0" encoding="UTF-8"?>
<svg id="Layer_2" data-name="Layer 2" xmlns="http://www.w3.org/2000/svg" viewBox="0 0 664.47 194.26">
  <defs>
    <style>
      .cls-1 {
        fill: #fff;
        stroke-width: 0px;
      }
    </style>
  </defs>
  <g id="Objects">
    <g>
      <path class="cls-1" d="M89.69,139.58c-1.31-2.43-.41-5.46,2.02-6.78,3.54-1.91,7.09-3.81,10.65-5.69,2.44-1.29,5.47-.35,6.76,2.09,1.29,2.44.35,5.47-2.09,6.76-3.53,1.86-7.05,3.74-10.56,5.64-.76.41-1.57.6-2.37.6-1.78,0-3.5-.95-4.4-2.62Z"/>
      <path class="cls-1" d="M623.75.68c2.76.11,4.91,2.44,4.79,5.2-.11,2.69-2.32,4.8-4.99,4.8-.07,0-.14,0-.21,0-3.94-.16-7.95-.29-11.92-.4-2.76-.07-4.94-2.37-4.87-5.13.07-2.76,2.36-4.91,5.13-4.87,4.02.1,8.08.24,12.07.4Z"/>
      <path class="cls-1" d="M305.67,54.1c-3.81,1.16-7.61,2.34-11.41,3.54-.5.16-1.01.23-1.51.23-2.12,0-4.09-1.36-4.77-3.49-.83-2.63.63-5.44,3.26-6.27,3.83-1.21,7.67-2.4,11.51-3.57,2.64-.8,5.44.69,6.24,3.33.8,2.64-.69,5.44-3.33,6.24Z"/>
      <path class="cls-1" d="M647.86,2.02c4.01.28,8.06.6,12.04.94,2.75.24,4.79,2.66,4.56,5.41-.22,2.61-2.41,4.57-4.98,4.57-.14,0-.29,0-.43-.02-3.93-.34-7.93-.65-11.89-.93-2.75-.19-4.83-2.58-4.64-5.34.19-2.75,2.59-4.83,5.34-4.64Z"/>
      <path class="cls-1" d="M322.43,43.94c-.75-2.66.81-5.42,3.46-6.16,3.87-1.08,7.74-2.15,11.62-3.19,2.67-.72,5.41.87,6.13,3.53.72,2.67-.87,5.41-3.53,6.13-3.84,1.03-7.68,2.08-11.52,3.16-.45.13-.91.19-1.35.19-2.19,0-4.19-1.44-4.81-3.65Z"/>
      <path class="cls-1" d="M191.46,95.32c-1.95,0-3.8-1.14-4.6-3.05-1.08-2.54.11-5.48,2.65-6.56,3.7-1.57,7.41-3.12,11.13-4.66,2.56-1.06,5.48.16,6.53,2.72,1.05,2.55-.16,5.48-2.72,6.53-3.69,1.52-7.36,3.06-11.03,4.62-.64.27-1.3.4-1.95.4Z"/>
      <path class="cls-1" d="M256.94,59.56c3.79-1.33,7.59-2.65,11.39-3.94,2.62-.89,5.45.51,6.34,3.13.89,2.61-.51,5.45-3.13,6.34-3.77,1.28-7.54,2.58-11.29,3.91-.55.19-1.11.28-1.66.28-2.06,0-3.99-1.29-4.72-3.34-.92-2.6.45-5.46,3.06-6.38Z"/>
      <path class="cls-1" d="M220.17,78.57c-1-2.57.28-5.47,2.85-6.47,3.75-1.45,7.5-2.89,11.27-4.3,2.58-.97,5.47.34,6.44,2.92.97,2.58-.34,5.47-2.92,6.44-3.73,1.4-7.45,2.82-11.17,4.26-.59.23-1.21.34-1.81.34-2,0-3.89-1.21-4.66-3.19Z"/>
      <path class="cls-1" d="M141.32,113.03c1.21,2.48.18,5.48-2.3,6.69-3.59,1.75-7.16,3.52-10.73,5.3-.72.36-1.48.53-2.24.53-1.83,0-3.6-1.01-4.47-2.76-1.24-2.47-.24-5.47,2.23-6.71,3.6-1.8,7.2-3.58,10.82-5.35,2.48-1.21,5.48-.18,6.69,2.3Z"/>
      <path class="cls-1" d="M516.13,13.1c-3.94.33-7.93.69-11.87,1.07-.16.02-.33.02-.49.02-2.54,0-4.72-1.94-4.97-4.52-.27-2.75,1.75-5.19,4.5-5.46,3.98-.38,8.02-.75,12-1.08,2.76-.24,5.17,1.81,5.4,4.57.23,2.75-1.81,5.17-4.57,5.4Z"/>
      <path class="cls-1" d="M467.39,8.37c3.97-.54,7.99-1.05,11.95-1.53,2.74-.33,5.23,1.62,5.57,4.36.33,2.74-1.62,5.23-4.36,5.57-3.92.48-7.89.99-11.83,1.52-.23.03-.45.05-.67.05-2.46,0-4.61-1.82-4.95-4.33-.37-2.74,1.55-5.25,4.29-5.62Z"/>
      <path class="cls-1" d="M158.53,109.92c-1.89,0-3.7-1.08-4.54-2.9-1.16-2.51-.07-5.48,2.44-6.64,3.65-1.69,7.31-3.36,10.98-5.01,2.52-1.13,5.48,0,6.61,2.51,1.13,2.52,0,5.48-2.51,6.61-3.64,1.64-7.27,3.29-10.88,4.96-.68.31-1.39.46-2.09.46Z"/>
      <path class="cls-1" d="M396.13,20.61c3.9-.81,7.87-1.62,11.81-2.39,2.71-.53,5.34,1.23,5.87,3.94s-1.23,5.34-3.94,5.87c-3.9.77-7.83,1.56-11.69,2.37-.34.07-.69.11-1.03.11-2.32,0-4.4-1.62-4.89-3.98-.56-2.7,1.17-5.35,3.87-5.92Z"/>
      <path class="cls-1" d="M551.83,10.83c-3.94.17-7.94.37-11.9.6-.1,0-.19,0-.29,0-2.63,0-4.84-2.06-4.99-4.72-.16-2.76,1.95-5.12,4.71-5.28,4.01-.23,8.05-.43,12.03-.61,2.75-.14,5.09,2.02,5.21,4.78.12,2.76-2.02,5.09-4.78,5.21Z"/>
      <path class="cls-1" d="M360.87,28.59c3.88-.95,7.82-1.89,11.72-2.8,2.69-.62,5.38,1.05,6,3.74.63,2.69-1.05,5.38-3.74,6-3.86.9-7.77,1.83-11.61,2.77-.4.1-.8.14-1.19.14-2.25,0-4.29-1.53-4.85-3.81-.66-2.68.99-5.39,3.67-6.04Z"/>
      <path class="cls-1" d="M587.57,10c-3.95,0-7.96.05-11.91.11-.03,0-.06,0-.08,0-2.72,0-4.95-2.19-5-4.92-.04-2.76,2.16-5.04,4.92-5.08,4-.07,8.06-.1,12.05-.11h.01c2.76,0,4.99,2.23,5,4.99,0,2.76-2.23,5.01-4.99,5.01Z"/>
      <path class="cls-1" d="M75.56,153.21c-3.47,1.98-6.93,3.97-10.38,5.98-.79.46-1.66.68-2.51.68-1.72,0-3.4-.89-4.33-2.48-1.39-2.39-.58-5.45,1.8-6.84,3.47-2.03,6.96-4.04,10.47-6.03,2.4-1.37,5.46-.53,6.82,1.87,1.37,2.4.53,5.45-1.87,6.82Z"/>
      <path class="cls-1" d="M431.65,13.85c3.92-.67,7.92-1.34,11.89-1.97,2.73-.43,5.29,1.42,5.73,4.15.44,2.73-1.42,5.29-4.15,5.73-3.92.63-7.88,1.28-11.77,1.95-.29.05-.57.07-.85.07-2.39,0-4.5-1.72-4.92-4.15-.47-2.72,1.36-5.31,4.08-5.78Z"/>
      <path class="cls-1" d="M0,194.26c14.58-19.35,30.55-46.67,37.04-68.93l8.73,38.5c.2.22.39.46.55.73.15.25.26.5.37.76l31.41,24.06c-22.93-3.4-54.42-.29-78.1,4.87Z"/>
    </g>
  </g>
</svg>