<svg id="Layer_1" enable-background="new 0 0 512 512" height="512" viewBox="0 0 512 512" width="512" xmlns="http://www.w3.org/2000/svg"><g><path d="m454.333 138.206c-.069-1.888-.867-3.73-2.213-5.061l-132.454-130.978c-1.386-1.369-3.327-2.167-5.274-2.167h-203.087c-18.877 0-34.235 15.224-34.235 33.937v39.053c0 9.697 15 9.697 15 0v-39.053c0-10.442 8.629-18.937 19.235-18.937h195.587v89.678c0 22.773 18.698 41.301 41.682 41.301h90.773v332.085c0 10.441-8.629 18.937-19.235 18.937h-308.807c-10.606 0-19.235-8.495-19.235-18.937v-23.698h199.93c9.697 0 9.697-15 0-15h-206.847c-6.893 0-12.5-5.607-12.5-12.5v-121.579c0-6.893 5.607-12.5 12.5-12.5h277.977c6.893 0 12.5 5.607 12.5 12.5v121.579c0 6.893-5.607 12.5-12.5 12.5h-29.736c-9.697 0-9.697 15 0 15h29.736c15.164 0 27.5-12.336 27.5-27.5v-121.579c0-15.164-12.336-27.5-27.5-27.5h-271.06v-165.304c0-9.697-15-9.697-15 0v166.517c-11.231 3.461-19.417 13.935-19.417 26.286v121.579c0 12.351 8.186 22.825 19.417 26.286v24.912c0 18.713 15.358 33.937 34.235 33.937h308.807c18.877 0 34.235-15.224 34.235-33.937v-339.584c0-.092-.011-.182-.014-.273zm-132.441-33.528v-79.214l106.703 105.514h-80.022c-14.712.001-26.681-11.798-26.681-26.3z"/><path d="m325.144 335.837c9.697 0 9.697-15 0-15h-30.591c-4.142 0-7.5 3.358-7.5 7.5v75.478c0 9.697 15 9.697 15 0v-30.954h20.661c9.697 0 9.697-15 0-15h-20.661v-22.024z"/><path d="m197.523 401.77c0 .539.06 1.064.168 1.571.093 1.863.869 3.63 2.198 4.95 1.405 1.395 3.305 2.177 5.284 2.177h.028c.631-.002 15.52-.06 21.462-.164 21.181-.37 36.554-18.971 36.554-44.229 0-26.553-14.988-44.393-37.296-44.393h-20.897c-1.992 0-3.901.792-5.308 2.202s-2.196 3.321-2.192 5.313v.06.003 72.51zm28.398-65.086c16.439 0 22.296 15.183 22.296 29.393 0 13.895-6.827 28.969-21.816 29.231-3.134.055-8.983.097-13.754.125-.028-8.688-.07-22.665-.07-29.437 0-5.647-.024-20.284-.04-29.312z"/><path d="m123.14 320.559c-4.087 0-7.5 3.414-7.5 7.5v76.034c0 9.697 15 9.697 15 0v-25.568c4.71-.025 10.523-.053 13.671-.053 16.199 0 29.377-12.99 29.377-28.957s-13.178-28.957-29.377-28.957h-21.171zm35.548 28.957c0 7.565-6.584 13.957-14.377 13.957-3.125 0-8.865.027-13.566.052-.025-4.838-.053-10.806-.053-14.008 0-2.696-.016-8.905-.03-13.957h13.649c7.793-.001 14.377 6.391 14.377 13.956z"/></g></svg>