<svg id="record" viewBox="0 0 64 64" xmlns="http://www.w3.org/2000/svg"><path d="m55 42h-3.01c3.24-4.31 5.01-9.56 5.01-15 0-13.79-11.21-25-25-25s-25 11.21-25 25c0 5.44 1.77 10.69 5.01 15h-3.01c-1.65 0-3 1.35-3 3v14c0 1.65 1.35 3 3 3h46c1.65 0 3-1.35 3-3v-14c0-1.65-1.35-3-3-3zm-46-15c0-12.68 10.32-23 23-23s23 10.32 23 23c0 5.52-1.99 10.83-5.59 15h-2.71c4.03-3.93 6.31-9.26 6.31-15 0-11.58-9.42-21-21-21s-21.01 9.42-21.01 21c0 5.74 2.27 11.07 6.31 15h-2.71c-3.6-4.17-5.59-9.48-5.59-15zm34.65 15h-23.3c-4.67-3.63-7.35-9.08-7.35-15 0-10.48 8.52-19 19-19s19 8.52 19 19c0 5.92-2.68 11.37-7.35 15zm12.35 17c0 .55-.45 1-1 1h-46c-.55 0-1-.45-1-1v-14c0-.55.45-1 1-1h46c.55 0 1 .45 1 1z"/><path d="m35 48c.55 0 1-.45 1-1s-.45-1-1-1h-6c-.55 0-1 .45-1 1v10c0 .55.45 1 1 1h6c.55 0 1-.45 1-1s-.45-1-1-1h-5v-3h5c.55 0 1-.45 1-1s-.45-1-1-1h-5v-3z"/><path d="m44.53 20.15c-.3-.18-.66-.2-.97-.04l-6.55 3.28v-2.38c0-1.65-1.35-3-3-3h-12c-1.65 0-3 1.35-3 3v12c0 1.65 1.35 3 3 3h12c1.65 0 3-1.35 3-3v-2.38l6.55 3.28c.14.07.29.11.45.11.18 0 .37-.05.53-.15.29-.18.47-.5.47-.85v-12c0-.35-.18-.67-.47-.85zm-9.53 4.85v8c0 .55-.45 1-1 1h-12c-.55 0-1-.45-1-1v-12c0-.55.45-1 1-1h12c.55 0 1 .45 1 1zm8 6.38-6-3v-2.76l6-3z"/><path d="m22 46h-5c-.55 0-1 .45-1 1v10c0 .55.45 1 1 1s1-.45 1-1v-4h1.43l2.71 4.51c.19.31.52.49.86.49.18 0 .35-.05.51-.14.47-.28.63-.9.34-1.37l-2.09-3.49h.23c1.1 0 2-.9 2-2v-3c0-1.1-.9-2-2-2zm-4 5v-3h4v3s-4 0-4 0z"/><path d="m46 46h-4c-1.1 0-2 .9-2 2v8c0 1.1.9 2 2 2h4c1.1 0 2-.9 2-2v-1c0-.55-.45-1-1-1s-1 .45-1 1v1h-4v-8h4v1c0 .55.45 1 1 1s1-.45 1-1v-1c0-1.1-.9-2-2-2z"/></svg>