<svg id="Icon" enable-background="new 0 0 48 48" height="48" viewBox="0 0 48 48" width="48" xmlns="http://www.w3.org/2000/svg"><g><path d="m24 48c-.552 0-1-.447-1-1 0-1.654-1.346-3-3-3h-15.108c-.266 0-.521-.105-.708-.294-.188-.188-.292-.443-.292-.709l.107-42c.001-.551.449-.997 1-.997h15.001c2.757 0 5 2.243 5 5v42c0 .553-.448 1-1 1zm-18.105-6h14.105c1.125 0 2.164.373 3 1.002v-38.002c0-1.654-1.346-3-3-3h-14.003z"/></g><g><path d="m24 48c-.552 0-1-.447-1-1v-42c0-2.757 2.243-5 5-5h15.001c.552 0 .999.446 1 .997l.106 42c.001.266-.104.521-.292.709-.187.189-.442.294-.708.294h-15.107c-1.654 0-3 1.346-3 3 0 .553-.448 1-1 1zm4-46c-1.654 0-3 1.346-3 3v38.002c.836-.629 1.875-1.002 3-1.002h14.104l-.1-40z"/></g><g><path d="m47 48h-46c-.552 0-1-.447-1-1v-38c0-.553.448-1 1-1h4c.552 0 1 .447 1 1s-.448 1-1 1h-3v36h44v-36h-3c-.553 0-1-.447-1-1s.447-1 1-1h4c.553 0 1 .447 1 1v38c0 .553-.447 1-1 1z"/></g><g><path d="m17 30h-5c-.552 0-1-.447-1-1v-.119c0-1.613-.502-3.08-1.413-4.13-1.305-1.503-1.841-3.505-1.471-5.49.472-2.534 2.479-4.59 4.994-5.115 1.962-.411 3.961.067 5.488 1.309s2.402 3.079 2.402 5.045c0 1.472-.48 2.859-1.39 4.013-1.053 1.337-1.61 2.797-1.61 4.221v.266c0 .553-.448 1-1 1zm-4.041-2h3.076c.159-1.633.843-3.253 2.003-4.726.63-.796.962-1.756.962-2.774 0-1.361-.606-2.635-1.664-3.494-1.073-.871-2.425-1.191-3.818-.903-1.73.362-3.111 1.778-3.437 3.524-.257 1.383.113 2.772 1.016 3.813 1.053 1.213 1.7 2.808 1.862 4.56z"/></g><g><path d="m17 34h-5c-.552 0-1-.447-1-1v-4c0-.553.448-1 1-1h5c.552 0 1 .447 1 1v4c0 .553-.448 1-1 1zm-4-2h3v-2h-3z"/></g><g><path d="m37.037 31c-1.929 0-4.457-1.451-6.6-3.788-3.193-3.483-4.336-7.491-2.658-9.324.534-.581 1.288-.888 2.184-.888 1.929 0 4.457 1.451 6.6 3.788 3.193 3.483 4.336 7.491 2.658 9.324-.533.581-1.288.888-2.184.888zm1.446-1.563h.01zm-8.52-10.437c-.489 0-.655.18-.709.239-.695.759-.005 3.716 2.658 6.621 1.988 2.169 4.007 3.14 5.125 3.14.488 0 .654-.179.709-.239.695-.759.005-3.716-2.658-6.621-1.988-2.169-4.007-3.14-5.125-3.14z"/></g><g><path d="m29.963 31c-.896 0-1.65-.307-2.184-.888-1.678-1.833-.535-5.841 2.658-9.324 2.143-2.337 4.671-3.788 6.6-3.788.896 0 1.65.307 2.184.888 1.678 1.833.535 5.841-2.658 9.324-2.143 2.337-4.671 3.788-6.6 3.788zm-.709-2.239c.055.06.221.239.709.239 1.118 0 3.137-.971 5.125-3.14 2.663-2.905 3.354-5.862 2.658-6.621-.054-.059-.22-.239-.709-.239-1.118 0-3.137.971-5.125 3.14-2.663 2.905-3.353 5.862-2.658 6.621z"/></g></svg>