<?xml version="1.0" encoding="utf-8"?>
<!-- Generator: Adobe Illustrator 28.1.0, SVG Export Plug-In . SVG Version: 6.00 Build 0)  -->
<svg version="1.1" id="Layer_1" xmlns="http://www.w3.org/2000/svg" xmlns:xlink="http://www.w3.org/1999/xlink" x="0px" y="0px"
	 viewBox="0 0 512 512" style="enable-background:new 0 0 512 512;" xml:space="preserve">
<style type="text/css">
	.st0{fill:#FFFFFF;}
</style>
<path class="st0" d="M344,168H192c-13.3,0-24,10.7-24,24v144c0,13.3,10.7,24,24,24h128c2.1,0,4.2-0.8,5.7-2.3l40-40
	c1.5-1.5,2.3-3.5,2.3-5.7V192C368,178.7,357.3,168,344,168z M328,332.7V320h12.7L328,332.7z M352,304h-32c-4.4,0-8,3.6-8,8v32H192
	c-4.4,0-8-3.6-8-8V216h168V304z M352,200H184v-8c0-4.4,3.6-8,8-8h152c4.4,0,8,3.6,8,8V200z"/>
<path class="st0" d="M240,240h16v16h-16V240z"/>
<path class="st0" d="M280,240h16v16h-16V240z"/>
<path class="st0" d="M320,240h16v16h-16V240z"/>
<path class="st0" d="M240,272h16v16h-16V272z"/>
<path class="st0" d="M200,272h16v16h-16V272z"/>
<path class="st0" d="M280,272h16v16h-16V272z"/>
<path class="st0" d="M240,304h16v16h-16V304z"/>
<path class="st0" d="M200,304h16v16h-16V304z"/>
<path class="st0" d="M280,304h16v16h-16V304z"/>
<path class="st0" d="M320,272h16v16h-16V272z"/>
<path class="st0" d="M432,8c-39.8,0-72,32.2-72,72s32.2,72,72,72s72-32.2,72-72C504,40.3,471.7,8,432,8z M432,136
	c-30.9,0-56-25.1-56-56s25.1-56,56-56s56,25.1,56,56C488,110.9,462.9,136,432,136z"/>
<path class="st0" d="M80,504c39.8,0,72-32.2,72-72s-32.2-72-72-72S8,392.2,8,432C8,471.7,40.3,504,80,504z M80,376
	c30.9,0,56,25.1,56,56s-25.1,56-56,56s-56-25.1-56-56l0,0C24,401.1,49.1,376,80,376z"/>
<path class="st0" d="M417.9,91.3L406.5,80l-11.3,11.3l17,17c3.1,3.1,8.2,3.1,11.3,0L468.8,63l-11.3-11.3L417.9,91.3z"/>
<path class="st0" d="M84,448h-8c-2.2,0-4-1.8-4-4H56c0,9.5,6.7,17.7,16,19.6v8.4h16v-8.4c10.8-2.2,17.8-12.8,15.6-23.6
	c-1.9-9.3-10.1-16-19.6-16h-8c-2.2,0-4-1.8-4-4s1.8-4,4-4h8c2.2,0,4,1.8,4,4h16c0-9.5-6.7-17.7-16-19.6V392H72v8.4
	c-10.8,2.2-17.8,12.8-15.6,23.6c1.9,9.3,10.1,16,19.6,16h8c2.2,0,4,1.8,4,4S86.2,448,84,448z"/>
<path class="st0" d="M256,464c-5.2,0-10.6-0.3-16-0.7V448c0-4.4-3.6-8-8-8c-1.5,0-2.9,0.4-4.1,1.1l-40,24c-3.8,2.3-5,7.2-2.7,11
	c0.7,1.1,1.6,2.1,2.7,2.7l40,24c3.8,2.3,8.7,1,11-2.7c0.7-1.2,1.1-2.7,1.1-4.1v-16.7c5.4,0.4,10.8,0.7,16,0.7
	c123.8-0.1,224-100.4,224-224.2c0-25.4-4.3-50.6-12.8-74.5l-15.1,5.4c38.2,108.4-18.6,227.2-127,265.5C302.9,460,279.5,464,256,464
	L256,464z M224,481.9l-16.5-9.9l16.5-9.9V481.9z"/>
<path class="st0" d="M256,48c5.2,0,10.5,0.3,16,0.7V64c0,4.4,3.6,8,8,8c1.5,0,2.9-0.4,4.1-1.1l40-24c3.8-2.3,5-7.2,2.7-11
	c-0.7-1.1-1.6-2.1-2.7-2.7l-40-24c-3.8-2.3-8.7-1-11,2.7c-0.7,1.2-1.1,2.7-1.1,4.1v16.6c-5.4-0.4-10.8-0.6-16-0.6
	C132.2,32.1,32,132.4,32,256.2c0,25.4,4.3,50.6,12.8,74.5l15.1-5.4C21.6,216.9,78.5,98.1,186.9,59.9C209.1,52,232.5,48,256,48z
	 M288,30.1l16.5,9.9L288,49.9V30.1z"/>
</svg>
