<?xml version="1.0" encoding="UTF-8"?>
<svg id="Layer_2" data-name="Layer 2" xmlns="http://www.w3.org/2000/svg" viewBox="0 0 479.29 512">
  <defs>
    <style>
      .cls-1 {
        fill: #0e0e0e;
        stroke-width: 0px;
      }
    </style>
  </defs>
  <g id="Layer_1-2" data-name="Layer 1">
    <path class="cls-1" d="M463.29,206.59H148.32l303.11-92.67c8.45-2.58,13.21-11.53,10.62-19.98l-25.26-82.62c-1.24-4.06-4.04-7.46-7.79-9.45-3.75-1.99-8.13-2.41-12.19-1.17h0L11.32,124.67c-4.06,1.24-7.46,4.04-9.45,7.79-1.99,3.75-2.41,8.13-1.17,12.19l24.56,80.33v239.45c0,26.23,21.34,47.57,47.57,47.57h358.89c26.23,0,47.57-21.34,47.57-47.57v-241.84c0-8.84-7.16-16-16-16h0ZM210.99,97.09l78.19-23.9,51.7,41.07-78.19,23.9-51.7-41.07ZM225.54,149.52l-78.19,23.9-51.69-41.07,78.19-23.9,51.69,41.08ZM58.51,143.71l51.7,41.07-58.32,17.83-15.9-52.02,22.53-6.89ZM378.02,102.9l-51.7-41.08,84.55-25.85,15.9,52.02-48.75,14.9ZM447.29,464.43c0,8.59-6.98,15.57-15.57,15.57H72.83c-8.59,0-15.57-6.98-15.57-15.57v-225.84h390.03v225.84ZM195.03,430.01c2.48,1.43,5.24,2.14,8,2.14s5.52-.71,8-2.14l98.48-56.86c4.95-2.86,8-8.14,8-13.86s-3.05-11-8-13.86l-98.48-56.86c-4.95-2.86-11.05-2.86-16,0-4.95,2.86-8,8.14-8,13.86v113.71c0,5.71,3.05,11,8,13.86h0ZM219.03,330.15l50.48,29.14-50.48,29.14v-58.29Z"/>
  </g>
</svg>