<svg id="Capa_1" enable-background="new 0 0 512.009 512.009" height="512" viewBox="0 0 512.009 512.009" width="512" xmlns="http://www.w3.org/2000/svg"><g><g id="Page-1_30_"><g id="_x30_31---Video-Call-Interview" transform="translate(-1)"><path id="Shape_167_" d="m444 341.731c18.373-13.396 30.604-33.604 33.952-56.095s-2.467-45.384-16.143-63.551v-194.944c.383-14.547-11.055-26.672-25.6-27.136h-409.6c-14.544.464-25.983 12.589-25.6 27.136v312.661c-.383 14.547 11.055 26.672 25.6 27.136h129.997l-15.36 25.6h-20.77c-14.138 0-25.6 11.462-25.6 25.6.07 14.109 11.491 25.53 25.6 25.6h153.6v34.133c0 18.851 15.282 34.133 34.133 34.133h170.667c18.851 0 34.133-15.282 34.133-34.133v-59.733c-.049-39.38-29.837-72.362-69.009-76.407zm-50.457-.393c-37.703 0-68.267-30.564-68.267-68.267s30.564-68.267 68.267-68.267 68.267 30.564 68.267 68.267c-.043 37.685-30.582 68.225-68.267 68.267zm-366.934-324.267h409.6c5.084.526 8.849 4.968 8.533 10.069v177.826c-30.942-23.353-73.748-22.875-104.162 1.162-30.414 24.038-40.768 65.575-25.195 101.076h-58.377v-8.533c-.068-37.535-27.237-69.531-64.265-75.682 26.146-20.005 36.633-54.449 26.072-85.63s-39.82-52.164-72.741-52.164-62.181 20.982-72.741 52.164-.073 65.625 26.072 85.63c-37.028 6.151-64.197 38.147-64.265 75.682v8.533h-17.064v-280.063c-.315-5.102 3.449-9.544 8.533-10.07zm109.065 238.934-4.267-17.067h29.338l-4.267 17.067zm36.215 8.746 6.451-25.813h1.869c7.767 0 15.459 1.525 22.639 4.489-5.019 20.993-12.82 41.223-23.194 60.151zm-25.813-42.88c-32.99 0-59.733-26.744-59.733-59.733s26.744-59.733 59.733-59.733 59.733 26.744 59.733 59.733c-.037 32.974-26.759 59.696-59.733 59.733zm-32.265 17.067 6.451 25.813-7.765 38.827c-10.374-18.929-18.174-39.158-23.194-60.151 7.18-2.963 14.872-4.488 22.639-4.489zm-39.782 13.653c4.861 18.945 11.882 37.27 20.924 54.613h-42.744v-8.533c.012-17.851 8.018-34.759 21.82-46.08zm61.978 20.48h20.139l6.827 34.133h-33.793zm82.116-20.48c13.802 11.321 21.808 28.229 21.82 46.08v8.533h-42.743c9.041-17.343 16.062-35.667 20.923-54.613zm-200.047 87.211v-15.531h307.362c5.005 6.645 10.949 12.526 17.647 17.459-9.496.983-18.722 3.745-27.196 8.141h-289.28c-5.084-.525-8.848-4.967-8.533-10.069zm158.43 27.136h117.291c-6.706 7.454-11.884 16.152-15.241 25.6h-117.41zm-56.03 59.733c-2.299.007-4.499-.938-6.076-2.611-1.592-1.556-2.48-3.696-2.458-5.922 0-4.713 3.821-8.533 8.533-8.533h154.103c-.327 2.833-.495 5.682-.503 8.533v8.533zm375.467 51.2c0 9.426-7.641 17.067-17.067 17.067h-170.667c-9.426 0-17.067-7.641-17.067-17.067v-59.733c.038-32.974 26.759-59.696 59.733-59.733h85.333c32.974.038 59.696 26.759 59.733 59.733v59.733z"/><path id="Shape_166_" d="m265.543 170.671h8.533v16.725c.012 6.525 3.66 12.498 9.46 15.488 5.799 2.99 12.782 2.496 18.103-1.28l43.435-30.933h57.003c14.138 0 25.6-11.462 25.6-25.6v-85.333c0-14.138-11.462-25.6-25.6-25.6h-136.534c-14.139 0-25.6 11.462-25.6 25.6v85.333c0 14.139 11.461 25.6 25.6 25.6zm-8.534-110.933c0-4.713 3.82-8.533 8.533-8.533h136.533c4.713 0 8.533 3.821 8.533 8.533v85.333c0 4.713-3.821 8.533-8.533 8.533h-59.733c-1.775.002-3.505.556-4.949 1.587l-46.251 32.205v-25.259c0-4.713-3.821-8.533-8.533-8.533h-17.067c-4.713 0-8.533-3.821-8.533-8.533z"/><path id="Shape_165_" d="m282.609 85.338h42.667c4.713 0 8.533-3.82 8.533-8.533s-3.82-8.533-8.533-8.533h-42.667c-4.713 0-8.533 3.821-8.533 8.533 0 4.713 3.821 8.533 8.533 8.533z"/><path id="Shape_164_" d="m282.609 119.471h102.4c4.713 0 8.533-3.821 8.533-8.533 0-4.713-3.82-8.533-8.533-8.533h-102.4c-4.713 0-8.533 3.821-8.533 8.533 0 4.713 3.821 8.533 8.533 8.533z"/></g></g></g></svg>