<?xml version="1.0" encoding="UTF-8"?>
<svg id="Layer_2" data-name="Layer 2" xmlns="http://www.w3.org/2000/svg" viewBox="0 0 723.48 82.66">
  <defs>
    <style>
      .cls-1 {
        stroke-width: 0px;
      }
    </style>
  </defs>
  <g id="Layer_1-2" data-name="Layer 1">
    <g>
      <path class="cls-1" d="M25.04,81.35L0,5.03h12.79l12.14,37.72,7.33,26.57h.44l7.44-26.57L52.26,5.03h12.46l-25.37,76.32h-14.32Z"/>
      <path class="cls-1" d="M81.24,14.32c-2.48,0-4.28-.58-5.41-1.75-1.13-1.17-1.69-2.66-1.69-4.48v-1.86c0-1.82.56-3.32,1.69-4.48,1.13-1.17,2.93-1.75,5.41-1.75s4.26.58,5.36,1.75c1.09,1.17,1.64,2.66,1.64,4.48v1.86c0,1.82-.55,3.32-1.64,4.48-1.09,1.17-2.88,1.75-5.36,1.75ZM75.22,24.49h11.92v56.86h-11.92V24.49Z"/>
      <path class="cls-1" d="M119.94,81.35c-4.15,0-7.29-1.07-9.4-3.23-2.12-2.15-3.17-5.19-3.17-9.13v-34.77h-8.86v-9.73h4.81c1.97,0,3.33-.44,4.1-1.31.77-.87,1.15-2.3,1.15-4.26v-9.95h10.72v15.53h11.92v9.73h-11.92v37.39h11.04v9.73h-10.39Z"/>
      <path class="cls-1" d="M185.76,81.35c-3.13,0-5.54-.89-7.22-2.68-1.68-1.79-2.7-4.06-3.06-6.83h-.55c-1.09,3.57-3.1,6.27-6.01,8.09-2.92,1.82-6.45,2.73-10.61,2.73-5.9,0-10.44-1.53-13.61-4.59-3.17-3.06-4.76-7.18-4.76-12.35,0-5.69,2.06-9.95,6.18-12.79,4.12-2.84,10.15-4.26,18.1-4.26h10.28v-4.81c0-3.5-.95-6.19-2.84-8.09-1.9-1.9-4.85-2.84-8.86-2.84-3.35,0-6.09.73-8.2,2.19-2.12,1.46-3.9,3.32-5.36,5.58l-7.11-6.45c1.9-3.21,4.55-5.85,7.98-7.93,3.43-2.08,7.91-3.12,13.45-3.12,7.36,0,13.01,1.71,16.95,5.14,3.94,3.43,5.9,8.35,5.9,14.76v28.54h6.01v9.73h-6.67ZM161.71,73.58c3.72,0,6.78-.82,9.18-2.46,2.41-1.64,3.61-3.84,3.61-6.61v-8.2h-10.06c-8.24,0-12.35,2.55-12.35,7.65v1.97c0,2.55.86,4.47,2.57,5.74,1.71,1.28,4.06,1.91,7.05,1.91Z"/>
      <path class="cls-1" d="M204.13,81.35V24.49h11.92v9.4h.55c.58-1.46,1.29-2.84,2.13-4.15.84-1.31,1.86-2.46,3.06-3.44s2.62-1.75,4.26-2.3c1.64-.55,3.55-.82,5.74-.82,3.86,0,7.29.95,10.28,2.84,2.99,1.9,5.17,4.81,6.56,8.75h.33c1.02-3.21,2.99-5.94,5.9-8.2,2.91-2.26,6.67-3.39,11.26-3.39,5.69,0,10.1,1.91,13.23,5.74,3.13,3.83,4.7,9.28,4.7,16.35v36.08h-11.92v-34.66c0-4.37-.84-7.67-2.51-9.9-1.68-2.22-4.34-3.33-7.98-3.33-1.53,0-2.99.2-4.37.6-1.39.4-2.61,1-3.66,1.8-1.06.8-1.91,1.82-2.57,3.06-.66,1.24-.98,2.66-.98,4.26v38.16h-11.92v-34.66c0-8.82-3.46-13.23-10.39-13.23-1.46,0-2.9.2-4.32.6-1.42.4-2.68,1-3.77,1.8-1.09.8-1.97,1.82-2.62,3.06-.66,1.24-.98,2.66-.98,4.26v38.16h-11.92Z"/>
      <path class="cls-1" d="M306.58,14.32c-2.48,0-4.28-.58-5.41-1.75-1.13-1.17-1.69-2.66-1.69-4.48v-1.86c0-1.82.56-3.32,1.69-4.48,1.13-1.17,2.93-1.75,5.41-1.75s4.26.58,5.36,1.75c1.09,1.17,1.64,2.66,1.64,4.48v1.86c0,1.82-.55,3.32-1.64,4.48-1.09,1.17-2.88,1.75-5.36,1.75ZM300.57,24.49h11.92v56.86h-11.92V24.49Z"/>
      <path class="cls-1" d="M329.54,81.35V24.49h11.92v9.4h.55c1.24-3.06,3.12-5.61,5.63-7.65,2.51-2.04,5.96-3.06,10.33-3.06,5.83,0,10.37,1.91,13.61,5.74,3.24,3.83,4.87,9.28,4.87,16.35v36.08h-11.92v-34.55c0-8.89-3.57-13.34-10.72-13.34-1.53,0-3.04.2-4.54.6-1.49.4-2.83,1-3.99,1.8-1.17.8-2.1,1.82-2.79,3.06-.69,1.24-1.04,2.7-1.04,4.37v38.05h-11.92Z"/>
      <path class="cls-1" d="M415.26,82.66c-3.94,0-7.53-.69-10.77-2.08-3.24-1.38-6-3.37-8.25-5.96-2.26-2.59-4.01-5.72-5.25-9.4-1.24-3.68-1.86-7.78-1.86-12.3s.62-8.62,1.86-12.3c1.24-3.68,2.99-6.81,5.25-9.4,2.26-2.59,5.01-4.57,8.25-5.96,3.24-1.38,6.83-2.08,10.77-2.08s7.53.69,10.77,2.08c3.24,1.39,6,3.37,8.25,5.96,2.26,2.59,4.01,5.72,5.25,9.4,1.24,3.68,1.86,7.78,1.86,12.3s-.62,8.62-1.86,12.3c-1.24,3.68-2.99,6.82-5.25,9.4-2.26,2.59-5.01,4.57-8.25,5.96-3.24,1.38-6.83,2.08-10.77,2.08ZM415.26,72.71c4.08,0,7.36-1.25,9.84-3.75,2.48-2.5,3.72-6.25,3.72-11.25v-9.57c0-5-1.24-8.75-3.72-11.25-2.48-2.5-5.76-3.75-9.84-3.75s-7.36,1.25-9.84,3.75c-2.48,2.5-3.72,6.25-3.72,11.25v9.57c0,5,1.24,8.75,3.72,11.25,2.48,2.5,5.76,3.75,9.84,3.75Z"/>
      <path class="cls-1" d="M470.04,81.35c-4.15,0-7.29-1.07-9.4-3.23-2.12-2.15-3.17-5.19-3.17-9.13v-34.77h-8.86v-9.73h4.81c1.97,0,3.33-.44,4.1-1.31.77-.87,1.15-2.3,1.15-4.26v-9.95h10.72v15.53h11.92v9.73h-11.92v37.39h11.04v9.73h-10.39Z"/>
      <path class="cls-1" d="M494.2.44h11.92v33.46h.55c1.24-3.06,3.12-5.61,5.63-7.65,2.51-2.04,5.96-3.06,10.33-3.06,5.83,0,10.37,1.91,13.61,5.74,3.24,3.83,4.87,9.28,4.87,16.35v36.08h-11.92v-34.66c0-8.82-3.57-13.23-10.72-13.23-1.53,0-3.04.2-4.54.6-1.49.4-2.83,1-3.99,1.8-1.17.8-2.1,1.82-2.79,3.06-.69,1.24-1.04,2.66-1.04,4.26v38.16h-11.92V.44Z"/>
      <path class="cls-1" d="M579.92,82.66c-4.08,0-7.73-.69-10.93-2.08-3.21-1.38-5.94-3.37-8.2-5.96-2.26-2.59-3.99-5.72-5.19-9.4-1.2-3.68-1.8-7.78-1.8-12.3s.6-8.62,1.8-12.3c1.2-3.68,2.93-6.81,5.19-9.4,2.26-2.59,4.99-4.57,8.2-5.96,3.21-1.38,6.85-2.08,10.93-2.08s7.82.73,10.99,2.19c3.17,1.46,5.81,3.48,7.93,6.07,2.11,2.59,3.7,5.59,4.76,9.02,1.06,3.43,1.59,7.11,1.59,11.04v4.48h-39.03v1.85c0,4.35,1.29,7.91,3.88,10.7,2.59,2.79,6.29,4.18,11.1,4.18,3.5,0,6.45-.76,8.86-2.28,2.41-1.52,4.45-3.59,6.12-6.19l7,6.91c-2.12,3.51-5.18,6.31-9.18,8.39-4.01,2.08-8.68,3.12-14,3.12ZM579.92,32.47c-2.04,0-3.92.37-5.63,1.09-1.71.73-3.17,1.75-4.37,3.06-1.2,1.31-2.13,2.88-2.79,4.7-.66,1.82-.98,3.83-.98,6.01v.77h26.46v-1.09c0-4.37-1.13-7.89-3.39-10.55-2.26-2.66-5.36-3.99-9.29-3.99Z"/>
      <path class="cls-1" d="M618.41.44h11.92v49.64h.55l7.87-10.17,13.67-15.42h13.89l-19.9,21.98,22.3,34.88h-14.21l-16.29-27.12-7.87,8.53v18.59h-11.92V.44Z"/>
      <path class="cls-1" d="M698.23,82.66c-4.08,0-7.73-.69-10.93-2.08-3.21-1.38-5.94-3.37-8.2-5.96-2.26-2.59-3.99-5.72-5.19-9.4-1.2-3.68-1.8-7.78-1.8-12.3s.6-8.62,1.8-12.3c1.2-3.68,2.93-6.81,5.19-9.4,2.26-2.59,4.99-4.57,8.2-5.96,3.21-1.38,6.85-2.08,10.93-2.08s7.82.73,10.99,2.19c3.17,1.46,5.81,3.48,7.93,6.07,2.11,2.59,3.7,5.59,4.76,9.02,1.06,3.43,1.59,7.11,1.59,11.04v4.48h-39.03v1.85c0,4.35,1.29,7.91,3.88,10.7,2.59,2.79,6.29,4.18,11.1,4.18,3.5,0,6.45-.76,8.86-2.28,2.41-1.52,4.45-3.59,6.12-6.19l7,6.91c-2.12,3.51-5.18,6.31-9.18,8.39-4.01,2.08-8.68,3.12-14,3.12ZM698.23,32.47c-2.04,0-3.92.37-5.63,1.09-1.71.73-3.17,1.75-4.37,3.06-1.2,1.31-2.13,2.88-2.79,4.7-.66,1.82-.98,3.83-.98,6.01v.77h26.46v-1.09c0-4.37-1.13-7.89-3.39-10.55-2.26-2.66-5.36-3.99-9.29-3.99Z"/>
    </g>
  </g>
</svg>