<?xml version="1.0" encoding="UTF-8"?>
<svg id="Layer_2" data-name="Layer 2" xmlns="http://www.w3.org/2000/svg" viewBox="0 0 74.24 605.89">
  <defs>
    <style>
      .cls-1 {
        fill: #0e0e0e;
        stroke-width: 0px;
      }
    </style>
  </defs>
  <g id="Layer_1-2" data-name="Layer 1">
    <g>
      <path class="cls-1" d="M73.06,589.11l-68.91,16.78v-8.79l33.17-7.4,25.77-5.73v-.2l-25.77-6.42-33.17-8.69v-9.48l33.17-8.39,25.67-6.42v-.3l-25.67-5.92-33.17-7.8v-8.49l68.91,17.67v9.18l-34.36,8.98-25.27,6.32v.2l25.27,6.52,34.36,9.18v9.18Z"/>
      <path class="cls-1" d="M74.24,493.74c0,3.42-.63,6.55-1.88,9.38-1.25,2.83-3.04,5.25-5.38,7.26-2.34,2.01-5.13,3.57-8.39,4.69-3.26,1.12-6.93,1.68-11.01,1.68s-7.67-.56-10.96-1.68c-3.29-1.12-6.1-2.68-8.44-4.69-2.34-2.01-4.13-4.43-5.38-7.26-1.25-2.83-1.88-5.96-1.88-9.38s.63-6.53,1.88-9.33c1.25-2.8,3.04-5.22,5.38-7.26,2.34-2.04,5.15-3.62,8.44-4.74,3.29-1.12,6.95-1.68,10.96-1.68s7.75.56,11.01,1.68c3.26,1.12,6.06,2.7,8.39,4.74,2.34,2.04,4.13,4.46,5.38,7.26,1.25,2.8,1.88,5.91,1.88,9.33ZM67.23,493.74c0-4.28-1.32-7.77-3.95-10.47-2.63-2.7-6.65-4.05-12.04-4.05h-7.31c-5.4,0-9.41,1.35-12.04,4.05-2.63,2.7-3.95,6.19-3.95,10.47s1.32,7.77,3.95,10.47c2.63,2.7,6.65,4.05,12.04,4.05h7.31c5.4,0,9.41-1.35,12.04-4.05,2.63-2.7,3.95-6.19,3.95-10.47Z"/>
      <path class="cls-1" d="M0,457.7v-7.9h30.31v-.4c-2.87-1.25-5.15-3.01-6.84-5.28-1.69-2.27-2.54-5.31-2.54-9.13,0-5.27,1.7-9.43,5.08-12.49,3.39-3.06,8.18-4.59,14.37-4.59h32.68v7.9h-31.36c-9.17,0-13.75,3.85-13.75,11.55,0,1.58.2,3.11.59,4.59.4,1.48.99,2.81,1.78,4,.79,1.18,1.8,2.12,3.02,2.81,1.22.69,2.65,1.04,4.3,1.04h35.42v7.9H0Z"/>
      <path class="cls-1" d="M73.06,393.23c0,2.76-.77,4.85-2.32,6.27-1.55,1.42-3.5,2.12-5.87,2.12H0v-7.9h66.05v-7.5h7.01v7.01Z"/>
      <path class="cls-1" d="M0,374.77v-7.9h30.31v-.4c-3.19-1.32-5.56-3.24-7.09-5.78-1.53-2.53-2.3-5.58-2.3-9.13,0-3.16.63-6.02,1.88-8.59,1.25-2.57,3.03-4.75,5.33-6.57,2.3-1.81,5.1-3.19,8.39-4.15,3.29-.95,6.98-1.43,11.06-1.43s7.77.48,11.06,1.43c3.29.96,6.09,2.34,8.39,4.15,2.3,1.81,4.08,4,5.33,6.57s1.88,5.43,1.88,8.59c0,6.91-3.13,11.88-9.38,14.91v.4h8.2v7.9H0ZM67.23,353.74c0-4.48-1.41-8-4.22-10.56s-6.5-3.85-11.07-3.85h-8.73c-4.56,0-8.25,1.28-11.06,3.85-2.81,2.57-4.22,6.09-4.22,10.56,0,1.78.25,3.47.75,5.08.5,1.61,1.17,3.01,2.03,4.2.86,1.18,1.9,2.12,3.13,2.81,1.22.69,2.53,1.04,3.92,1.04h19.05c1.65,0,3.13-.35,4.42-1.04,1.29-.69,2.38-1.63,3.27-2.81.89-1.19,1.57-2.58,2.03-4.2.46-1.61.69-3.31.69-5.08Z"/>
      <path class="cls-1" d="M74.24,298.35c0,3.49-.63,6.63-1.88,9.43-1.25,2.8-3.04,5.2-5.38,7.21-2.34,2.01-5.13,3.55-8.39,4.64-3.26,1.09-6.93,1.63-11.01,1.63s-7.67-.54-10.96-1.63c-3.29-1.09-6.1-2.63-8.44-4.64-2.34-2.01-4.13-4.41-5.38-7.21-1.25-2.8-1.88-5.94-1.88-9.43s.62-6.48,1.87-9.18c1.25-2.7,2.97-5,5.17-6.91,2.2-1.91,4.8-3.37,7.82-4.39,3.02-1.02,6.33-1.53,9.94-1.53h3.74v36.63h2.37c2.17,0,4.2-.35,6.07-1.04,1.88-.69,3.5-1.68,4.89-2.96,1.38-1.28,2.47-2.86,3.26-4.74s1.18-4,1.18-6.37c0-3.22-.76-6.04-2.27-8.44-1.51-2.4-3.69-4.26-6.52-5.58l4.07-5.63c3.51,1.65,6.34,4.21,8.49,7.7,2.15,3.49,3.23,7.64,3.23,12.44ZM27.55,298.35c0,2.17.38,4.15,1.13,5.92.75,1.78,1.82,3.31,3.19,4.59s2.99,2.29,4.86,3.01c1.86.73,3.91,1.09,6.13,1.09h.69v-28.14h-1.08c-4.51,0-8.13,1.23-10.84,3.7-2.72,2.47-4.07,5.74-4.07,9.82Z"/>
      <path class="cls-1" d="M29.12,260.54v8.29h-7.01v-8.29h-10.27c-3.55,0-6.42-.92-8.59-2.76-2.17-1.84-3.26-4.64-3.26-8.39v-7.7h7.01v10.96h15.11v-28.53h50.94v7.9H29.12v20.63h43.93v7.9H29.12ZM10.17,228.06c0,1.71-.41,2.95-1.23,3.7-.82.76-1.89,1.14-3.21,1.14h-1.28c-1.32,0-2.38-.38-3.21-1.14-.82-.76-1.23-1.99-1.23-3.7s.41-2.94,1.23-3.7c.82-.76,1.89-1.14,3.21-1.14h1.28c1.32,0,2.39.38,3.21,1.14.82.76,1.23,1.99,1.23,3.7Z"/>
      <path class="cls-1" d="M73.06,207.33H22.12v-7.9h8.2v-.4c-2.87-1.25-5.15-3.01-6.84-5.28-1.69-2.27-2.54-5.31-2.54-9.13,0-5.26,1.7-9.43,5.08-12.49,3.39-3.06,8.18-4.59,14.37-4.59h32.68v7.9h-31.36c-9.17,0-13.75,3.85-13.75,11.55,0,1.58.2,3.11.59,4.59.4,1.48.99,2.81,1.78,4,.79,1.18,1.8,2.12,3.02,2.81,1.22.69,2.65,1.04,4.3,1.04h35.42v7.9Z"/>
      <path class="cls-1" d="M64.86,118.67v.4c6.26,3.09,9.38,8.06,9.38,14.91,0,3.16-.63,6.02-1.88,8.59s-3.03,4.76-5.33,6.57c-2.3,1.81-5.1,3.19-8.39,4.15-3.29.96-6.98,1.43-11.06,1.43s-7.77-.48-11.06-1.43c-3.29-.95-6.09-2.33-8.39-4.15-2.3-1.81-4.08-4-5.33-6.57-1.25-2.57-1.88-5.43-1.88-8.59,0-3.55.77-6.6,2.3-9.13,1.53-2.53,3.89-4.46,7.09-5.78v-.4H0v-7.9h73.06v7.9h-8.2ZM67.23,131.8c0-1.78-.23-3.47-.69-5.08-.46-1.61-1.14-3.01-2.03-4.2-.89-1.18-1.98-2.12-3.27-2.81-1.29-.69-2.76-1.04-4.42-1.04h-19.05c-1.39,0-2.7.35-3.92,1.04-1.22.69-2.26,1.63-3.13,2.81-.86,1.18-1.54,2.58-2.03,4.2-.5,1.61-.75,3.31-.75,5.08,0,4.48,1.41,8,4.22,10.56,2.81,2.57,6.5,3.85,11.06,3.85h8.73c4.57,0,8.25-1.28,11.07-3.85,2.81-2.57,4.22-6.09,4.22-10.56Z"/>
      <path class="cls-1" d="M74.24,74.84c0,3.49-.63,6.63-1.88,9.43-1.25,2.8-3.04,5.2-5.38,7.21-2.34,2.01-5.13,3.55-8.39,4.64-3.26,1.09-6.93,1.63-11.01,1.63s-7.67-.54-10.96-1.63c-3.29-1.09-6.1-2.63-8.44-4.64-2.34-2.01-4.13-4.41-5.38-7.21-1.25-2.8-1.88-5.94-1.88-9.43s.62-6.48,1.87-9.18c1.25-2.7,2.97-5,5.17-6.91,2.2-1.91,4.8-3.37,7.82-4.39,3.02-1.02,6.33-1.53,9.94-1.53h3.74v36.63h2.37c2.17,0,4.2-.35,6.07-1.04,1.88-.69,3.5-1.68,4.89-2.96,1.38-1.28,2.47-2.86,3.26-4.74s1.18-4,1.18-6.37c0-3.22-.76-6.04-2.27-8.44-1.51-2.4-3.69-4.26-6.52-5.58l4.07-5.63c3.51,1.65,6.34,4.21,8.49,7.7,2.15,3.49,3.23,7.64,3.23,12.44ZM27.55,74.84c0,2.17.38,4.15,1.13,5.92.75,1.78,1.82,3.31,3.19,4.59,1.37,1.28,2.99,2.29,4.86,3.01,1.86.72,3.91,1.09,6.13,1.09h.69v-28.14h-1.08c-4.51,0-8.13,1.23-10.84,3.7-2.72,2.47-4.07,5.74-4.07,9.82Z"/>
      <path class="cls-1" d="M73.06,39.79H22.12v-7.9h8.2v-.4c-2.87-1.25-5.15-3.01-6.84-5.28-1.69-2.27-2.54-5.31-2.54-9.13,0-5.26,1.7-9.43,5.08-12.49,3.39-3.06,8.18-4.59,14.37-4.59h32.68v7.9h-31.36c-9.17,0-13.75,3.85-13.75,11.55,0,1.58.2,3.11.59,4.59.4,1.48.99,2.81,1.78,4,.79,1.18,1.8,2.12,3.02,2.81,1.22.69,2.65,1.04,4.3,1.04h35.42v7.9Z"/>
    </g>
  </g>
</svg>